JetBrainsMoro-BoldItalic.ufo
<glyph name="exclam" format="2">
  <advance width="600.0"/>
  <unicode hex="0021"/>
  <outline>
    <contour>
      <point x="246.885" y="232.55" type="line"/>
      <point x="338.965" y="232.55" type="line"/>
      <point x="418.285" y="592.45" type="line"/>
      <point x="440.21" y="730.0" type="line"/>
      <point x="303.79" y="730.0" type="line"/>
      <point x="281.865" y="592.45" type="line"/>
    </contour>
    <contour>
      <point x="240.0" y="-5.0" type="curve" smooth="yes"/>
      <point x="269.415" y="-5.0" type="line" smooth="yes"/>
      <point x="310.85" y="-5.0"/>
      <point x="342.775" y="21.585"/>
      <point x="349.36" y="61.265" type="curve" smooth="yes"/>
      <point x="355.53" y="99.945"/>
      <point x="332.85" y="126.7"/>
      <point x="290.755" y="126.7" type="curve" smooth="yes"/>
      <point x="260.755" y="126.7" type="line" smooth="yes"/>
      <point x="219.905" y="126.7"/>
      <point x="187.98" y="99.945"/>
      <point x="181.81" y="60.85" type="curve" smooth="yes"/>
      <point x="175.81" y="21.755"/>
      <point x="199.15" y="-5.0"/>
    </contour>
  </outline>
</glyph>
<glyph name="quotedbl" format="2">
  <advance width="600.0"/>
  <unicode hex="0022"/>
  <outline>
    <contour>
      <point x="383.735" y="430.0" type="line"/>
      <point x="485.23" y="430.0" type="line"/>
      <point x="523.965" y="599.05" type="line"/>
      <point x="545.4" y="730.0" type="line"/>
      <point x="418.565" y="730.0" type="line"/>
      <point x="397.13" y="599.05" type="line"/>
    </contour>
    <contour>
      <point x="163.77" y="430.0" type="line"/>
      <point x="265.265" y="430.0" type="line"/>
      <point x="304.0" y="599.05" type="line"/>
      <point x="325.435" y="730.0" type="line"/>
      <point x="198.6" y="730.0" type="line"/>
      <point x="177.165" y="599.05" type="line"/>
    </contour>
  </outline>
</glyph>
<glyph name="numbersign" format="2">
  <advance width="600.0"/>
  <unicode hex="0023"/>
  <outline>
    <contour>
      <point x="30.98" y="0.0" type="line"/>
      <point x="122.7" y="0.0" type="line"/>
      <point x="184.095" y="182.45" type="line"/>
      <point x="321.96" y="182.45" type="line"/>
      <point x="260.565" y="0.0" type="line"/>
      <point x="352.285" y="0.0" type="line"/>
      <point x="413.68" y="182.45" type="line"/>
      <point x="526.775" y="182.45" type="line"/>
      <point x="540.285" y="267.925" type="line"/>
      <point x="442.115" y="267.925" type="line"/>
      <point x="507.19" y="462.075" type="line"/>
      <point x="603.19" y="462.075" type="line"/>
      <point x="616.7" y="547.55" type="line"/>
      <point x="535.625" y="547.55" type="line"/>
      <point x="597.02" y="730.0" type="line"/>
      <point x="505.3" y="730.0" type="line"/>
      <point x="443.905" y="547.55" type="line"/>
      <point x="306.04" y="547.55" type="line"/>
      <point x="367.435" y="730.0" type="line"/>
      <point x="275.715" y="730.0" type="line"/>
      <point x="214.32" y="547.55" type="line"/>
      <point x="101.225" y="547.55" type="line"/>
      <point x="87.715" y="462.075" type="line"/>
      <point x="185.885" y="462.075" type="line"/>
      <point x="120.81" y="267.925" type="line"/>
      <point x="24.810000000000002" y="267.925" type="line"/>
      <point x="11.3" y="182.45" type="line"/>
      <point x="92.375" y="182.45" type="line"/>
    </contour>
    <contour>
      <point x="212.53" y="267.925" type="line"/>
      <point x="277.605" y="462.075" type="line"/>
      <point x="415.47" y="462.075" type="line"/>
      <point x="350.395" y="267.925" type="line"/>
    </contour>
  </outline>
</glyph>
<glyph name="dollar" format="2">
  <advance width="600.0"/>
  <unicode hex="0024"/>
  <outline>
    <contour>
      <point x="202.565" y="-140.0" type="line"/>
      <point x="265.49" y="-140.0" type="line"/>
      <point x="286.49" y="-9.0" type="line"/>
      <point x="416.19" y="1.83"/>
      <point x="511.625" y="82.925"/>
      <point x="530.38" y="199.36" type="curve" smooth="yes"/>
      <point x="547.55" y="309.475"/>
      <point x="497.115" y="387.06"/>
      <point x="385.81" y="417.475" type="curve" smooth="yes"/>
      <point x="354.83" y="426.38" type="line"/>
      <point x="386.81" y="628.165" type="line"/>
      <point x="434.11" y="618.75"/>
      <point x="455.845" y="586.525"/>
      <point x="448.185" y="539.15" type="curve"/>
      <point x="573.285" y="539.15" type="line"/>
      <point x="590.455" y="652.245"/>
      <point x="525.19" y="728.0"/>
      <point x="404.49" y="739.0" type="curve"/>
      <point x="425.49" y="870.0" type="line"/>
      <point x="362.565" y="870.0" type="line"/>
      <point x="341.565" y="738.0" type="line"/>
      <point x="218.205" y="727.0"/>
      <point x="129.94" y="649.49"/>
      <point x="112.355" y="536.055" type="curve" smooth="yes"/>
      <point x="95.6" y="428.11"/>
      <point x="147.79" y="348.43"/>
      <point x="257.415" y="318.6" type="curve" smooth="yes"/>
      <point x="274.055" y="313.525" type="line"/>
      <point x="240.83" y="102.42" type="line"/>
      <point x="187.795" y="112.005"/>
      <point x="161.985" y="146.23"/>
      <point x="169.645" y="195.85" type="curve"/>
      <point x="44.545" y="195.85" type="line"/>
      <point x="26.79" y="79.095"/>
      <point x="94.47" y="2.17"/>
      <point x="223.565" y="-8.415" type="curve"/>
    </contour>
    <contour>
      <point x="303.17" y="101.25" type="curve"/>
      <point x="341.0" y="336.645" type="line"/>
      <point x="305.2" y="298.715" type="line" smooth="yes"/>
      <point x="377.165" y="294.17"/>
      <point x="413.695" y="251.85"/>
      <point x="404.695" y="194.435" type="curve" smooth="yes"/>
      <point x="396.45" y="142.72"/>
      <point x="359.055" y="109.495"/>
    </contour>
    <contour>
      <point x="285.98" y="387.83" type="line"/>
      <point x="338.36" y="436.625" type="line"/>
      <point x="265.625" y="439.265"/>
      <point x="229.04" y="482.245"/>
      <point x="238.87" y="542.885" type="curve" smooth="yes"/>
      <point x="246.115" y="588.77"/>
      <point x="276.755" y="619.165"/>
      <point x="323.885" y="628.165" type="curve"/>
    </contour>
  </outline>
</glyph>
<glyph name="percent" format="2">
  <advance width="600.0"/>
  <unicode hex="0025"/>
  <outline>
    <contour>
      <point x="-46.965" y="0.0" type="line"/>
      <point x="46.585" y="0.0" type="line"/>
      <point x="674.965" y="730.0" type="line"/>
      <point x="582.0" y="730.0" type="line"/>
    </contour>
    <contour>
      <point x="397.075" y="-5.0" type="curve" smooth="yes"/>
      <point x="482.83" y="-5.0"/>
      <point x="552.095" y="47.755"/>
      <point x="564.51" y="130.0" type="curve" smooth="yes"/>
      <point x="574.51" y="195.0" type="line" smooth="yes"/>
      <point x="586.925" y="277.245"/>
      <point x="535.83" y="330.0"/>
      <point x="450.075" y="330.0" type="curve" smooth="yes"/>
      <point x="364.32" y="330.0"/>
      <point x="296.055" y="277.245"/>
      <point x="283.64" y="195.0" type="curve" smooth="yes"/>
      <point x="273.64" y="130.0" type="line" smooth="yes"/>
      <point x="261.225" y="47.755"/>
      <point x="311.32" y="-5.0"/>
    </contour>
    <contour>
      <point x="409.83" y="72.775" type="curve" smooth="yes"/>
      <point x="372.265" y="72.775"/>
      <point x="355.85" y="90.265"/>
      <point x="362.265" y="130.0" type="curve" smooth="yes"/>
      <point x="372.265" y="195.0" type="line" smooth="yes"/>
      <point x="378.68" y="234.735"/>
      <point x="400.34" y="253.225"/>
      <point x="437.905" y="253.225" type="curve" smooth="yes"/>
      <point x="474.885" y="253.225"/>
      <point x="492.3" y="234.735"/>
      <point x="485.885" y="195.0" type="curve" smooth="yes"/>
      <point x="475.885" y="130.0" type="line" smooth="yes"/>
      <point x="469.47" y="90.265"/>
      <point x="447.395" y="72.775"/>
    </contour>
    <contour>
      <point x="176.925" y="400.0" type="curve" smooth="yes"/>
      <point x="260.925" y="400.0"/>
      <point x="331.36" y="451.0"/>
      <point x="344.36" y="535.0" type="curve" smooth="yes"/>
      <point x="354.36" y="600.0" type="line" smooth="yes"/>
      <point x="367.36" y="684.0"/>
      <point x="313.925" y="735.0"/>
      <point x="229.925" y="735.0" type="curve" smooth="yes"/>
      <point x="145.925" y="735.0"/>
      <point x="76.49" y="684.0"/>
      <point x="63.49" y="600.0" type="curve" smooth="yes"/>
      <point x="53.49" y="535.0" type="line" smooth="yes"/>
      <point x="40.49" y="451.0"/>
      <point x="92.925" y="400.0"/>
    </contour>
    <contour>
      <point x="189.095" y="476.775" type="curve" smooth="yes"/>
      <point x="151.945" y="476.775"/>
      <point x="135.7" y="495.265"/>
      <point x="142.115" y="535.0" type="curve" smooth="yes"/>
      <point x="152.115" y="600.0" type="line" smooth="yes"/>
      <point x="158.53" y="639.735"/>
      <point x="181.02" y="658.225"/>
      <point x="218.17" y="658.225" type="curve" smooth="yes"/>
      <point x="255.32" y="658.225"/>
      <point x="272.15" y="639.735"/>
      <point x="265.735" y="600.0" type="curve" smooth="yes"/>
      <point x="255.735" y="535.0" type="line" smooth="yes"/>
      <point x="249.32" y="495.265"/>
      <point x="226.245" y="476.775"/>
    </contour>
  </outline>
</glyph>
<glyph name="ampersand" format="2">
  <advance width="600.0"/>
  <unicode hex="0026"/>
  <outline>
    <contour>
      <point x="186.925" y="-10.0" type="curve" smooth="yes"/>
      <point x="252.51" y="-10.0"/>
      <point x="315.415" y="16.395"/>
      <point x="368.735" y="65.94" type="curve"/>
      <point x="405.45" y="0.0" type="line"/>
      <point x="530.19" y="0.0" type="line"/>
      <point x="443.455" y="157.49" type="line"/>
      <point x="582.02" y="360.0" type="line"/>
      <point x="461.11" y="360.0" type="line"/>
      <point x="390.0" y="255.23" type="line"/>
      <point x="281.90999999999997" y="450.11" type="line" smooth="yes"/>
      <point x="259.985" y="489.96"/>
      <point x="248.06" y="529.62"/>
      <point x="253.475" y="562.035" type="curve" smooth="yes"/>
      <point x="260.89" y="607.77"/>
      <point x="296.21" y="637.43"/>
      <point x="343.605" y="637.43" type="curve" smooth="yes"/>
      <point x="393.49" y="637.43"/>
      <point x="420.81" y="606.525"/>
      <point x="412.98" y="557.885" type="curve"/>
      <point x="529.305" y="557.885" type="line"/>
      <point x="546.89" y="668.15"/>
      <point x="479.795" y="740.0"/>
      <point x="359.7" y="740.0" type="curve" smooth="yes"/>
      <point x="244.68" y="740.0"/>
      <point x="157.415" y="671.735"/>
      <point x="141.245" y="571.64" type="curve" smooth="yes"/>
      <point x="132.66" y="517.79"/>
      <point x="146.585" y="464.77"/>
      <point x="179.17" y="407.015" type="curve" smooth="yes"/>
      <point x="196.285" y="433.87" type="line"/>
      <point x="112.415" y="420.305"/>
      <point x="55.47" y="359.945"/>
      <point x="41.545" y="271.225" type="curve" smooth="yes"/>
      <point x="27.225" y="178.4" type="line" smooth="yes"/>
      <point x="7.885000000000002" y="60.19"/>
      <point x="66.81" y="-10.0"/>
    </contour>
    <contour>
      <point x="213.7" y="93.4" type="curve" smooth="yes"/>
      <point x="163.72" y="93.4"/>
      <point x="137.475" y="123.815"/>
      <point x="146.475" y="178.4" type="curve" smooth="yes"/>
      <point x="160.795" y="271.225" type="line" smooth="yes"/>
      <point x="166.625" y="308.79"/>
      <point x="185.02" y="333.45"/>
      <point x="213.565" y="344.545" type="curve"/>
      <point x="320.375" y="152.66" type="line"/>
      <point x="290.565" y="115.455"/>
      <point x="251.68" y="93.4"/>
    </contour>
  </outline>
</glyph>
<glyph name="quotesingle" format="2">
  <advance width="600.0"/>
  <unicode hex="0027"/>
  <outline>
    <contour>
      <point x="271.47" y="430.0" type="line"/>
      <point x="372.965" y="430.0" type="line"/>
      <point x="407.965" y="574.15" type="line"/>
      <point x="433.135" y="730.0" type="line"/>
      <point x="306.3" y="730.0" type="line"/>
      <point x="281.13" y="574.15" type="line"/>
    </contour>
  </outline>
</glyph>
<glyph name="parenleft" format="2">
  <advance width="600.0"/>
  <unicode hex="0028"/>
  <outline>
    <contour>
      <point x="421.0" y="-125.0" type="curve"/>
      <point x="440.85" y="0.8549999999999969" type="line"/>
      <point x="326.795" y="29.099999999999994"/>
      <point x="269.06" y="129.89"/>
      <point x="290.55" y="264.415" type="curve" smooth="yes"/>
      <point x="320.55" y="455.0" type="line" smooth="yes"/>
      <point x="342.625" y="592.11"/>
      <point x="431.925" y="693.145"/>
      <point x="555.15" y="721.975" type="curve"/>
      <point x="575.0" y="845.0" type="line"/>
      <point x="368.96" y="793.15"/>
      <point x="225.865" y="647.075"/>
      <point x="195.45" y="455.0" type="curve" smooth="yes"/>
      <point x="165.45" y="264.415" type="line" smooth="yes"/>
      <point x="134.035" y="68.925"/>
      <point x="227.13" y="-72.15"/>
    </contour>
  </outline>
</glyph>
<glyph name="parenright" format="2">
  <advance width="600.0"/>
  <unicode hex="0029"/>
  <outline>
    <contour>
      <point x="51.0" y="-125.0" type="line"/>
      <point x="262.04" y="-72.15"/>
      <point x="399.135" y="68.925"/>
      <point x="430.55" y="264.415" type="curve" smooth="yes"/>
      <point x="460.55" y="455.0" type="line" smooth="yes"/>
      <point x="490.965" y="647.075"/>
      <point x="394.7" y="793.15"/>
      <point x="205.0" y="845.0" type="curve"/>
      <point x="185.15" y="721.975" type="line"/>
      <point x="300.375" y="693.145"/>
      <point x="357.525" y="592.11"/>
      <point x="335.45" y="455.0" type="curve" smooth="yes"/>
      <point x="305.45" y="264.415" type="line" smooth="yes"/>
      <point x="283.96" y="129.89"/>
      <point x="194.905" y="29.099999999999994"/>
      <point x="70.85" y="0.8549999999999969" type="curve"/>
    </contour>
  </outline>
</glyph>
<glyph name="asterisk" format="2">
  <advance width="600.0"/>
  <unicode hex="002A"/>
  <outline>
    <contour>
      <point x="161.19" y="86.98" type="line"/>
      <point x="211.395" y="145.675" type="line" smooth="yes"/>
      <point x="248.245" y="188.525"/>
      <point x="283.17" y="259.905"/>
      <point x="301.0" y="299.415" type="curve"/>
      <point x="307.415" y="299.415" type="line"/>
      <point x="312.83" y="259.905"/>
      <point x="324.66" y="188.11"/>
      <point x="347.585" y="145.675" type="curve" smooth="yes"/>
      <point x="380.055" y="86.98" type="line"/>
      <point x="482.285" y="151.02" type="line"/>
      <point x="450.4" y="210.3" type="line" smooth="yes"/>
      <point x="426.89" y="252.15"/>
      <point x="377.02" y="297.415"/>
      <point x="347.51" y="322.0" type="curve"/>
      <point x="351.34" y="327.66" type="line"/>
      <point x="393.85" y="328.905"/>
      <point x="464.72" y="333.565"/>
      <point x="514.74" y="350.905" type="curve" smooth="yes"/>
      <point x="585.925" y="375.3" type="line"/>
      <point x="563.66" y="481.115" type="line"/>
      <point x="492.475" y="456.72" type="line" smooth="yes"/>
      <point x="442.04" y="439.38"/>
      <point x="377.68" y="396.435"/>
      <point x="340.34" y="369.925" type="curve"/>
      <point x="336.34" y="373.34" type="line"/>
      <point x="356.265" y="412.68"/>
      <point x="390.625" y="485.38"/>
      <point x="398.795" y="538.4" type="curve" smooth="yes"/>
      <point x="410.285" y="610.0" type="line"/>
      <point x="297.715" y="610.0" type="line"/>
      <point x="286.225" y="538.4" type="line" smooth="yes"/>
      <point x="278.055" y="485.38"/>
      <point x="288.905" y="412.68"/>
      <point x="295.245" y="373.34" type="curve"/>
      <point x="289.83" y="369.34" type="line"/>
      <point x="261.075" y="395.85"/>
      <point x="209.64" y="439.38"/>
      <point x="164.375" y="456.72" type="curve" smooth="yes"/>
      <point x="101.265" y="481.115" type="line"/>
      <point x="46.565" y="375.3" type="line"/>
      <point x="109.09" y="350.905" type="line" smooth="yes"/>
      <point x="153.94" y="333.565"/>
      <point x="224.98" y="328.905"/>
      <point x="266.66" y="327.66" type="curve"/>
      <point x="268.075" y="322.415" type="line"/>
      <point x="230.98" y="297.83"/>
      <point x="165.94" y="252.565"/>
      <point x="129.26" y="209.715" type="curve" smooth="yes"/>
      <point x="79.64" y="151.02" type="line"/>
    </contour>
  </outline>
</glyph>
<glyph name="plus" format="2">
  <advance width="600.0"/>
  <unicode hex="002B"/>
  <outline>
    <contour>
      <point x="208.28" y="92.075" type="line"/>
      <point x="332.55" y="92.075" type="line"/>
      <point x="361.21" y="272.45" type="line"/>
      <point x="539.925" y="272.45" type="line"/>
      <point x="558.19" y="387.55" type="line"/>
      <point x="379.475" y="387.55" type="line"/>
      <point x="407.72" y="567.925" type="line"/>
      <point x="283.45" y="567.925" type="line"/>
      <point x="255.205" y="387.55" type="line"/>
      <point x="76.49" y="387.55" type="line"/>
      <point x="58.225" y="272.45" type="line"/>
      <point x="236.94" y="272.45" type="line"/>
    </contour>
  </outline>
</glyph>
<glyph name="comma" format="2">
  <advance width="600.0"/>
  <unicode hex="002C"/>
  <outline>
    <contour>
      <point x="80.545" y="-160.0" type="line"/>
      <point x="191.45499999999998" y="-160.0" type="line"/>
      <point x="370.455" y="151.0" type="line"/>
      <point x="209.54500000000002" y="151.0" type="line"/>
    </contour>
  </outline>
</glyph>
<glyph name="hyphen" format="2">
  <advance width="600.0"/>
  <unicode hex="002D"/>
  <outline>
    <contour>
      <point x="130.3" y="272.45" type="line"/>
      <point x="467.85" y="272.45" type="line"/>
      <point x="486.115" y="387.55" type="line"/>
      <point x="148.565" y="387.55" type="line"/>
    </contour>
  </outline>
</glyph>
<glyph name="period" format="2">
  <advance width="600.0"/>
  <unicode hex="002E"/>
  <outline>
    <contour>
      <point x="254.0" y="-10.0" type="curve" smooth="yes"/>
      <point x="311.435" y="-10.0"/>
      <point x="353.7" y="25.68"/>
      <point x="362.285" y="82.7" type="curve" smooth="yes"/>
      <point x="371.455" y="140.55"/>
      <point x="341.36" y="177.06"/>
      <point x="283.925" y="177.06" type="curve" smooth="yes"/>
      <point x="226.49" y="177.06"/>
      <point x="184.395" y="140.55"/>
      <point x="175.225" y="82.7" type="curve" smooth="yes"/>
      <point x="166.64" y="25.68"/>
      <point x="196.565" y="-10.0"/>
    </contour>
  </outline>
</glyph>
<glyph name="slash" format="2">
  <advance width="600.0"/>
  <unicode hex="002F"/>
  <outline>
    <contour>
      <point x="-0.625" y="-110.0" type="line"/>
      <point x="132.645" y="-110.0" type="line"/>
      <point x="626.625" y="830.0" type="line"/>
      <point x="493.355" y="830.0" type="line"/>
    </contour>
  </outline>
</glyph>
<glyph name="zero" format="2">
  <advance width="600.0"/>
  <unicode hex="0030"/>
  <outline>
    <contour>
      <point x="254.0" y="-10.0" type="curve" smooth="yes"/>
      <point x="395.605" y="-10.0"/>
      <point x="499.285" y="76.755"/>
      <point x="520.285" y="207.925" type="curve" smooth="yes"/>
      <point x="570.115" y="522.075" type="line" smooth="yes"/>
      <point x="591.115" y="653.66"/>
      <point x="515.02" y="740.0"/>
      <point x="373.0" y="740.0" type="curve" smooth="yes"/>
      <point x="230.98" y="740.0"/>
      <point x="127.715" y="653.66"/>
      <point x="106.715" y="522.075" type="curve" smooth="yes"/>
      <point x="56.885000000000005" y="207.925" type="line" smooth="yes"/>
      <point x="35.885000000000005" y="76.34"/>
      <point x="111.98" y="-10.0"/>
    </contour>
    <contour>
      <point x="271.68" y="98.005" type="curve" smooth="yes"/>
      <point x="202.21" y="98.005"/>
      <point x="164.23" y="141.55"/>
      <point x="174.89" y="207.925" type="curve" smooth="yes"/>
      <point x="224.72" y="522.075" type="line" smooth="yes"/>
      <point x="235.38" y="588.45"/>
      <point x="286.265" y="631.995"/>
      <point x="356.32" y="631.995" type="curve" smooth="yes"/>
      <point x="426.375" y="631.995"/>
      <point x="462.77" y="588.45"/>
      <point x="452.11" y="522.075" type="curve" smooth="yes"/>
      <point x="402.28" y="207.925" type="line" smooth="yes"/>
      <point x="391.62" y="141.55"/>
      <point x="341.15" y="98.005"/>
    </contour>
    <contour>
      <point x="312.83" y="300.15" type="curve" smooth="yes"/>
      <point x="352.34" y="300.15"/>
      <point x="378.68" y="327.49"/>
      <point x="378.68" y="368.0" type="curve" smooth="yes"/>
      <point x="378.68" y="407.51"/>
      <point x="352.34" y="433.85"/>
      <point x="312.83" y="433.85" type="curve" smooth="yes"/>
      <point x="273.32" y="433.85"/>
      <point x="246.98" y="407.51"/>
      <point x="246.98" y="368.0" type="curve" smooth="yes"/>
      <point x="246.98" y="327.49"/>
      <point x="273.32" y="300.15"/>
    </contour>
  </outline>
</glyph>
<glyph name="one" format="2">
  <advance width="600.0"/>
  <unicode hex="0031"/>
  <outline>
    <contour>
      <point x="40.15" y="0.0" type="line"/>
      <point x="507.7" y="0.0" type="line"/>
      <point x="525.38" y="110.08" type="line"/>
      <point x="372.74" y="110.08" type="line"/>
      <point x="471.06" y="730.0" type="line"/>
      <point x="323.49" y="730.0" type="line"/>
      <point x="135.565" y="608.755" type="line"/>
      <point x="114.3" y="476.58" type="line"/>
      <point x="328.11" y="618.73" type="line"/>
      <point x="247.64" y="110.08" type="line"/>
      <point x="57.83" y="110.08" type="line"/>
    </contour>
  </outline>
</glyph>
<glyph name="two" format="2">
  <advance width="600.0"/>
  <unicode hex="0032"/>
  <outline>
    <contour>
      <point x="35.13" y="0.0" type="line"/>
      <point x="491.36" y="0.0" type="line"/>
      <point x="509.04" y="113.005" type="line"/>
      <point x="207.535" y="113.005" type="line"/>
      <point x="407.21" y="286.83" type="line" smooth="yes"/>
      <point x="507.945" y="374.47"/>
      <point x="552.36" y="446.3"/>
      <point x="565.115" y="523.905" type="curve" smooth="yes"/>
      <point x="585.7" y="656.83"/>
      <point x="508.435" y="740.0"/>
      <point x="368.755" y="740.0" type="curve" smooth="yes"/>
      <point x="226.225" y="740.0"/>
      <point x="120.205" y="651.735"/>
      <point x="96.375" y="513.3" type="curve"/>
      <point x="221.475" y="513.3" type="line"/>
      <point x="232.72" y="584.6"/>
      <point x="282.19" y="627.825"/>
      <point x="349.735" y="627.825" type="curve" smooth="yes"/>
      <point x="415.695" y="627.825"/>
      <point x="449.09000000000003" y="586.185"/>
      <point x="438.26" y="516.13" type="curve" smooth="yes"/>
      <point x="431.015" y="468.32"/>
      <point x="399.62" y="422.68"/>
      <point x="340.85" y="369.90999999999997" type="curve" smooth="yes"/>
      <point x="53.225" y="114.155" type="line"/>
    </contour>
  </outline>
</glyph>
<glyph name="three" format="2">
  <advance width="600.0"/>
  <unicode hex="0033"/>
  <outline>
    <contour>
      <point x="247.095" y="-10.0" type="curve" smooth="yes"/>
      <point x="393.455" y="-10.0"/>
      <point x="495.55" y="69.83"/>
      <point x="515.55" y="200.0" type="curve" smooth="yes"/>
      <point x="524.135" y="255.265" type="line" smooth="yes"/>
      <point x="544.135" y="384.435"/>
      <point x="467.455" y="466.435"/>
      <point x="324.51" y="466.435" type="curve"/>
      <point x="316.415" y="413.11" type="line"/>
      <point x="556.7" y="627.28" type="line"/>
      <point x="573.625" y="730.0" type="line"/>
      <point x="164.395" y="730.0" type="line"/>
      <point x="147.3" y="622.845" type="line"/>
      <point x="419.43" y="622.845" type="line"/>
      <point x="237.075" y="459.17" type="line"/>
      <point x="220.565" y="358.94" type="line"/>
      <point x="306.0" y="358.94" type="line" smooth="yes"/>
      <point x="375.13" y="358.94"/>
      <point x="409.695" y="320.885"/>
      <point x="399.035" y="254.68" type="curve" smooth="yes"/>
      <point x="390.45" y="200.0" type="line" smooth="yes"/>
      <point x="379.79" y="135.45499999999998"/>
      <point x="334.32" y="96.325"/>
      <point x="264.605" y="96.325" type="curve" smooth="yes"/>
      <point x="195.89" y="96.325"/>
      <point x="161.91" y="134.795"/>
      <point x="172.57" y="200.0" type="curve"/>
      <point x="47.47" y="200.0" type="line"/>
      <point x="26.885" y="72.245"/>
      <point x="104.565" y="-10.0"/>
    </contour>
  </outline>
</glyph>
<glyph name="four" format="2">
  <advance width="600.0"/>
  <unicode hex="0034"/>
  <outline>
    <contour>
      <point x="338.45" y="0.0" type="line"/>
      <point x="463.55" y="0.0" type="line"/>
      <point x="530.55" y="420.0" type="line"/>
      <point x="405.45" y="420.0" type="line"/>
      <point x="378.79" y="254.87" type="line"/>
      <point x="173.89" y="254.87" type="line"/>
      <point x="179.305" y="290.53" type="line"/>
      <point x="538.59" y="730.0" type="line"/>
      <point x="400.98" y="730.0" type="line"/>
      <point x="65.81" y="325.57" type="line"/>
      <point x="36.96" y="144.79" type="line"/>
      <point x="361.11" y="144.79" type="line"/>
    </contour>
  </outline>
</glyph>
<glyph name="five" format="2">
  <advance width="600.0"/>
  <unicode hex="0035"/>
  <outline>
    <contour>
      <point x="252.585" y="-10.0" type="curve" smooth="yes"/>
      <point x="397.775" y="-10.0"/>
      <point x="497.04" y="71.0"/>
      <point x="517.625" y="202.925" type="curve" smooth="yes"/>
      <point x="529.21" y="273.925" type="line" smooth="yes"/>
      <point x="549.21" y="403.585"/>
      <point x="492.21" y="479.83"/>
      <point x="373.625" y="479.415" type="curve" smooth="yes"/>
      <point x="290.795" y="479.415"/>
      <point x="233.135" y="441.0"/>
      <point x="223.135" y="379.585" type="curve"/>
      <point x="257.475" y="405.0" type="line"/>
      <point x="227.72" y="405.0" type="line"/>
      <point x="263.87" y="616.995" type="line"/>
      <point x="556.775" y="616.995" type="line"/>
      <point x="575.04" y="730.0" type="line"/>
      <point x="163.54500000000002" y="730.0" type="line"/>
      <point x="94.545" y="328.34" type="line"/>
      <point x="216.72" y="328.34" type="line"/>
      <point x="237.21" y="358.715"/>
      <point x="272.68" y="377.015"/>
      <point x="315.32" y="377.015" type="curve" smooth="yes"/>
      <point x="384.865" y="377.015"/>
      <point x="414.185" y="339.96"/>
      <point x="404.11" y="273.925" type="curve" smooth="yes"/>
      <point x="392.525" y="202.925" type="line" smooth="yes"/>
      <point x="382.45" y="136.89"/>
      <point x="340.055" y="99.25"/>
      <point x="270.68" y="99.25" type="curve" smooth="yes"/>
      <point x="207.795" y="99.25"/>
      <point x="175.645" y="128.155"/>
      <point x="179.4" y="177.55" type="curve"/>
      <point x="54.3" y="177.55" type="line"/>
      <point x="43.695" y="62.435"/>
      <point x="118.375" y="-10.0"/>
    </contour>
  </outline>
</glyph>
<glyph name="six" format="2">
  <advance width="600.0"/>
  <unicode hex="0036"/>
  <outline>
    <contour>
      <point x="255.415" y="-10.0" type="curve" smooth="yes"/>
      <point x="403.435" y="-10.0"/>
      <point x="517.115" y="85.0"/>
      <point x="539.53" y="226.415" type="curve" smooth="yes"/>
      <point x="560.53" y="358.83"/>
      <point x="495.87" y="447.245"/>
      <point x="379.38" y="447.245" type="curve" smooth="yes"/>
      <point x="322.38" y="447.245"/>
      <point x="277.645" y="423.075"/>
      <point x="244.135" y="382.98" type="curve"/>
      <point x="239.38" y="386.565" type="line"/>
      <point x="495.06" y="730.0" type="line"/>
      <point x="358.035" y="730.0" type="line"/>
      <point x="147.905" y="443.965" type="line" smooth="yes"/>
      <point x="90.225" y="364.53"/>
      <point x="56.055" y="295.775"/>
      <point x="46.64" y="234.115" type="curve" smooth="yes"/>
      <point x="23.47" y="88.095"/>
      <point x="106.98" y="-10.0"/>
    </contour>
    <contour>
      <point x="272.095" y="96.325" type="curve" smooth="yes"/>
      <point x="197.965" y="96.325"/>
      <point x="155.57" y="148.38"/>
      <point x="167.645" y="224.415" type="curve" smooth="yes"/>
      <point x="179.72" y="301.035"/>
      <point x="238.775" y="353.675"/>
      <point x="312.905" y="353.675" type="curve" smooth="yes"/>
      <point x="387.035" y="353.675"/>
      <point x="428.43" y="301.035"/>
      <point x="416.355" y="224.415" type="curve" smooth="yes"/>
      <point x="404.28" y="148.38"/>
      <point x="346.225" y="96.325"/>
    </contour>
  </outline>
</glyph>
<glyph name="seven" format="2">
  <advance width="600.0"/>
  <unicode hex="0037"/>
  <outline>
    <contour>
      <point x="113.655" y="0.0" type="line"/>
      <point x="252.68" y="0.0" type="line"/>
      <point x="610.02" y="616.75" type="line"/>
      <point x="628.7" y="730.0" type="line"/>
      <point x="137.375" y="730.0" type="line"/>
      <point x="100.695" y="500.75" type="line"/>
      <point x="225.795" y="500.75" type="line"/>
      <point x="244.21" y="616.995" type="line"/>
      <point x="477.41" y="616.995" type="line"/>
    </contour>
  </outline>
</glyph>
<glyph name="eight" format="2">
  <advance width="600.0"/>
  <unicode hex="0038"/>
  <outline>
    <contour>
      <point x="254.585" y="-10.0" type="curve" smooth="yes"/>
      <point x="402.02" y="-10.0"/>
      <point x="512.7" y="68.415"/>
      <point x="531.87" y="188.265" type="curve" smooth="yes"/>
      <point x="545.285" y="274.34"/>
      <point x="499.89" y="344.64"/>
      <point x="404.72" y="386.905" type="curve" smooth="yes"/>
      <point x="300.435" y="433.435" type="line" smooth="yes"/>
      <point x="254.38" y="453.68"/>
      <point x="226.23" y="493.66"/>
      <point x="233.475" y="541.055" type="curve" smooth="yes"/>
      <point x="242.305" y="595.695"/>
      <point x="292.36" y="634.675"/>
      <point x="356.49" y="634.675" type="curve" smooth="yes"/>
      <point x="420.035" y="634.675"/>
      <point x="457.845" y="596.11"/>
      <point x="449.015" y="541.055" type="curve" smooth="yes"/>
      <point x="441.185" y="493.905"/>
      <point x="400.545" y="452.925"/>
      <point x="347.415" y="432.435" type="curve" smooth="yes"/>
      <point x="228.035" y="386.075" type="line" smooth="yes"/>
      <point x="126.96000000000001" y="347.32"/>
      <point x="54.47" y="277.435"/>
      <point x="40.47" y="188.265" type="curve" smooth="yes"/>
      <point x="21.885" y="70.17"/>
      <point x="107.15" y="-10.0"/>
    </contour>
    <contour>
      <point x="271.68" y="95.74" type="curve" smooth="yes"/>
      <point x="200.06" y="95.74"/>
      <point x="154.74" y="139.305"/>
      <point x="163.985" y="200.85" type="curve" smooth="yes"/>
      <point x="171.23" y="247.905"/>
      <point x="215.645" y="293.64"/>
      <point x="270.775" y="315.13" type="curve" smooth="yes"/>
      <point x="398.685" y="366.17" type="line" smooth="yes"/>
      <point x="496.625" y="404.49"/>
      <point x="558.945" y="466.885"/>
      <point x="572.115" y="548.15" type="curve" smooth="yes"/>
      <point x="589.53" y="657.735"/>
      <point x="510.7" y="740.415"/>
      <point x="373.585" y="740.415" type="curve" smooth="yes"/>
      <point x="235.885" y="740.415"/>
      <point x="130.13" y="657.735"/>
      <point x="112.715" y="548.15" type="curve" smooth="yes"/>
      <point x="100.13" y="468.225"/>
      <point x="142.375" y="405.075"/>
      <point x="229.41" y="366.585" type="curve" smooth="yes"/>
      <point x="340.47" y="315.545" type="line" smooth="yes"/>
      <point x="389.185" y="294.055"/>
      <point x="419.185" y="248.15"/>
      <point x="411.525" y="200.265" type="curve" smooth="yes"/>
      <point x="402.28" y="139.305"/>
      <point x="343.3" y="95.74"/>
    </contour>
  </outline>
</glyph>
<glyph name="nine" format="2">
  <advance width="600.0"/>
  <unicode hex="0039"/>
  <outline>
    <contour>
      <point x="129.43" y="0.0" type="line"/>
      <point x="277.89" y="0.0" type="line"/>
      <point x="482.265" y="286.62" type="line" smooth="yes"/>
      <point x="538.775" y="366.055"/>
      <point x="572.945" y="435.395"/>
      <point x="582.945" y="498.225" type="curve" smooth="yes"/>
      <point x="605.53" y="640.735"/>
      <point x="519.68" y="740.0"/>
      <point x="373.585" y="740.0" type="curve" smooth="yes"/>
      <point x="227.905" y="740.0"/>
      <point x="111.885" y="642.66"/>
      <point x="89.3" y="501.83" type="curve" smooth="yes"/>
      <point x="68.885" y="370.585"/>
      <point x="134.13" y="279.245"/>
      <point x="249.45" y="279.245" type="curve" smooth="yes"/>
      <point x="306.45" y="279.245"/>
      <point x="344.26" y="303.415"/>
      <point x="377.77" y="343.51" type="curve"/>
      <point x="382.525" y="339.925" type="line"/>
    </contour>
    <contour>
      <point x="316.095" y="372.815" type="curve" smooth="yes"/>
      <point x="242.55" y="372.815"/>
      <point x="199.985" y="426.04"/>
      <point x="212.645" y="503.83" type="curve" smooth="yes"/>
      <point x="224.72" y="580.45"/>
      <point x="283.775" y="633.675"/>
      <point x="357.32" y="633.675" type="curve" smooth="yes"/>
      <point x="430.865" y="633.675"/>
      <point x="473.43" y="580.45"/>
      <point x="461.355" y="503.83" type="curve" smooth="yes"/>
      <point x="448.695" y="426.04"/>
      <point x="389.64" y="372.815"/>
    </contour>
  </outline>
</glyph>
<glyph name="colon" format="2">
  <advance width="600.0"/>
  <unicode hex="003A"/>
  <outline>
    <contour>
      <point x="318.075" y="392.45" type="curve" smooth="yes"/>
      <point x="373.925" y="392.45"/>
      <point x="416.605" y="425.96"/>
      <point x="424.19" y="476.225" type="curve" smooth="yes"/>
      <point x="432.36" y="526.49"/>
      <point x="400.85" y="560.0"/>
      <point x="345.0" y="560.0" type="curve" smooth="yes"/>
      <point x="289.15" y="560.0"/>
      <point x="246.47" y="526.49"/>
      <point x="238.3" y="476.225" type="curve" smooth="yes"/>
      <point x="230.715" y="425.96"/>
      <point x="262.225" y="392.45"/>
    </contour>
    <contour>
      <point x="254.0" y="-10.0" type="curve" smooth="yes"/>
      <point x="309.85" y="-10.0"/>
      <point x="352.53" y="23.509999999999998"/>
      <point x="360.7" y="73.775" type="curve" smooth="yes"/>
      <point x="368.285" y="124.03999999999999"/>
      <point x="336.775" y="157.55"/>
      <point x="280.925" y="157.55" type="curve" smooth="yes"/>
      <point x="225.075" y="157.55"/>
      <point x="182.395" y="124.03999999999999"/>
      <point x="174.81" y="73.775" type="curve" smooth="yes"/>
      <point x="166.64" y="23.509999999999998"/>
      <point x="198.15" y="-10.0"/>
    </contour>
  </outline>
</glyph>
<glyph name="semicolon" format="2">
  <advance width="600.0"/>
  <unicode hex="003B"/>
  <outline>
    <contour>
      <point x="86.375" y="-160.0" type="line"/>
      <point x="195.625" y="-160.0" type="line"/>
      <point x="374.625" y="151.0" type="line"/>
      <point x="215.375" y="151.0" type="line"/>
    </contour>
    <contour>
      <point x="308.075" y="392.45" type="curve" smooth="yes"/>
      <point x="328.075" y="392.45" type="line" smooth="yes"/>
      <point x="376.755" y="392.45"/>
      <point x="417.435" y="427.545"/>
      <point x="425.02" y="476.225" type="curve" smooth="yes"/>
      <point x="433.19" y="524.49"/>
      <point x="403.265" y="560.0"/>
      <point x="355.0" y="560.0" type="curve" smooth="yes"/>
      <point x="335.0" y="560.0" type="line" smooth="yes"/>
      <point x="286.735" y="560.0"/>
      <point x="245.64" y="524.49"/>
      <point x="237.47" y="476.225" type="curve" smooth="yes"/>
      <point x="229.885" y="427.545"/>
      <point x="259.395" y="392.45"/>
    </contour>
  </outline>
</glyph>
<glyph name="less" format="2">
  <advance width="600.0"/>
  <unicode hex="003C"/>
  <outline>
    <contour>
      <point x="488.605" y="55.64" type="line"/>
      <point x="507.115" y="168.305" type="line"/>
      <point x="238.665" y="302.585" type="line" smooth="yes"/>
      <point x="215.325" y="314.585"/>
      <point x="186.645" y="322.415"/>
      <point x="172.135" y="325.415" type="curve"/>
      <point x="187.23" y="328.415"/>
      <point x="217.495" y="336.83"/>
      <point x="245.665" y="348.83" type="curve" smooth="yes"/>
      <point x="556.85" y="482.695" type="line"/>
      <point x="574.945" y="603.19" type="line"/>
      <point x="93.98" y="391.7" type="line"/>
      <point x="74.47" y="266.545" type="line"/>
    </contour>
  </outline>
</glyph>
<glyph name="equal" format="2">
  <advance width="600.0"/>
  <unicode hex="003D"/>
  <outline>
    <contour>
      <point x="100.735" y="395.375" type="line"/>
      <point x="536.585" y="395.375" type="line"/>
      <point x="554.85" y="510.475" type="line"/>
      <point x="119.0" y="510.475" type="line"/>
    </contour>
    <contour>
      <point x="61.565" y="149.525" type="line"/>
      <point x="497.415" y="149.525" type="line"/>
      <point x="516.265" y="264.625" type="line"/>
      <point x="80.415" y="264.625" type="line"/>
    </contour>
  </outline>
</glyph>
<glyph name="greater" format="2">
  <advance width="600.0"/>
  <unicode hex="003E"/>
  <outline>
    <contour>
      <point x="41.055" y="55.64" type="line"/>
      <point x="522.02" y="267.13" type="line"/>
      <point x="542.115" y="392.285" type="line"/>
      <point x="127.395" y="603.19" type="line"/>
      <point x="109.3" y="489.695" type="line"/>
      <point x="378.335" y="355.415" type="line" smooth="yes"/>
      <point x="401.675" y="343.415"/>
      <point x="429.94" y="335.585"/>
      <point x="444.28" y="332.585" type="curve"/>
      <point x="429.355" y="329.585"/>
      <point x="398.505" y="321.17"/>
      <point x="370.335" y="309.17" type="curve" smooth="yes"/>
      <point x="59.15" y="175.305" type="line"/>
    </contour>
  </outline>
</glyph>
<glyph name="question" format="2">
  <advance width="600.0"/>
  <unicode hex="003F"/>
  <outline>
    <contour>
      <point x="183.79" y="216.7" type="line"/>
      <point x="294.265" y="216.7" type="line"/>
      <point x="308.34" y="307.075" type="line"/>
      <point x="428.945" y="309.565"/>
      <point x="523.04" y="393.565"/>
      <point x="542.625" y="515.0" type="curve" smooth="yes"/>
      <point x="562.625" y="646.0"/>
      <point x="482.53" y="730.0"/>
      <point x="334.925" y="730.0" type="curve" smooth="yes"/>
      <point x="192.375" y="730.0" type="line"/>
      <point x="173.11" y="612.825" type="line"/>
      <point x="321.51" y="612.825" type="line" smooth="yes"/>
      <point x="389.375" y="612.825"/>
      <point x="426.6" y="574.695"/>
      <point x="417.525" y="515.0" type="curve" smooth="yes"/>
      <point x="407.45" y="455.89"/>
      <point x="358.905" y="417.175"/>
      <point x="292.04" y="417.175" type="curve" smooth="yes"/>
      <point x="212.79" y="417.175" type="line"/>
    </contour>
    <contour>
      <point x="188.565" y="-5.0" type="curve" smooth="yes"/>
      <point x="217.98" y="-5.0" type="line" smooth="yes"/>
      <point x="259.415" y="-5.0"/>
      <point x="291.34" y="21.585"/>
      <point x="297.925" y="61.265" type="curve" smooth="yes"/>
      <point x="304.095" y="99.945"/>
      <point x="281.415" y="126.7"/>
      <point x="239.32" y="126.7" type="curve" smooth="yes"/>
      <point x="209.32" y="126.7" type="line" smooth="yes"/>
      <point x="168.47" y="126.7"/>
      <point x="136.54500000000002" y="99.945"/>
      <point x="130.375" y="60.85" type="curve" smooth="yes"/>
      <point x="124.375" y="21.755"/>
      <point x="147.715" y="-5.0"/>
    </contour>
  </outline>
</glyph>
<glyph name="at" format="2">
  <advance width="600.0"/>
  <unicode hex="0040"/>
  <outline>
    <contour>
      <point x="252.585" y="-179.415" type="curve" smooth="yes"/>
      <point x="322.585" y="-179.415" type="line"/>
      <point x="337.51" y="-83.94" type="line"/>
      <point x="267.51" y="-83.94" type="line" smooth="yes"/>
      <point x="148.19" y="-83.94"/>
      <point x="90.455" y="-12.47"/>
      <point x="110.285" y="110.585" type="curve" smooth="yes"/>
      <point x="163.7" y="450.0" type="line" smooth="yes"/>
      <point x="183.945" y="577.3"/>
      <point x="261.095" y="649.525"/>
      <point x="369.98" y="649.525" type="curve" smooth="yes"/>
      <point x="472.3" y="649.525"/>
      <point x="518.545" y="595.13"/>
      <point x="502.885" y="497.925" type="curve" smooth="yes"/>
      <point x="501.715" y="488.245" type="line"/>
      <point x="491.715" y="410.0" type="line"/>
      <point x="474.715" y="410.0" type="line"/>
      <point x="487.3" y="399.585" type="line"/>
      <point x="495.885" y="454.51"/>
      <point x="458.715" y="490.85"/>
      <point x="393.545" y="490.85" type="curve" smooth="yes"/>
      <point x="309.47" y="490.85"/>
      <point x="255.81" y="432.755"/>
      <point x="239.225" y="330.0" type="curve" smooth="yes"/>
      <point x="221.395" y="215.85" type="line" smooth="yes"/>
      <point x="204.81" y="113.095"/>
      <point x="240.885" y="55.0"/>
      <point x="324.96" y="55.0" type="curve" smooth="yes"/>
      <point x="389.545" y="55.0"/>
      <point x="438.885" y="91.925"/>
      <point x="447.47" y="146.435" type="curve"/>
      <point x="430.395" y="135.85" type="line"/>
      <point x="448.47" y="135.85" type="line"/>
      <point x="436.885" y="65.0" type="line"/>
      <point x="537.7" y="65.0" type="line"/>
      <point x="606.285" y="497.925" type="line" smooth="yes"/>
      <point x="629.115" y="641.735"/>
      <point x="548.19" y="740.0"/>
      <point x="388.0" y="740.0" type="curve" smooth="yes"/>
      <point x="212.98" y="740.0"/>
      <point x="89.3" y="630.0"/>
      <point x="60.3" y="450.0" type="curve" smooth="yes"/>
      <point x="6.885000000000002" y="110.585" type="line" smooth="yes"/>
      <point x="-21.7" y="-68.17"/>
      <point x="72.81" y="-179.415"/>
    </contour>
    <contour>
      <point x="376.755" y="130.87" type="curve" smooth="yes"/>
      <point x="331.53" y="130.87"/>
      <point x="312.455" y="155.775"/>
      <point x="321.87" y="215.85" type="curve" smooth="yes"/>
      <point x="339.7" y="330.0" type="line" smooth="yes"/>
      <point x="348.53" y="385.98"/>
      <point x="376.605" y="414.98"/>
      <point x="421.83" y="414.98" type="curve" smooth="yes"/>
      <point x="466.885" y="414.98"/>
      <point x="485.13" y="386.395"/>
      <point x="476.3" y="330.415" type="curve" smooth="yes"/>
      <point x="459.3" y="220.0" type="line" smooth="yes"/>
      <point x="448.885" y="156.85"/>
      <point x="424.15" y="130.87"/>
    </contour>
  </outline>
</glyph>
<glyph name="A" format="2">
  <advance width="600.0"/>
  <unicode hex="0041"/>
  <anchor x="256.0" y="0.0" name="bottom"/>
  <anchor x="440.375" y="0.0" name="ogonek"/>
  <anchor x="372.0" y="730.0" name="top"/>
  <outline>
    <contour>
      <point x="-8.625" y="0.0" type="line"/>
      <point x="122.645" y="0.0" type="line"/>
      <point x="191.115" y="177.035" type="line"/>
      <point x="384.62" y="177.035" type="line"/>
      <point x="396.94" y="0.0" type="line"/>
      <point x="520.625" y="0.0" type="line"/>
      <point x="452.305" y="730.0" type="line"/>
      <point x="290.94" y="730.0" type="line"/>
    </contour>
    <contour>
      <point x="229.305" y="278.775" type="line"/>
      <point x="305.51" y="476.11" type="line" smooth="yes"/>
      <point x="330.15" y="540.22"/>
      <point x="348.81" y="597.295"/>
      <point x="356.565" y="621.145" type="curve"/>
      <point x="357.15" y="597.295"/>
      <point x="360.32" y="540.22"/>
      <point x="364.81" y="475.11" type="curve" smooth="yes"/>
      <point x="377.62" y="278.775" type="line"/>
    </contour>
  </outline>
</glyph>
<glyph name="B" format="2">
  <advance width="600.0"/>
  <unicode hex="0042"/>
  <anchor x="256.0" y="0.0" name="bottom"/>
  <anchor x="372.0" y="730.0" name="top"/>
  <outline>
    <contour>
      <point x="33.205" y="0.0" type="line"/>
      <point x="268.075" y="0.0" type="line" smooth="yes"/>
      <point x="412.775" y="0.0"/>
      <point x="516.135" y="80.925"/>
      <point x="536.135" y="207.68" type="curve" smooth="yes"/>
      <point x="554.55" y="321.755"/>
      <point x="485.115" y="386.81"/>
      <point x="380.23" y="385.395" type="curve"/>
      <point x="379.985" y="380.925" type="line"/>
      <point x="475.87" y="380.095"/>
      <point x="557.72" y="443.51"/>
      <point x="573.135" y="542.17" type="curve" smooth="yes"/>
      <point x="591.135" y="657.83"/>
      <point x="514.36" y="730.0"/>
      <point x="372.585" y="730.0" type="curve" smooth="yes"/>
      <point x="149.205" y="730.0" type="line"/>
    </contour>
    <contour>
      <point x="171.06" y="104.4" type="line"/>
      <point x="206.21" y="327.545" type="line"/>
      <point x="312.075" y="327.545" type="line" smooth="yes"/>
      <point x="384.96" y="327.545"/>
      <point x="422.695" y="282.49"/>
      <point x="412.45" y="213.605" type="curve" smooth="yes"/>
      <point x="401.205" y="145.965"/>
      <point x="349.81" y="104.4"/>
      <point x="276.925" y="104.4" type="curve" smooth="yes"/>
    </contour>
    <contour>
      <point x="222.305" y="428.945" type="line"/>
      <point x="253.45499999999998" y="625.6" type="line"/>
      <point x="354.32" y="625.6" type="line" smooth="yes"/>
      <point x="420.205" y="625.6"/>
      <point x="454.94" y="588.62"/>
      <point x="445.695" y="527.565" type="curve" smooth="yes"/>
      <point x="435.45" y="466.51"/>
      <point x="388.64" y="428.945"/>
      <point x="322.755" y="428.945" type="curve" smooth="yes"/>
    </contour>
  </outline>
</glyph>
<glyph name="C" format="2">
  <advance width="600.0"/>
  <unicode hex="0043"/>
  <anchor x="261.0" y="0.0" name="bottom"/>
  <anchor x="377.0" y="730.0" name="top"/>
  <outline>
    <contour>
      <point x="258.0" y="-10.0" type="curve" smooth="yes"/>
      <point x="398.36" y="-10.0"/>
      <point x="503.135" y="74.51"/>
      <point x="524.135" y="205.85" type="curve"/>
      <point x="399.035" y="205.85" type="line"/>
      <point x="388.375" y="137.475"/>
      <point x="343.15" y="99.66499999999999"/>
      <point x="275.68" y="99.66499999999999" type="curve" smooth="yes"/>
      <point x="207.795" y="99.66499999999999"/>
      <point x="174.645" y="137.475"/>
      <point x="185.305" y="205.85" type="curve" smooth="yes"/>
      <point x="235.55" y="524.565" type="line" smooth="yes"/>
      <point x="246.795" y="592.525"/>
      <point x="292.02" y="630.335"/>
      <point x="359.905" y="630.335" type="curve" smooth="yes"/>
      <point x="427.375" y="630.335"/>
      <point x="460.525" y="592.525"/>
      <point x="449.28" y="524.15" type="curve"/>
      <point x="574.38" y="524.15" type="line"/>
      <point x="594.965" y="655.49"/>
      <point x="517.36" y="740.0"/>
      <point x="377.0" y="740.0" type="curve" smooth="yes"/>
      <point x="235.81" y="740.0"/>
      <point x="131.45" y="656.32"/>
      <point x="110.45" y="524.15" type="curve" smooth="yes"/>
      <point x="60.205" y="205.85" type="line" smooth="yes"/>
      <point x="39.205" y="74.265"/>
      <point x="116.81" y="-10.0"/>
    </contour>
  </outline>
</glyph>
<glyph name="D" format="2">
  <advance width="600.0"/>
  <unicode hex="0044"/>
  <anchor x="256.0" y="0.0" name="bottom"/>
  <anchor x="314.0" y="365.0" name="center"/>
  <anchor x="372.0" y="730.0" name="top"/>
  <outline>
    <contour>
      <point x="31.035" y="0.0" type="line"/>
      <point x="248.115" y="0.0" type="line" smooth="yes"/>
      <point x="394.965" y="0.0"/>
      <point x="505.985" y="90.68"/>
      <point x="527.57" y="228.775" type="curve" smooth="yes"/>
      <point x="571.23" y="502.225" type="line" smooth="yes"/>
      <point x="592.815" y="639.905"/>
      <point x="510.965" y="730.0"/>
      <point x="364.115" y="730.0" type="curve" smooth="yes"/>
      <point x="147.035" y="730.0" type="line"/>
    </contour>
    <contour>
      <point x="174.4" y="115.1" type="line"/>
      <point x="253.285" y="614.9" type="line"/>
      <point x="345.265" y="614.9" type="line" smooth="yes"/>
      <point x="417.47" y="614.9"/>
      <point x="456.62" y="571.09"/>
      <point x="446.13" y="502.225" type="curve" smooth="yes"/>
      <point x="402.47" y="228.775" type="line" smooth="yes"/>
      <point x="391.395" y="158.91"/>
      <point x="338.585" y="115.1"/>
      <point x="266.38" y="115.1" type="curve" smooth="yes"/>
    </contour>
  </outline>
</glyph>
<glyph name="E" format="2">
  <advance width="600.0"/>
  <unicode hex="0045"/>
  <anchor x="320.0" y="0.0" name="bottom"/>
  <anchor x="384.15" y="0.0" name="ogonek"/>
  <anchor x="392.0" y="730.0" name="top"/>
  <anchor x="92.0" y="730.0" name="topleft"/>
  <outline>
    <contour>
      <point x="44.3" y="0.0" type="line"/>
      <point x="481.85" y="0.0" type="line"/>
      <point x="498.945" y="108.91" type="line"/>
      <point x="184.325" y="108.91" type="line"/>
      <point x="218.305" y="322.865" type="line"/>
      <point x="497.925" y="322.865" type="line"/>
      <point x="515.02" y="431.36" type="line"/>
      <point x="235.4" y="431.36" type="line"/>
      <point x="265.55" y="621.09" type="line"/>
      <point x="580.17" y="621.09" type="line"/>
      <point x="597.85" y="730.0" type="line"/>
      <point x="160.3" y="730.0" type="line"/>
    </contour>
  </outline>
</glyph>
<glyph name="F" format="2">
  <advance width="600.0"/>
  <unicode hex="0046"/>
  <anchor x="256.0" y="0.0" name="bottom"/>
  <anchor x="372.0" y="730.0" name="top"/>
  <outline>
    <contour>
      <point x="36.375" y="0.0" type="line"/>
      <point x="161.475" y="0.0" type="line"/>
      <point x="209.55" y="302.94" type="line"/>
      <point x="511.85" y="302.94" type="line"/>
      <point x="530.115" y="418.87" type="line"/>
      <point x="225.815" y="418.87" type="line"/>
      <point x="256.625" y="614.07" type="line"/>
      <point x="586.925" y="614.07" type="line"/>
      <point x="605.775" y="730.0" type="line"/>
      <point x="152.375" y="730.0" type="line"/>
    </contour>
  </outline>
</glyph>
<glyph name="G" format="2">
  <advance width="600.0"/>
  <unicode hex="0047"/>
  <anchor x="260.0" y="0.0" name="bottom"/>
  <anchor x="372.0" y="730.0" name="top"/>
  <outline>
    <contour>
      <point x="258.0" y="-10.0" type="curve" smooth="yes"/>
      <point x="398.36" y="-10.0"/>
      <point x="503.55" y="74.51"/>
      <point x="524.135" y="205.85" type="curve" smooth="yes"/>
      <point x="552.89" y="388.38" type="line"/>
      <point x="303.19" y="388.38" type="line"/>
      <point x="286.095" y="280.055" type="line"/>
      <point x="410.695" y="280.055" type="line"/>
      <point x="399.035" y="205.85" type="line" smooth="yes"/>
      <point x="388.375" y="137.475"/>
      <point x="343.15" y="99.25"/>
      <point x="275.68" y="99.25" type="curve" smooth="yes"/>
      <point x="207.795" y="99.25"/>
      <point x="174.645" y="137.475"/>
      <point x="185.305" y="205.85" type="curve" smooth="yes"/>
      <point x="235.55" y="524.565" type="line" smooth="yes"/>
      <point x="246.795" y="592.525"/>
      <point x="292.02" y="630.335"/>
      <point x="359.905" y="630.335" type="curve" smooth="yes"/>
      <point x="427.375" y="630.335"/>
      <point x="460.525" y="592.525"/>
      <point x="449.28" y="524.15" type="curve"/>
      <point x="574.38" y="524.15" type="line"/>
      <point x="594.965" y="655.49"/>
      <point x="517.36" y="740.0"/>
      <point x="377.0" y="740.0" type="curve" smooth="yes"/>
      <point x="235.81" y="740.0"/>
      <point x="131.45" y="656.32"/>
      <point x="110.45" y="524.15" type="curve" smooth="yes"/>
      <point x="60.205" y="205.85" type="line" smooth="yes"/>
      <point x="39.205" y="74.265"/>
      <point x="116.81" y="-10.0"/>
    </contour>
  </outline>
</glyph>
<glyph name="H" format="2">
  <advance width="600.0"/>
  <unicode hex="0048"/>
  <anchor x="256.0" y="0.0" name="bottom"/>
  <anchor x="314.0" y="365.0" name="center"/>
  <anchor x="372.0" y="730.0" name="top"/>
  <anchor x="92.0" y="730.0" name="topleft"/>
  <outline>
    <contour>
      <point x="33.205" y="0.0" type="line"/>
      <point x="158.305" y="0.0" type="line"/>
      <point x="208.965" y="320.79" type="line"/>
      <point x="404.355" y="320.79" type="line"/>
      <point x="353.695" y="0.0" type="line"/>
      <point x="478.795" y="0.0" type="line"/>
      <point x="594.795" y="730.0" type="line"/>
      <point x="469.695" y="730.0" type="line"/>
      <point x="422.62" y="436.72" type="line"/>
      <point x="227.23" y="436.72" type="line"/>
      <point x="274.305" y="730.0" type="line"/>
      <point x="149.205" y="730.0" type="line"/>
    </contour>
  </outline>
</glyph>
<glyph name="I" format="2">
  <advance width="600.0"/>
  <unicode hex="0049"/>
  <anchor x="256.0" y="0.0" name="bottom"/>
  <anchor x="280.0" y="0.0" name="ogonek"/>
  <anchor x="372.0" y="730.0" name="top"/>
  <anchor x="92.0" y="730.0" name="topleft"/>
  <outline>
    <contour>
      <point x="46.375" y="0.0" type="line"/>
      <point x="465.625" y="0.0" type="line"/>
      <point x="483.305" y="110.08" type="line"/>
      <point x="336.645" y="110.08" type="line"/>
      <point x="417.285" y="619.92" type="line"/>
      <point x="563.945" y="619.92" type="line"/>
      <point x="581.625" y="730.0" type="line"/>
      <point x="162.375" y="730.0" type="line"/>
      <point x="144.695" y="619.92" type="line"/>
      <point x="291.355" y="619.92" type="line"/>
      <point x="210.715" y="110.08" type="line"/>
      <point x="64.055" y="110.08" type="line"/>
    </contour>
  </outline>
</glyph>
<glyph name="J" format="2">
  <advance width="600.0"/>
  <unicode hex="004A"/>
  <anchor x="256.0" y="0.0" name="bottom"/>
  <anchor x="474.12" y="730.0" name="top"/>
  <outline>
    <contour>
      <point x="224.0" y="-10.0" type="curve" smooth="yes"/>
      <point x="376.775" y="-10.0"/>
      <point x="476.625" y="71.755"/>
      <point x="499.795" y="215.265" type="curve" smooth="yes"/>
      <point x="581.625" y="730.0" type="line"/>
      <point x="251.525" y="730.0" type="line"/>
      <point x="233.26" y="616.995" type="line"/>
      <point x="438.26" y="616.995" type="line"/>
      <point x="374.695" y="215.265" type="line" smooth="yes"/>
      <point x="363.035" y="142.645"/>
      <point x="312.64" y="99.25"/>
      <point x="241.68" y="99.25" type="curve" smooth="yes"/>
      <point x="170.135" y="99.25"/>
      <point x="133.985" y="143.23"/>
      <point x="145.645" y="216.435" type="curve"/>
      <point x="20.545" y="216.435" type="line"/>
      <point x="-1.0399999999999991" y="76.925"/>
      <point x="75.81" y="-10.0"/>
    </contour>
  </outline>
</glyph>
<glyph name="K" format="2">
  <advance width="600.0"/>
  <unicode hex="004B"/>
  <anchor x="256.0" y="0.0" name="bottom"/>
  <anchor x="372.0" y="730.0" name="top"/>
  <outline>
    <contour>
      <point x="32.205" y="0.0" type="line"/>
      <point x="157.305" y="0.0" type="line"/>
      <point x="208.38" y="321.035" type="line"/>
      <point x="297.66" y="321.035" type="line"/>
      <point x="390.26" y="0.0" type="line"/>
      <point x="524.775" y="0.0" type="line"/>
      <point x="410.74" y="373.66" type="line"/>
      <point x="633.115" y="730.0" type="line"/>
      <point x="496.26" y="730.0" type="line"/>
      <point x="310.0" y="434.55" type="line"/>
      <point x="226.23" y="434.55" type="line"/>
      <point x="273.305" y="730.0" type="line"/>
      <point x="148.205" y="730.0" type="line"/>
    </contour>
  </outline>
</glyph>
<glyph name="L" format="2">
  <advance width="600.0"/>
  <unicode hex="004C"/>
  <anchor x="296.0" y="0.0" name="bottom"/>
  <anchor x="314.0" y="365.0" name="center"/>
  <anchor x="258.265" y="730.0" name="top"/>
  <anchor x="652.0" y="730.0" name="topright"/>
  <outline>
    <contour>
      <point x="79.3" y="0.0" type="line"/>
      <point x="513.925" y="0.0" type="line"/>
      <point x="532.19" y="115.93" type="line"/>
      <point x="222.665" y="115.93" type="line"/>
      <point x="320.4" y="730.0" type="line"/>
      <point x="195.3" y="730.0" type="line"/>
    </contour>
  </outline>
</glyph>
<glyph name="M" format="2">
  <advance width="600.0"/>
  <unicode hex="004D"/>
  <anchor x="256.0" y="0.0" name="bottom"/>
  <anchor x="372.0" y="730.0" name="top"/>
  <outline>
    <contour>
      <point x="12.11" y="0.0" type="line"/>
      <point x="128.775" y="0.0" type="line"/>
      <point x="164.925" y="226.975" type="line" smooth="yes"/>
      <point x="187.68" y="370.845"/>
      <point x="200.265" y="558.015"/>
      <point x="203.095" y="658.675" type="curve"/>
      <point x="249.885" y="314.15" type="line"/>
      <point x="363.605" y="314.15" type="line"/>
      <point x="515.79" y="658.675" type="line"/>
      <point x="487.375" y="554.015"/>
      <point x="441.13" y="363.845"/>
      <point x="419.375" y="226.975" type="curve" smooth="yes"/>
      <point x="383.225" y="0.0" type="line"/>
      <point x="499.89" y="0.0" type="line"/>
      <point x="615.89" y="730.0" type="line"/>
      <point x="465.47" y="730.0" type="line"/>
      <point x="359.565" y="497.925" type="line" smooth="yes"/>
      <point x="338.98" y="451.585"/>
      <point x="323.49" y="410.265"/>
      <point x="317.415" y="391.945" type="curve"/>
      <point x="316.755" y="410.265"/>
      <point x="313.68" y="451.585"/>
      <point x="306.68" y="497.51" type="curve" smooth="yes"/>
      <point x="273.36" y="730.0" type="line"/>
      <point x="128.11" y="730.0" type="line"/>
    </contour>
  </outline>
</glyph>
<glyph name="N" format="2">
  <advance width="600.0"/>
  <unicode hex="004E"/>
  <anchor x="256.0" y="0.0" name="bottom"/>
  <anchor x="372.0" y="730.0" name="top"/>
  <outline>
    <contour>
      <point x="28.450000000000003" y="0.0" type="line"/>
      <point x="141.775" y="0.0" type="line"/>
      <point x="198.585" y="357.35" type="line" smooth="yes"/>
      <point x="210.0" y="428.01"/>
      <point x="219.0" y="532.125"/>
      <point x="223.0" y="589.9" type="curve"/>
      <point x="332.96" y="0.0" type="line"/>
      <point x="483.55" y="0.0" type="line"/>
      <point x="599.55" y="730.0" type="line"/>
      <point x="486.225" y="730.0" type="line"/>
      <point x="431.17" y="384.35" type="line" smooth="yes"/>
      <point x="419.755" y="313.69"/>
      <point x="410.17" y="203.14"/>
      <point x="406.0" y="140.1" type="curve"/>
      <point x="295.04" y="730.0" type="line"/>
      <point x="144.45" y="730.0" type="line"/>
    </contour>
  </outline>
</glyph>
<glyph name="O" format="2">
  <advance width="600.0"/>
  <unicode hex="004F"/>
  <anchor x="256.0" y="0.0" name="bottom"/>
  <anchor x="314.0" y="365.0" name="center"/>
  <anchor x="387.0" y="700.0" name="horn"/>
  <anchor x="305.0" y="0.0" name="ogonek"/>
  <anchor x="372.0" y="730.0" name="top"/>
  <anchor x="92.0" y="730.0" name="topleft"/>
  <anchor x="652.0" y="730.0" name="topright"/>
  <outline>
    <contour>
      <point x="254.0" y="-10.0" type="curve" smooth="yes"/>
      <point x="394.36" y="-10.0"/>
      <point x="495.965" y="74.265"/>
      <point x="516.965" y="205.85" type="curve" smooth="yes"/>
      <point x="567.21" y="524.565" type="line" smooth="yes"/>
      <point x="587.795" y="655.735"/>
      <point x="513.36" y="740.0"/>
      <point x="373.0" y="740.0" type="curve" smooth="yes"/>
      <point x="232.64" y="740.0"/>
      <point x="131.45" y="655.735"/>
      <point x="110.45" y="524.15" type="curve" smooth="yes"/>
      <point x="60.205" y="205.85" type="line" smooth="yes"/>
      <point x="39.205" y="74.265"/>
      <point x="113.64" y="-10.0"/>
    </contour>
    <contour>
      <point x="271.68" y="99.66499999999999" type="curve" smooth="yes"/>
      <point x="204.21" y="99.66499999999999"/>
      <point x="174.645" y="137.475"/>
      <point x="185.305" y="205.85" type="curve" smooth="yes"/>
      <point x="235.55" y="524.15" type="line" smooth="yes"/>
      <point x="246.21" y="592.525"/>
      <point x="287.85" y="630.335"/>
      <point x="355.905" y="630.335" type="curve" smooth="yes"/>
      <point x="423.96" y="630.335"/>
      <point x="452.77" y="592.525"/>
      <point x="442.11" y="524.15" type="curve" smooth="yes"/>
      <point x="391.865" y="205.85" type="line" smooth="yes"/>
      <point x="381.205" y="137.475"/>
      <point x="339.15" y="99.66499999999999"/>
    </contour>
  </outline>
</glyph>
<glyph name="P" format="2">
  <advance width="600.0"/>
  <unicode hex="0050"/>
  <anchor x="256.0" y="0.0" name="bottom"/>
  <anchor x="372.0" y="730.0" name="top"/>
  <outline>
    <contour>
      <point x="32.79" y="0.0" type="line"/>
      <point x="157.89" y="0.0" type="line"/>
      <point x="202.38" y="280.11" type="line"/>
      <point x="320.47" y="280.11" type="line" smooth="yes"/>
      <point x="466.415" y="280.11"/>
      <point x="576.36" y="369.375"/>
      <point x="597.945" y="505.055" type="curve" smooth="yes"/>
      <point x="619.115" y="641.32"/>
      <point x="538.51" y="730.0"/>
      <point x="391.98" y="730.0" type="curve" smooth="yes"/>
      <point x="148.79" y="730.0" type="line"/>
    </contour>
    <contour>
      <point x="220.23" y="392.7" type="line"/>
      <point x="255.625" y="617.41" type="line"/>
      <point x="373.715" y="617.41" type="line" smooth="yes"/>
      <point x="443.94" y="617.41"/>
      <point x="482.26" y="573.6"/>
      <point x="471.6" y="505.055" type="curve" smooth="yes"/>
      <point x="460.94" y="436.51"/>
      <point x="408.545" y="392.7"/>
      <point x="338.32" y="392.7" type="curve" smooth="yes"/>
    </contour>
  </outline>
</glyph>
<glyph name="Q" format="2">
  <advance width="600.0"/>
  <unicode hex="0051"/>
  <anchor x="256.0" y="0.0" name="bottom"/>
  <anchor x="372.0" y="730.0" name="top"/>
  <outline>
    <contour>
      <point x="340.3" y="-180.0" type="line"/>
      <point x="466.965" y="-180.0" type="line"/>
      <point x="356.19" y="65.795" type="line"/>
      <point x="343.755" y="3.415" type="line"/>
      <point x="439.945" y="29.83"/>
      <point x="504.285" y="105.585"/>
      <point x="520.285" y="207.925" type="curve" smooth="yes"/>
      <point x="570.115" y="522.075" type="line" smooth="yes"/>
      <point x="591.115" y="653.66"/>
      <point x="513.265" y="740.0"/>
      <point x="373.0" y="740.0" type="curve" smooth="yes"/>
      <point x="232.15" y="740.0"/>
      <point x="127.715" y="654.245"/>
      <point x="106.715" y="522.075" type="curve" smooth="yes"/>
      <point x="56.885000000000005" y="207.925" type="line" smooth="yes"/>
      <point x="35.885000000000005" y="76.925"/>
      <point x="113.735" y="-10.0"/>
      <point x="254.0" y="-10.0" type="curve" smooth="yes"/>
      <point x="261.66" y="-10.0"/>
      <point x="271.49" y="-9.0"/>
      <point x="278.98" y="-8.17" type="curve"/>
      <point x="259.96" y="1.0949999999999998" type="line"/>
    </contour>
    <contour>
      <point x="271.68" y="99.835" type="curve" smooth="yes"/>
      <point x="202.625" y="99.835"/>
      <point x="171.325" y="140.55"/>
      <point x="181.985" y="207.925" type="curve" smooth="yes"/>
      <point x="231.815" y="522.075" type="line" smooth="yes"/>
      <point x="242.475" y="590.035"/>
      <point x="289.605" y="630.75"/>
      <point x="356.32" y="630.75" type="curve" smooth="yes"/>
      <point x="423.035" y="630.75"/>
      <point x="455.675" y="590.035"/>
      <point x="445.015" y="522.075" type="curve" smooth="yes"/>
      <point x="395.185" y="207.925" type="line" smooth="yes"/>
      <point x="384.525" y="140.55"/>
      <point x="340.735" y="99.835"/>
    </contour>
  </outline>
</glyph>
<glyph name="R" format="2">
  <advance width="600.0"/>
  <unicode hex="0052"/>
  <anchor x="256.0" y="0.0" name="bottom"/>
  <anchor x="372.0" y="730.0" name="top"/>
  <outline>
    <contour>
      <point x="32.205" y="0.0" type="line"/>
      <point x="156.72" y="0.0" type="line"/>
      <point x="202.795" y="290.11" type="line"/>
      <point x="292.3" y="290.11" type="line"/>
      <point x="379.695" y="0.0" type="line"/>
      <point x="512.7" y="0.0" type="line"/>
      <point x="395.285" y="360.17" type="line"/>
      <point x="379.605" y="298.205" type="line"/>
      <point x="485.02" y="317.205"/>
      <point x="566.945" y="402.225"/>
      <point x="583.53" y="512.98" type="curve" smooth="yes"/>
      <point x="604.7" y="644.415"/>
      <point x="524.095" y="730.0"/>
      <point x="379.47" y="730.0" type="curve" smooth="yes"/>
      <point x="148.205" y="730.0" type="line"/>
    </contour>
    <contour>
      <point x="219.89" y="399.775" type="line"/>
      <point x="255.04" y="620.335" type="line"/>
      <point x="361.79" y="620.335" type="line" smooth="yes"/>
      <point x="431.11" y="620.335"/>
      <point x="467.845" y="577.525"/>
      <point x="456.6" y="508.885" type="curve" smooth="yes"/>
      <point x="446.355" y="441.415"/>
      <point x="396.375" y="399.775"/>
      <point x="326.64" y="399.775" type="curve" smooth="yes"/>
    </contour>
  </outline>
</glyph>
<glyph name="S" format="2">
  <advance width="600.0"/>
  <unicode hex="0053"/>
  <anchor x="256.0" y="0.0" name="bottom"/>
  <anchor x="372.0" y="730.0" name="top"/>
  <outline>
    <contour>
      <point x="255.66" y="-10.0" type="curve" smooth="yes"/>
      <point x="401.945" y="-10.0"/>
      <point x="509.625" y="72.34"/>
      <point x="530.38" y="199.36" type="curve" smooth="yes"/>
      <point x="546.55" y="305.72"/>
      <point x="493.36" y="383.475"/>
      <point x="383.225" y="413.89" type="curve" smooth="yes"/>
      <point x="299.925" y="437.7" type="line" smooth="yes"/>
      <point x="251.945" y="451.02"/>
      <point x="230.04" y="490.245"/>
      <point x="238.87" y="542.885" type="curve" smooth="yes"/>
      <point x="247.115" y="598.355"/>
      <point x="289.755" y="630.75"/>
      <point x="356.055" y="630.75" type="curve" smooth="yes"/>
      <point x="424.525" y="630.75"/>
      <point x="457.26" y="595.94"/>
      <point x="448.185" y="539.15" type="curve"/>
      <point x="573.285" y="539.15" type="line"/>
      <point x="592.04" y="661.245"/>
      <point x="514.605" y="740.415"/>
      <point x="374.32" y="740.415" type="curve" smooth="yes"/>
      <point x="233.79" y="740.415"/>
      <point x="131.94" y="659.49"/>
      <point x="112.355" y="536.055" type="curve" smooth="yes"/>
      <point x="96.6" y="431.28"/>
      <point x="151.205" y="351.6"/>
      <point x="260.0" y="322.185" type="curve" smooth="yes"/>
      <point x="340.545" y="299.375" type="line" smooth="yes"/>
      <point x="388.865" y="285.885"/>
      <point x="411.94" y="246.49"/>
      <point x="404.695" y="194.435" type="curve" smooth="yes"/>
      <point x="395.035" y="134.89"/>
      <point x="346.81" y="99.66499999999999"/>
      <point x="275.095" y="99.66499999999999" type="curve" smooth="yes"/>
      <point x="199.72" y="99.66499999999999"/>
      <point x="159.985" y="136.475"/>
      <point x="169.645" y="195.85" type="curve"/>
      <point x="44.545" y="195.85" type="line"/>
      <point x="24.79" y="69.51"/>
      <point x="106.225" y="-10.0"/>
    </contour>
  </outline>
</glyph>
<glyph name="T" format="2">
  <advance width="600.0"/>
  <unicode hex="0054"/>
  <anchor x="256.0" y="0.0" name="bottom"/>
  <anchor x="314.0" y="365.0" name="center"/>
  <anchor x="372.0" y="730.0" name="top"/>
  <outline>
    <contour>
      <point x="193.45" y="0.0" type="line"/>
      <point x="318.55" y="0.0" type="line"/>
      <point x="415.7" y="614.07" type="line"/>
      <point x="606.925" y="614.07" type="line"/>
      <point x="625.775" y="730.0" type="line"/>
      <point x="118.225" y="730.0" type="line"/>
      <point x="99.375" y="614.07" type="line"/>
      <point x="290.6" y="614.07" type="line"/>
    </contour>
  </outline>
</glyph>
<glyph name="U" format="2">
  <advance width="600.0"/>
  <unicode hex="0055"/>
  <anchor x="256.0" y="0.0" name="bottom"/>
  <anchor x="457.0" y="730.0" name="horn"/>
  <anchor x="305.0" y="0.0" name="ogonek"/>
  <anchor x="372.0" y="730.0" name="top"/>
  <anchor x="652.0" y="730.0" name="topright"/>
  <outline>
    <contour>
      <point x="254.0" y="-10.0" type="curve" smooth="yes"/>
      <point x="397.435" y="-10.0"/>
      <point x="495.135" y="73.095"/>
      <point x="516.72" y="208.19" type="curve" smooth="yes"/>
      <point x="599.55" y="730.0" type="line"/>
      <point x="474.45" y="730.0" type="line"/>
      <point x="391.62" y="208.775" type="line" smooth="yes"/>
      <point x="380.375" y="139.89"/>
      <point x="337.64" y="99.25"/>
      <point x="271.68" y="99.25" type="curve" smooth="yes"/>
      <point x="204.72" y="99.25"/>
      <point x="175.475" y="139.89"/>
      <point x="186.72" y="208.775" type="curve" smooth="yes"/>
      <point x="269.55" y="730.0" type="line"/>
      <point x="144.45" y="730.0" type="line"/>
      <point x="61.620000000000005" y="208.19" type="line" smooth="yes"/>
      <point x="40.035" y="72.925"/>
      <point x="110.98" y="-10.0"/>
    </contour>
  </outline>
</glyph>
<glyph name="V" format="2">
  <advance width="600.0"/>
  <unicode hex="0056"/>
  <anchor x="256.0" y="0.0" name="bottom"/>
  <anchor x="372.0" y="730.0" name="top"/>
  <outline>
    <contour>
      <point x="175.28" y="0.0" type="line"/>
      <point x="337.475" y="0.0" type="line"/>
      <point x="636.625" y="730.0" type="line"/>
      <point x="507.94" y="730.0" type="line"/>
      <point x="324.075" y="255.06" type="line" smooth="yes"/>
      <point x="305.435" y="207.12"/>
      <point x="285.775" y="145.63"/>
      <point x="276.19" y="113.28999999999999" type="curve"/>
      <point x="275.605" y="145.63"/>
      <point x="272.775" y="207.12"/>
      <point x="269.115" y="254.475" type="curve" smooth="yes"/>
      <point x="234.06" y="730.0" type="line"/>
      <point x="107.375" y="730.0" type="line"/>
    </contour>
  </outline>
</glyph>
<glyph name="W" format="2">
  <advance width="600.0"/>
  <unicode hex="0057"/>
  <anchor x="256.0" y="0.0" name="bottom"/>
  <anchor x="372.0" y="730.0" name="top"/>
  <outline>
    <contour>
      <point x="46.865" y="0.0" type="line"/>
      <point x="185.605" y="0.0" type="line"/>
      <point x="325.565" y="511.975" type="line" smooth="yes"/>
      <point x="336.225" y="550.54"/>
      <point x="350.565" y="614.335"/>
      <point x="359.32" y="651.205" type="curve"/>
      <point x="356.15" y="614.335"/>
      <point x="351.395" y="550.54"/>
      <point x="349.395" y="511.975" type="curve" smooth="yes"/>
      <point x="323.225" y="0.0" type="line"/>
      <point x="461.38" y="0.0" type="line"/>
      <point x="655.775" y="730.0" type="line"/>
      <point x="549.205" y="730.0" type="line"/>
      <point x="424.34" y="220.42" type="line" smooth="yes"/>
      <point x="415.265" y="185.195"/>
      <point x="402.68" y="122.835"/>
      <point x="395.095" y="85.475" type="curve"/>
      <point x="397.095" y="122.835"/>
      <point x="399.095" y="185.195"/>
      <point x="401.095" y="220.42" type="curve" smooth="yes"/>
      <point x="426.265" y="730.0" type="line"/>
      <point x="318.395" y="730.0" type="line"/>
      <point x="177.265" y="220.42" type="line" smooth="yes"/>
      <point x="167.19" y="185.195"/>
      <point x="152.265" y="122.835"/>
      <point x="142.51" y="85.475" type="curve"/>
      <point x="147.68" y="122.835"/>
      <point x="154.02" y="185.195"/>
      <point x="156.435" y="220.42" type="curve" smooth="yes"/>
      <point x="193.285" y="730.0" type="line"/>
      <point x="88.225" y="730.0" type="line"/>
    </contour>
  </outline>
</glyph>
<glyph name="X" format="2">
  <advance width="600.0"/>
  <unicode hex="0058"/>
  <anchor x="256.0" y="0.0" name="bottom"/>
  <anchor x="372.0" y="730.0" name="top"/>
  <outline>
    <contour>
      <point x="-15.7" y="0.0" type="line"/>
      <point x="124.57" y="0.0" type="line"/>
      <point x="260.245" y="201.995" type="line" smooth="yes"/>
      <point x="277.585" y="228.09"/>
      <point x="292.66" y="256.505"/>
      <point x="300.32" y="270.75" type="curve"/>
      <point x="303.735" y="256.505"/>
      <point x="311.98" y="228.09"/>
      <point x="321.565" y="201.58" type="curve" smooth="yes"/>
      <point x="393.015" y="0.0" type="line"/>
      <point x="527.7" y="0.0" type="line"/>
      <point x="386.305" y="373.415" type="line"/>
      <point x="631.53" y="730.0" type="line"/>
      <point x="491.675" y="730.0" type="line"/>
      <point x="369.0" y="546.76" type="line" smooth="yes"/>
      <point x="351.245" y="520.25"/>
      <point x="337.755" y="493.005"/>
      <point x="331.095" y="480.345" type="curve"/>
      <point x="328.02" y="493.005"/>
      <point x="318.19" y="519.665"/>
      <point x="309.605" y="546.76" type="curve" smooth="yes"/>
      <point x="247.57" y="730.0" type="line"/>
      <point x="112.47" y="730.0" type="line"/>
      <point x="245.28" y="377.265" type="line"/>
    </contour>
  </outline>
</glyph>
<glyph name="Y" format="2">
  <advance width="600.0"/>
  <unicode hex="0059"/>
  <anchor x="256.0" y="0.0" name="bottom"/>
  <anchor x="372.0" y="730.0" name="top"/>
  <anchor x="92.0" y="730.0" name="topleft"/>
  <outline>
    <contour>
      <point x="193.45" y="0.0" type="line"/>
      <point x="318.55" y="0.0" type="line"/>
      <point x="360.38" y="265.395" type="line"/>
      <point x="648.7" y="730.0" type="line"/>
      <point x="515.675" y="730.0" type="line"/>
      <point x="364.285" y="476.8" type="line" smooth="yes"/>
      <point x="340.945" y="437.365"/>
      <point x="323.265" y="394.23"/>
      <point x="314.755" y="372.53" type="curve"/>
      <point x="313.755" y="394.23"/>
      <point x="307.17" y="437.365"/>
      <point x="296.17" y="476.8" type="curve" smooth="yes"/>
      <point x="222.57" y="730.0" type="line"/>
      <point x="95.3" y="730.0" type="line"/>
      <point x="235.28" y="265.395" type="line"/>
    </contour>
  </outline>
</glyph>
<glyph name="Z" format="2">
  <advance width="600.0"/>
  <unicode hex="005A"/>
  <anchor x="256.0" y="0.0" name="bottom"/>
  <anchor x="314.0" y="365.0" name="center"/>
  <anchor x="372.0" y="730.0" name="top"/>
  <outline>
    <contour>
      <point x="35.735" y="0.0" type="line"/>
      <point x="476.85" y="0.0" type="line"/>
      <point x="495.115" y="115.93" type="line"/>
      <point x="194.8" y="115.93" type="line"/>
      <point x="562.585" y="610.75" type="line"/>
      <point x="582.265" y="730.0" type="line"/>
      <point x="157.905" y="730.0" type="line"/>
      <point x="139.055" y="614.07" type="line"/>
      <point x="422.03" y="614.07" type="line"/>
      <point x="54.415" y="119.25" type="line"/>
    </contour>
  </outline>
</glyph>
<glyph name="bracketleft" format="2">
  <advance width="600.0"/>
  <unicode hex="005B"/>
  <outline>
    <contour>
      <point x="123.525" y="-110.0" type="line"/>
      <point x="403.625" y="-110.0" type="line"/>
      <point x="421.475" y="5.099999999999994" type="line"/>
      <point x="266.475" y="5.099999999999994" type="line"/>
      <point x="378.775" y="714.9" type="line"/>
      <point x="533.775" y="714.9" type="line"/>
      <point x="551.625" y="830.0" type="line"/>
      <point x="271.525" y="830.0" type="line"/>
    </contour>
  </outline>
</glyph>
<glyph name="backslash" format="2">
  <advance width="600.0"/>
  <unicode hex="005C"/>
  <outline>
    <contour>
      <point x="352.355" y="-110.0" type="line"/>
      <point x="478.04" y="-110.0" type="line"/>
      <point x="272.475" y="830.0" type="line"/>
      <point x="146.79" y="830.0" type="line"/>
    </contour>
  </outline>
</glyph>
<glyph name="bracketright" format="2">
  <advance width="600.0"/>
  <unicode hex="005D"/>
  <outline>
    <contour>
      <point x="74.375" y="-110.0" type="line"/>
      <point x="354.475" y="-110.0" type="line"/>
      <point x="502.475" y="830.0" type="line"/>
      <point x="222.375" y="830.0" type="line"/>
      <point x="204.525" y="714.9" type="line"/>
      <point x="359.525" y="714.9" type="line"/>
      <point x="247.225" y="5.099999999999994" type="line"/>
      <point x="92.225" y="5.099999999999994" type="line"/>
    </contour>
  </outline>
</glyph>
<glyph name="asciicircum" format="2">
  <advance width="600.0"/>
  <unicode hex="005E"/>
  <outline>
    <contour>
      <point x="78.3" y="340.0" type="line"/>
      <point x="197.4" y="340.0" type="line"/>
      <point x="328.245" y="569.92" type="line" smooth="yes"/>
      <point x="344.245" y="598.26"/>
      <point x="355.49" y="626.43"/>
      <point x="360.735" y="639.845" type="curve"/>
      <point x="361.565" y="626.43"/>
      <point x="366.395" y="598.26"/>
      <point x="372.81" y="569.92" type="curve" smooth="yes"/>
      <point x="428.015" y="340.0" type="line"/>
      <point x="541.7" y="340.0" type="line"/>
      <point x="433.135" y="730.0" type="line"/>
      <point x="312.865" y="730.0" type="line"/>
    </contour>
  </outline>
</glyph>
<glyph name="underscore" format="2">
  <advance width="600.0"/>
  <unicode hex="005F"/>
  <outline>
    <contour>
      <point x="-5.85" y="-138.025" type="line"/>
      <point x="474.15" y="-138.025" type="line"/>
      <point x="492.0" y="-25.0" type="line"/>
      <point x="12.0" y="-25.0" type="line"/>
    </contour>
  </outline>
</glyph>
<glyph name="a" format="2">
  <advance width="600.0"/>
  <unicode hex="0061"/>
  <anchor x="261.0" y="0.0" name="bottom"/>
  <anchor x="402.45" y="0.0" name="ogonek"/>
  <anchor x="348.0" y="550.0" name="top"/>
  <outline>
    <contour>
      <point x="207.79" y="-10.0" type="curve" smooth="yes"/>
      <point x="298.79" y="-10.0"/>
      <point x="364.45" y="43.755"/>
      <point x="378.62" y="134.19" type="curve"/>
      <point x="346.505" y="105.0" type="line"/>
      <point x="374.45" y="105.0" type="line"/>
      <point x="357.45" y="0.0" type="line"/>
      <point x="479.625" y="0.0" type="line"/>
      <point x="566.625" y="550.0" type="line"/>
      <point x="442.11" y="550.0" type="line"/>
      <point x="428.28" y="445.0" type="line"/>
      <point x="399.505" y="445.0" type="line"/>
      <point x="423.28" y="415.81" type="line"/>
      <point x="437.45" y="505.83"/>
      <point x="389.375" y="560.0"/>
      <point x="298.79" y="560.0" type="curve" smooth="yes"/>
      <point x="187.79" y="560.0"/>
      <point x="104.62" y="478.49"/>
      <point x="83.45" y="349.15" type="curve" smooth="yes"/>
      <point x="59.620000000000005" y="200.435" type="line" smooth="yes"/>
      <point x="38.45" y="70.925"/>
      <point x="97.205" y="-10.0"/>
    </contour>
    <contour>
      <point x="269.51" y="98.42" type="curve" smooth="yes"/>
      <point x="205.21" y="98.42"/>
      <point x="175.06" y="136.645"/>
      <point x="185.72" y="205.85" type="curve" smooth="yes"/>
      <point x="207.55" y="344.15" type="line" smooth="yes"/>
      <point x="218.21" y="412.77"/>
      <point x="260.85" y="451.58"/>
      <point x="325.15" y="451.58" type="curve" smooth="yes"/>
      <point x="388.035" y="451.58"/>
      <point x="419.6" y="411.94"/>
      <point x="408.94" y="344.15" type="curve" smooth="yes"/>
      <point x="387.11" y="205.85" type="line" smooth="yes"/>
      <point x="376.45" y="137.475"/>
      <point x="332.395" y="98.42"/>
    </contour>
  </outline>
</glyph>
<glyph name="b" format="2">
  <advance width="600.0"/>
  <unicode hex="0062"/>
  <anchor x="256.0" y="0.0" name="bottom"/>
  <anchor x="372.0" y="730.0" name="top"/>
  <outline>
    <contour>
      <point x="300.625" y="-10.0" type="curve" smooth="yes"/>
      <point x="411.21" y="-10.0"/>
      <point x="495.965" y="70.925"/>
      <point x="515.965" y="200.435" type="curve" smooth="yes"/>
      <point x="539.795" y="349.15" type="line" smooth="yes"/>
      <point x="559.795" y="478.49"/>
      <point x="502.625" y="560.0"/>
      <point x="391.625" y="560.0" type="curve" smooth="yes"/>
      <point x="301.04" y="560.0"/>
      <point x="234.965" y="505.83"/>
      <point x="220.795" y="415.81" type="curve"/>
      <point x="252.91" y="445.0" type="line"/>
      <point x="224.135" y="445.0" type="line"/>
      <point x="249.06" y="575.85" type="line"/>
      <point x="273.89" y="730.0" type="line"/>
      <point x="148.79" y="730.0" type="line"/>
      <point x="32.79" y="0.0" type="line"/>
      <point x="154.965" y="0.0" type="line"/>
      <point x="171.965" y="105.0" type="line"/>
      <point x="199.91" y="105.0" type="line"/>
      <point x="176.135" y="134.19" type="line"/>
      <point x="161.965" y="43.755"/>
      <point x="209.625" y="-10.0"/>
    </contour>
    <contour>
      <point x="274.265" y="98.42" type="curve" smooth="yes"/>
      <point x="211.38" y="98.42"/>
      <point x="179.815" y="137.475"/>
      <point x="190.475" y="205.85" type="curve" smooth="yes"/>
      <point x="212.305" y="344.15" type="line" smooth="yes"/>
      <point x="223.38" y="411.94"/>
      <point x="267.02" y="451.58"/>
      <point x="329.905" y="451.58" type="curve" smooth="yes"/>
      <point x="394.205" y="451.58"/>
      <point x="424.77" y="412.77"/>
      <point x="413.695" y="344.15" type="curve" smooth="yes"/>
      <point x="391.865" y="205.85" type="line" smooth="yes"/>
      <point x="380.79" y="136.645"/>
      <point x="338.565" y="98.42"/>
    </contour>
  </outline>
</glyph>
<glyph name="c" format="2">
  <advance width="600.0"/>
  <unicode hex="0063"/>
  <anchor x="259.415" y="0.0" name="bottom"/>
  <anchor x="346.415" y="550.0" name="top"/>
  <outline>
    <contour>
      <point x="257.415" y="-10.0" type="curve" smooth="yes"/>
      <point x="394.945" y="-10.0"/>
      <point x="496.38" y="65.925"/>
      <point x="520.55" y="188.775" type="curve"/>
      <point x="395.45" y="188.775" type="line"/>
      <point x="381.79" y="131.645"/>
      <point x="337.98" y="99.25"/>
      <point x="275.095" y="99.25" type="curve" smooth="yes"/>
      <point x="207.21" y="99.25"/>
      <point x="174.645" y="137.475"/>
      <point x="185.305" y="205.85" type="curve" smooth="yes"/>
      <point x="207.55" y="344.565" type="line" smooth="yes"/>
      <point x="218.21" y="412.525"/>
      <point x="262.85" y="450.75"/>
      <point x="330.735" y="450.75" type="curve" smooth="yes"/>
      <point x="393.035" y="450.75"/>
      <point x="427.77" y="417.77"/>
      <point x="422.525" y="361.225" type="curve"/>
      <point x="547.625" y="361.225" type="line"/>
      <point x="562.21" y="484.075"/>
      <point x="485.945" y="560.0"/>
      <point x="348.415" y="560.0" type="curve" smooth="yes"/>
      <point x="207.225" y="560.0"/>
      <point x="103.035" y="476.32"/>
      <point x="82.035" y="344.15" type="curve" smooth="yes"/>
      <point x="60.205" y="205.85" type="line" smooth="yes"/>
      <point x="39.205" y="73.68"/>
      <point x="116.225" y="-10.0"/>
    </contour>
  </outline>
</glyph>
<glyph name="d" format="2">
  <advance width="600.0"/>
  <unicode hex="0064"/>
  <anchor x="256.0" y="0.0" name="bottom"/>
  <anchor x="300.0" y="275.0" name="center"/>
  <anchor x="372.0" y="730.0" name="top"/>
  <anchor x="624.0" y="550.0" name="topright"/>
  <outline>
    <contour>
      <point x="207.79" y="-10.0" type="curve" smooth="yes"/>
      <point x="298.79" y="-10.0"/>
      <point x="364.45" y="43.755"/>
      <point x="378.62" y="134.19" type="curve"/>
      <point x="346.505" y="105.0" type="line"/>
      <point x="374.45" y="105.0" type="line"/>
      <point x="357.45" y="0.0" type="line"/>
      <point x="479.625" y="0.0" type="line"/>
      <point x="595.625" y="730.0" type="line"/>
      <point x="470.525" y="730.0" type="line"/>
      <point x="445.695" y="575.85" type="line"/>
      <point x="428.28" y="445.0" type="line"/>
      <point x="399.505" y="445.0" type="line"/>
      <point x="423.28" y="415.81" type="line"/>
      <point x="437.45" y="505.83"/>
      <point x="389.375" y="560.0"/>
      <point x="298.79" y="560.0" type="curve" smooth="yes"/>
      <point x="187.79" y="560.0"/>
      <point x="103.45" y="478.49"/>
      <point x="83.45" y="349.15" type="curve" smooth="yes"/>
      <point x="59.620000000000005" y="200.435" type="line" smooth="yes"/>
      <point x="39.620000000000005" y="70.925"/>
      <point x="97.205" y="-10.0"/>
    </contour>
    <contour>
      <point x="269.51" y="98.42" type="curve" smooth="yes"/>
      <point x="205.21" y="98.42"/>
      <point x="174.645" y="136.645"/>
      <point x="185.72" y="205.85" type="curve" smooth="yes"/>
      <point x="207.55" y="344.15" type="line" smooth="yes"/>
      <point x="218.625" y="412.77"/>
      <point x="260.85" y="451.58"/>
      <point x="325.15" y="451.58" type="curve" smooth="yes"/>
      <point x="388.035" y="451.58"/>
      <point x="420.015" y="411.94"/>
      <point x="408.94" y="344.15" type="curve" smooth="yes"/>
      <point x="387.11" y="205.85" type="line" smooth="yes"/>
      <point x="376.45" y="137.475"/>
      <point x="332.395" y="98.42"/>
    </contour>
  </outline>
</glyph>
<glyph name="e" format="2">
  <advance width="600.0"/>
  <unicode hex="0065"/>
  <anchor x="256.0" y="0.0" name="bottom"/>
  <anchor x="305.0" y="0.0" name="ogonek"/>
  <anchor x="343.0" y="550.0" name="top"/>
  <outline>
    <contour>
      <point x="254.585" y="-10.0" type="curve" smooth="yes"/>
      <point x="372.34" y="-10.0"/>
      <point x="470.19" y="51.51"/>
      <point x="503.795" y="145.85" type="curve"/>
      <point x="380.45" y="145.85" type="line"/>
      <point x="364.79" y="109.13499999999999"/>
      <point x="327.98" y="88.815"/>
      <point x="271.85" y="88.815" type="curve" smooth="yes"/>
      <point x="198.625" y="88.815"/>
      <point x="168.135" y="129.38"/>
      <point x="180.38" y="205.85" type="curve" smooth="yes"/>
      <point x="186.625" y="245.395" type="line"/>
      <point x="523.21" y="245.395" type="line"/>
      <point x="538.795" y="344.15" type="line" smooth="yes"/>
      <point x="559.795" y="474.075"/>
      <point x="484.945" y="560.0"/>
      <point x="345.585" y="560.0" type="curve" smooth="yes"/>
      <point x="205.64" y="560.0"/>
      <point x="103.035" y="474.075"/>
      <point x="82.035" y="344.15" type="curve" smooth="yes"/>
      <point x="60.205" y="205.85" type="line" smooth="yes"/>
      <point x="39.620000000000005" y="75.925"/>
      <point x="114.64" y="-10.0"/>
    </contour>
    <contour>
      <point x="414.205" y="315.34" type="line"/>
      <point x="424.545" y="324.51" type="line"/>
      <point x="198.795" y="323.34" type="line"/>
      <point x="202.21" y="344.15" type="line" smooth="yes"/>
      <point x="214.45499999999998" y="420.035"/>
      <point x="257.435" y="462.77"/>
      <point x="330.075" y="462.77" type="curve" smooth="yes"/>
      <point x="402.13" y="462.77"/>
      <point x="430.865" y="421.205"/>
      <point x="418.62" y="345.32" type="curve" smooth="yes"/>
    </contour>
  </outline>
</glyph>
<glyph name="f" format="2">
  <advance width="600.0"/>
  <unicode hex="0066"/>
  <anchor x="256.0" y="0.0" name="bottom"/>
  <anchor x="372.0" y="730.0" name="top"/>
  <outline>
    <contour>
      <point x="0.0" y="-180.0" type="line"/>
      <point x="58.375" y="-180.0" type="line" smooth="yes"/>
      <point x="185.68" y="-180.0"/>
      <point x="274.89" y="-111.395"/>
      <point x="292.645" y="-0.10999999999999943" type="curve" smooth="yes"/>
      <point x="353.7" y="376.145" type="line"/>
      <point x="556.585" y="376.145" type="line"/>
      <point x="574.85" y="489.15" type="line"/>
      <point x="371.965" y="489.15" type="line"/>
      <point x="383.38" y="561.225" type="line" smooth="yes"/>
      <point x="389.04" y="599.015"/>
      <point x="413.775" y="619.92"/>
      <point x="452.81" y="619.92" type="curve" smooth="yes"/>
      <point x="582.32" y="619.92" type="line"/>
      <point x="600.0" y="730.0" type="line"/>
      <point x="467.98" y="730.0" type="line" smooth="yes"/>
      <point x="356.47" y="730.0"/>
      <point x="274.865" y="664.905"/>
      <point x="258.865" y="564.15" type="curve" smooth="yes"/>
      <point x="246.865" y="489.15" type="line"/>
      <point x="86.98" y="489.15" type="line"/>
      <point x="68.715" y="376.145" type="line"/>
      <point x="228.6" y="376.145" type="line"/>
      <point x="168.13" y="2.8149999999999977" type="line" smooth="yes"/>
      <point x="159.715" y="-48.43"/>
      <point x="126.62" y="-75.77000000000001"/>
      <point x="72.375" y="-75.77000000000001" type="curve" smooth="yes"/>
      <point x="16.509999999999998" y="-75.77000000000001" type="line"/>
    </contour>
  </outline>
</glyph>
<glyph name="g" format="2">
  <advance width="600.0"/>
  <unicode hex="0067"/>
  <anchor x="214.0" y="-270.0" name="bottom"/>
  <anchor x="340.0" y="550.0" name="top"/>
  <outline>
    <contour>
      <point x="79.47" y="-180.0" type="line"/>
      <point x="245.28" y="-180.0" type="line" smooth="yes"/>
      <point x="372.585" y="-180.0"/>
      <point x="461.795" y="-111.395"/>
      <point x="479.55" y="-0.10999999999999943" type="curve" smooth="yes"/>
      <point x="566.625" y="550.0" type="line"/>
      <point x="441.94" y="550.0" type="line"/>
      <point x="427.865" y="445.0" type="line"/>
      <point x="400.335" y="445.0" type="line"/>
      <point x="424.11" y="418.3" type="line"/>
      <point x="438.28" y="507.075"/>
      <point x="390.62" y="560.0"/>
      <point x="300.45" y="560.0" type="curve" smooth="yes"/>
      <point x="188.62" y="560.0"/>
      <point x="103.86500000000001" y="478.075"/>
      <point x="83.86500000000001" y="349.565" type="curve" smooth="yes"/>
      <point x="67.035" y="242.925" type="line" smooth="yes"/>
      <point x="46.45" y="113.415"/>
      <point x="105.035" y="32.075"/>
      <point x="216.865" y="32.075" type="curve" smooth="yes"/>
      <point x="307.035" y="32.075"/>
      <point x="370.865" y="85.0"/>
      <point x="385.62" y="173.775" type="curve"/>
      <point x="353.75" y="147.075" type="line"/>
      <point x="381.695" y="147.075" type="line"/>
      <point x="363.11" y="44.15" type="line"/>
      <point x="356.79" y="2.8149999999999977" type="line" smooth="yes"/>
      <point x="348.375" y="-48.43"/>
      <point x="315.28" y="-75.77000000000001"/>
      <point x="259.28" y="-75.77000000000001" type="curve" smooth="yes"/>
      <point x="95.98" y="-75.77000000000001" type="line"/>
    </contour>
    <contour>
      <point x="276.34" y="140.495" type="curve" smooth="yes"/>
      <point x="212.04" y="140.495"/>
      <point x="181.475" y="178.72"/>
      <point x="193.135" y="247.925" type="curve" smooth="yes"/>
      <point x="207.965" y="344.15" type="line" smooth="yes"/>
      <point x="219.04" y="412.77"/>
      <point x="261.265" y="451.58"/>
      <point x="325.565" y="451.58" type="curve" smooth="yes"/>
      <point x="388.45" y="451.58"/>
      <point x="420.43" y="411.94"/>
      <point x="409.355" y="344.15" type="curve" smooth="yes"/>
      <point x="394.525" y="247.925" type="line" smooth="yes"/>
      <point x="383.28" y="179.55"/>
      <point x="339.225" y="140.495"/>
    </contour>
  </outline>
</glyph>
<glyph name="h" format="2">
  <advance width="600.0"/>
  <unicode hex="0068"/>
  <anchor x="256.0" y="0.0" name="bottom"/>
  <anchor x="314.0" y="365.0" name="center"/>
  <anchor x="372.0" y="730.0" name="top"/>
  <outline>
    <contour>
      <point x="32.79" y="0.0" type="line"/>
      <point x="157.89" y="0.0" type="line"/>
      <point x="212.305" y="344.15" type="line" smooth="yes"/>
      <point x="223.38" y="412.77"/>
      <point x="266.85" y="452.41"/>
      <point x="328.98" y="452.41" type="curve" smooth="yes"/>
      <point x="390.45" y="452.41"/>
      <point x="421.6" y="414.015"/>
      <point x="411.355" y="348.3" type="curve" smooth="yes"/>
      <point x="356.11" y="0.0" type="line"/>
      <point x="481.21" y="0.0" type="line"/>
      <point x="538.455" y="361.225" type="line" smooth="yes"/>
      <point x="557.625" y="482.32"/>
      <point x="499.795" y="560.0"/>
      <point x="391.55" y="560.0" type="curve" smooth="yes"/>
      <point x="300.135" y="560.0"/>
      <point x="235.38" y="505.905"/>
      <point x="220.795" y="415.81" type="curve"/>
      <point x="258.59" y="445.0" type="line"/>
      <point x="224.965" y="445.0" type="line"/>
      <point x="244.89" y="550.0" type="line"/>
      <point x="273.89" y="730.0" type="line"/>
      <point x="148.79" y="730.0" type="line"/>
    </contour>
  </outline>
</glyph>
<glyph name="k" format="2">
  <advance width="600.0"/>
  <unicode hex="006B"/>
  <anchor x="256.0" y="0.0" name="bottom"/>
  <anchor x="372.0" y="730.0" name="top"/>
  <outline>
    <contour>
      <point x="35.79" y="0.0" type="line"/>
      <point x="160.89" y="0.0" type="line"/>
      <point x="196.965" y="228.035" type="line"/>
      <point x="283.68" y="228.035" type="line"/>
      <point x="383.035" y="0.0" type="line"/>
      <point x="521.135" y="0.0" type="line"/>
      <point x="395.515" y="278.565" type="line"/>
      <point x="605.135" y="550.0" type="line"/>
      <point x="462.11" y="550.0" type="line"/>
      <point x="294.19" y="334.115" type="line"/>
      <point x="213.645" y="334.115" type="line"/>
      <point x="276.89" y="730.0" type="line"/>
      <point x="151.79" y="730.0" type="line"/>
    </contour>
  </outline>
</glyph>
<glyph name="l" format="2">
  <advance width="600.0"/>
  <unicode hex="006C"/>
  <anchor x="263.4" y="0.0" name="bottom"/>
  <anchor x="314.0" y="365.0" name="center"/>
  <anchor x="329.55" y="730.0" name="top"/>
  <anchor x="652.0" y="730.0" name="topright"/>
  <outline>
    <contour>
      <point x="335.625" y="0.0" type="curve" smooth="yes"/>
      <point x="514.775" y="0.0" type="line"/>
      <point x="532.455" y="113.005" type="line"/>
      <point x="362.08" y="113.005" type="line" smooth="yes"/>
      <point x="323.175" y="113.005"/>
      <point x="302.345" y="138.665"/>
      <point x="308.76" y="178.4" type="curve" smooth="yes"/>
      <point x="396.25" y="730.0" type="line"/>
      <point x="103.225" y="730.0" type="line"/>
      <point x="84.96000000000001" y="616.995" type="line"/>
      <point x="252.885" y="616.995" type="line"/>
      <point x="183.66" y="178.4" type="line" smooth="yes"/>
      <point x="166.905" y="70.945"/>
      <point x="226.925" y="0.0"/>
    </contour>
  </outline>
</glyph>
<glyph name="m" format="2">
  <advance width="600.0"/>
  <unicode hex="006D"/>
  <anchor x="256.0" y="0.0" name="bottom"/>
  <anchor x="344.0" y="550.0" name="top"/>
  <outline>
    <contour>
      <point x="7.960000000000001" y="0.0" type="line"/>
      <point x="117.87" y="0.0" type="line"/>
      <point x="182.115" y="410.055" type="line" smooth="yes"/>
      <point x="187.945" y="446.865"/>
      <point x="207.435" y="467.6"/>
      <point x="237.415" y="467.6" type="curve" smooth="yes"/>
      <point x="267.395" y="467.6"/>
      <point x="281.3" y="446.865"/>
      <point x="275.47" y="409.64" type="curve" smooth="yes"/>
      <point x="211.225" y="0.0" type="line"/>
      <point x="301.36" y="0.0" type="line"/>
      <point x="365.605" y="410.055" type="line" smooth="yes"/>
      <point x="371.435" y="446.865"/>
      <point x="392.17" y="467.6"/>
      <point x="421.735" y="467.6" type="curve" smooth="yes"/>
      <point x="451.715" y="467.6"/>
      <point x="464.79" y="446.45"/>
      <point x="458.96" y="409.64" type="curve" smooth="yes"/>
      <point x="394.715" y="0.0" type="line"/>
      <point x="504.625" y="0.0" type="line"/>
      <point x="570.625" y="419.17" type="line" smooth="yes"/>
      <point x="583.625" y="502.415"/>
      <point x="548.53" y="560.0"/>
      <point x="481.87" y="560.0" type="curve" smooth="yes"/>
      <point x="425.87" y="560.0"/>
      <point x="381.115" y="518.66"/>
      <point x="371.53" y="457.66" type="curve"/>
      <point x="387.095" y="475.81" type="line"/>
      <point x="353.285" y="475.81" type="line"/>
      <point x="368.775" y="435.85" type="line"/>
      <point x="380.605" y="511.245"/>
      <point x="350.85" y="560.0"/>
      <point x="292.775" y="560.0" type="curve" smooth="yes"/>
      <point x="238.53" y="560.0"/>
      <point x="196.36" y="518.66"/>
      <point x="186.775" y="457.66" type="curve"/>
      <point x="206.115" y="475.81" type="line"/>
      <point x="184.605" y="475.81" type="line"/>
      <point x="196.775" y="550.0" type="line"/>
      <point x="94.96000000000001" y="550.0" type="line"/>
    </contour>
  </outline>
</glyph>
<glyph name="o" format="2">
  <advance width="600.0"/>
  <unicode hex="006F"/>
  <anchor x="256.0" y="0.0" name="bottom"/>
  <anchor x="300.0" y="275.0" name="center"/>
  <anchor x="367.98" y="550.0" name="horn"/>
  <anchor x="305.0" y="0.0" name="ogonek"/>
  <anchor x="343.0" y="550.0" name="top"/>
  <anchor x="624.0" y="550.0" name="topright"/>
  <outline>
    <contour>
      <point x="254.0" y="-10.0" type="curve" smooth="yes"/>
      <point x="394.36" y="-10.0"/>
      <point x="495.965" y="74.265"/>
      <point x="516.965" y="205.85" type="curve" smooth="yes"/>
      <point x="539.21" y="344.565" type="line" smooth="yes"/>
      <point x="559.795" y="475.735"/>
      <point x="485.36" y="560.0"/>
      <point x="345.0" y="560.0" type="curve" smooth="yes"/>
      <point x="204.64" y="560.0"/>
      <point x="103.035" y="475.735"/>
      <point x="82.035" y="344.15" type="curve" smooth="yes"/>
      <point x="60.205" y="205.85" type="line" smooth="yes"/>
      <point x="39.205" y="74.265"/>
      <point x="113.64" y="-10.0"/>
    </contour>
    <contour>
      <point x="271.68" y="99.25" type="curve" smooth="yes"/>
      <point x="205.38" y="99.25"/>
      <point x="174.23" y="136.645"/>
      <point x="185.305" y="205.85" type="curve" smooth="yes"/>
      <point x="207.135" y="344.15" type="line" smooth="yes"/>
      <point x="218.21" y="413.355"/>
      <point x="261.02" y="450.75"/>
      <point x="327.32" y="450.75" type="curve" smooth="yes"/>
      <point x="393.62" y="450.75"/>
      <point x="424.77" y="413.355"/>
      <point x="413.695" y="344.15" type="curve" smooth="yes"/>
      <point x="391.865" y="205.85" type="line" smooth="yes"/>
      <point x="380.79" y="136.645"/>
      <point x="337.98" y="99.25"/>
    </contour>
  </outline>
</glyph>
<glyph name="p" format="2">
  <advance width="600.0"/>
  <unicode hex="0070"/>
  <anchor x="256.0" y="0.0" name="bottom"/>
  <anchor x="344.0" y="550.0" name="top"/>
  <outline>
    <contour>
      <point x="3.790000000000001" y="-180.0" type="line"/>
      <point x="128.89" y="-180.0" type="line"/>
      <point x="153.72" y="-25.85" type="line"/>
      <point x="171.135" y="105.0" type="line"/>
      <point x="199.91" y="105.0" type="line"/>
      <point x="176.135" y="134.19" type="line"/>
      <point x="161.965" y="44.17"/>
      <point x="210.45499999999998" y="-10.0"/>
      <point x="301.04" y="-10.0" type="curve" smooth="yes"/>
      <point x="412.04" y="-10.0"/>
      <point x="495.965" y="71.51"/>
      <point x="515.965" y="200.85" type="curve" smooth="yes"/>
      <point x="539.795" y="349.565" type="line" smooth="yes"/>
      <point x="559.795" y="478.49"/>
      <point x="502.625" y="560.0"/>
      <point x="392.04" y="560.0" type="curve" smooth="yes"/>
      <point x="301.04" y="560.0"/>
      <point x="234.965" y="506.245"/>
      <point x="220.795" y="415.81" type="curve"/>
      <point x="252.91" y="445.0" type="line"/>
      <point x="224.965" y="445.0" type="line"/>
      <point x="241.965" y="550.0" type="line"/>
      <point x="119.79" y="550.0" type="line"/>
    </contour>
    <contour>
      <point x="274.68" y="98.42" type="curve" smooth="yes"/>
      <point x="211.795" y="98.42"/>
      <point x="179.815" y="138.06"/>
      <point x="190.475" y="205.85" type="curve" smooth="yes"/>
      <point x="212.305" y="344.15" type="line" smooth="yes"/>
      <point x="223.38" y="411.94"/>
      <point x="267.435" y="451.58"/>
      <point x="330.32" y="451.58" type="curve" smooth="yes"/>
      <point x="394.62" y="451.58"/>
      <point x="424.77" y="413.355"/>
      <point x="413.695" y="344.15" type="curve" smooth="yes"/>
      <point x="391.865" y="205.85" type="line" smooth="yes"/>
      <point x="380.79" y="136.645"/>
      <point x="338.98" y="98.42"/>
    </contour>
  </outline>
</glyph>
<glyph name="q" format="2">
  <advance width="600.0"/>
  <unicode hex="0071"/>
  <anchor x="256.0" y="0.0" name="bottom"/>
  <anchor x="344.0" y="550.0" name="top"/>
  <outline>
    <contour>
      <point x="325.11" y="-180.0" type="line"/>
      <point x="450.21" y="-180.0" type="line"/>
      <point x="566.21" y="550.0" type="line"/>
      <point x="444.035" y="550.0" type="line"/>
      <point x="427.035" y="445.0" type="line"/>
      <point x="399.09000000000003" y="445.0" type="line"/>
      <point x="421.695" y="415.81" type="line"/>
      <point x="435.865" y="506.245"/>
      <point x="389.375" y="560.0"/>
      <point x="298.375" y="560.0" type="curve" smooth="yes"/>
      <point x="187.79" y="560.0"/>
      <point x="103.035" y="478.49"/>
      <point x="83.035" y="349.565" type="curve" smooth="yes"/>
      <point x="59.205" y="200.85" type="line" smooth="yes"/>
      <point x="39.205" y="71.51"/>
      <point x="96.375" y="-10.0"/>
      <point x="207.375" y="-10.0" type="curve" smooth="yes"/>
      <point x="297.96" y="-10.0"/>
      <point x="362.865" y="44.17"/>
      <point x="377.035" y="134.19" type="curve"/>
      <point x="346.09000000000003" y="105.0" type="line"/>
      <point x="374.865" y="105.0" type="line"/>
      <point x="349.94" y="-25.85" type="line"/>
    </contour>
    <contour>
      <point x="269.095" y="98.42" type="curve" smooth="yes"/>
      <point x="204.795" y="98.42"/>
      <point x="174.23" y="136.645"/>
      <point x="185.305" y="205.85" type="curve" smooth="yes"/>
      <point x="207.135" y="344.15" type="line" smooth="yes"/>
      <point x="218.21" y="413.355"/>
      <point x="260.435" y="451.58"/>
      <point x="324.735" y="451.58" type="curve" smooth="yes"/>
      <point x="387.62" y="451.58"/>
      <point x="419.6" y="411.94"/>
      <point x="408.525" y="344.15" type="curve" smooth="yes"/>
      <point x="386.695" y="205.85" type="line" smooth="yes"/>
      <point x="376.035" y="138.06"/>
      <point x="331.98" y="98.42"/>
    </contour>
  </outline>
</glyph>
<glyph name="r" format="2">
  <advance width="600.0"/>
  <unicode hex="0072"/>
  <anchor x="91.0" y="0.0" name="bottom"/>
  <anchor x="363.0" y="550.0" name="top"/>
  <outline>
    <contour>
      <point x="50.035" y="0.0" type="line"/>
      <point x="175.135" y="0.0" type="line"/>
      <point x="229.55" y="344.15" type="line" smooth="yes"/>
      <point x="240.625" y="414.525"/>
      <point x="284.68" y="455.335"/>
      <point x="349.565" y="455.335" type="curve" smooth="yes"/>
      <point x="413.695" y="455.335"/>
      <point x="445.6" y="414.94"/>
      <point x="434.525" y="344.15" type="curve" smooth="yes"/>
      <point x="429.355" y="313.3" type="line"/>
      <point x="560.305" y="313.3" type="line"/>
      <point x="566.89" y="353.32" type="line" smooth="yes"/>
      <point x="587.06" y="482.585"/>
      <point x="527.815" y="560.0"/>
      <point x="408.89" y="560.0" type="curve" smooth="yes"/>
      <point x="305.55" y="560.0"/>
      <point x="241.21" y="499.0"/>
      <point x="222.21" y="380.585" type="curve"/>
      <point x="269.4" y="445.0" type="line"/>
      <point x="238.45499999999998" y="445.0" type="line"/>
      <point x="255.45499999999998" y="550.0" type="line"/>
      <point x="137.035" y="550.0" type="line"/>
    </contour>
  </outline>
</glyph>
<glyph name="s" format="2">
  <advance width="600.0"/>
  <unicode hex="0073"/>
  <anchor x="255.83" y="0.0" name="bottom"/>
  <anchor x="344.585" y="550.0" name="top"/>
  <outline>
    <contour>
      <point x="231.415" y="-10.0" type="curve" smooth="yes"/>
      <point x="274.585" y="-10.0" type="line" smooth="yes"/>
      <point x="416.285" y="-10.0"/>
      <point x="499.475" y="52.415"/>
      <point x="517.06" y="160.265" type="curve" smooth="yes"/>
      <point x="532.645" y="260.36"/>
      <point x="478.455" y="304.775"/>
      <point x="351.17" y="323.19" type="curve" smooth="yes"/>
      <point x="281.51" y="333.435" type="line" smooth="yes"/>
      <point x="231.945" y="340.68"/>
      <point x="214.45499999999998" y="359.925"/>
      <point x="220.285" y="396.735" type="curve" smooth="yes"/>
      <point x="226.53" y="436.79"/>
      <point x="254.68" y="458.355"/>
      <point x="312.15" y="458.355" type="curve" smooth="yes"/>
      <point x="350.15" y="458.355" type="line" smooth="yes"/>
      <point x="397.715" y="458.355"/>
      <point x="424.375" y="437.865"/>
      <point x="423.28" y="407.545" type="curve"/>
      <point x="548.38" y="407.545" type="line"/>
      <point x="557.74" y="499.735"/>
      <point x="488.625" y="560.0"/>
      <point x="366.66" y="560.0" type="curve" smooth="yes"/>
      <point x="328.66" y="560.0" type="line" smooth="yes"/>
      <point x="194.3" y="560.0"/>
      <point x="114.28" y="499.83"/>
      <point x="98.11" y="396.565" type="curve" smooth="yes"/>
      <point x="82.525" y="298.3"/>
      <point x="133.79" y="255.64"/>
      <point x="255.755" y="238.64" type="curve" smooth="yes"/>
      <point x="322.49" y="228.98" type="line" smooth="yes"/>
      <point x="377.395" y="220.735"/>
      <point x="400.3" y="197.415"/>
      <point x="394.47" y="158.605" type="curve" smooth="yes"/>
      <point x="387.64" y="117.625"/>
      <point x="352.735" y="91.645"/>
      <point x="291.095" y="91.645" type="curve" smooth="yes"/>
      <point x="247.925" y="91.645" type="line" smooth="yes"/>
      <point x="196.53" y="91.645"/>
      <point x="166.87" y="114.72"/>
      <point x="168.965" y="149.625" type="curve"/>
      <point x="43.865" y="149.625" type="line"/>
      <point x="32.845" y="53.435"/>
      <point x="104.96000000000001" y="-10.0"/>
    </contour>
  </outline>
</glyph>
<glyph name="t" format="2">
  <advance width="600.0"/>
  <unicode hex="0074"/>
  <anchor x="316.0" y="0.0" name="bottom"/>
  <anchor x="300.0" y="275.0" name="center"/>
  <anchor x="375.0" y="700.0" name="top"/>
  <anchor x="624.0" y="550.0" name="topright"/>
  <outline>
    <contour>
      <point x="316.0" y="0.0" type="curve" smooth="yes"/>
      <point x="474.775" y="0.0" type="line"/>
      <point x="492.455" y="113.005" type="line"/>
      <point x="342.455" y="113.005" type="line" smooth="yes"/>
      <point x="308.475" y="113.005"/>
      <point x="294.23" y="130.665"/>
      <point x="300.06" y="165.475" type="curve" smooth="yes"/>
      <point x="342.87" y="436.995" type="line"/>
      <point x="554.095" y="436.995" type="line"/>
      <point x="571.775" y="550.0" type="line"/>
      <point x="360.55" y="550.0" type="line"/>
      <point x="384.55" y="700.0" type="line"/>
      <point x="259.45" y="700.0" type="line"/>
      <point x="235.45" y="550.0" type="line"/>
      <point x="86.3" y="550.0" type="line"/>
      <point x="68.62" y="436.995" type="line"/>
      <point x="217.77" y="436.995" type="line"/>
      <point x="174.96" y="165.475" type="line" smooth="yes"/>
      <point x="158.205" y="61.775"/>
      <point x="211.055" y="0.0"/>
    </contour>
  </outline>
</glyph>
<glyph name="u" format="2">
  <advance width="600.0"/>
  <unicode hex="0075"/>
  <anchor x="256.0" y="0.0" name="bottom"/>
  <anchor x="457.15" y="550.0" name="horn"/>
  <anchor x="305.0" y="0.0" name="ogonek"/>
  <anchor x="343.0" y="550.0" name="top"/>
  <anchor x="624.0" y="550.0" name="topright"/>
  <outline>
    <contour>
      <point x="253.585" y="-10.0" type="curve" smooth="yes"/>
      <point x="391.7" y="-10.0"/>
      <point x="493.21" y="72.755"/>
      <point x="514.38" y="208.19" type="curve" smooth="yes"/>
      <point x="568.21" y="550.0" type="line"/>
      <point x="443.11" y="550.0" type="line"/>
      <point x="389.28" y="208.775" type="line" smooth="yes"/>
      <point x="378.035" y="138.06"/>
      <point x="334.565" y="98.835"/>
      <point x="271.265" y="98.835" type="curve" smooth="yes"/>
      <point x="207.795" y="98.835"/>
      <point x="177.815" y="138.06"/>
      <point x="189.06" y="208.775" type="curve" smooth="yes"/>
      <point x="242.89" y="550.0" type="line"/>
      <point x="117.79" y="550.0" type="line"/>
      <point x="63.96" y="208.19" type="line" smooth="yes"/>
      <point x="42.79" y="73.34"/>
      <point x="114.3" y="-10.0"/>
    </contour>
  </outline>
</glyph>
<glyph name="v" format="2">
  <advance width="600.0"/>
  <unicode hex="0076"/>
  <anchor x="256.0" y="0.0" name="bottom"/>
  <anchor x="344.0" y="550.0" name="top"/>
  <outline>
    <contour>
      <point x="176.28" y="0.0" type="line"/>
      <point x="336.89" y="0.0" type="line"/>
      <point x="602.305" y="550.0" type="line"/>
      <point x="472.035" y="550.0" type="line"/>
      <point x="318.755" y="215.1" type="line" smooth="yes"/>
      <point x="300.68" y="175.78"/>
      <point x="282.02" y="127.85499999999999"/>
      <point x="272.435" y="102.93" type="curve"/>
      <point x="270.02" y="127.85499999999999"/>
      <point x="265.02" y="175.78"/>
      <point x="259.19" y="215.685" type="curve" smooth="yes"/>
      <point x="209.55" y="550.0" type="line"/>
      <point x="83.695" y="550.0" type="line"/>
    </contour>
  </outline>
</glyph>
<glyph name="w" format="2">
  <advance width="600.0"/>
  <unicode hex="0077"/>
  <anchor x="256.0" y="0.0" name="bottom"/>
  <anchor x="343.0" y="550.0" name="top"/>
  <outline>
    <contour>
      <point x="59.695" y="0.0" type="line"/>
      <point x="189.115" y="0.0" type="line"/>
      <point x="291.81" y="339.05" type="line" smooth="yes"/>
      <point x="303.225" y="376.05"/>
      <point x="317.98" y="428.58"/>
      <point x="326.905" y="457.77" type="curve"/>
      <point x="325.735" y="428.58"/>
      <point x="325.735" y="376.05"/>
      <point x="325.15" y="339.05" type="curve" smooth="yes"/>
      <point x="321.225" y="0.0" type="line"/>
      <point x="450.06" y="0.0" type="line"/>
      <point x="622.625" y="550.0" type="line"/>
      <point x="522.64" y="550.0" type="line"/>
      <point x="421.19" y="212.65" type="line" smooth="yes"/>
      <point x="409.85" y="175.45999999999998"/>
      <point x="394.925" y="121.25"/>
      <point x="387.34" y="90.475" type="curve"/>
      <point x="388.34" y="120.66499999999999"/>
      <point x="389.68" y="174.29"/>
      <point x="389.68" y="212.65" type="curve" smooth="yes"/>
      <point x="391.85" y="550.0" type="line"/>
      <point x="293.32" y="550.0" type="line"/>
      <point x="187.45499999999998" y="212.65" type="line" smooth="yes"/>
      <point x="175.53" y="174.29"/>
      <point x="160.605" y="121.25"/>
      <point x="152.435" y="91.06" type="curve"/>
      <point x="154.02" y="121.25"/>
      <point x="156.36" y="174.875"/>
      <point x="157.36" y="212.65" type="curve" smooth="yes"/>
      <point x="164.36" y="550.0" type="line"/>
      <point x="63.375" y="550.0" type="line"/>
    </contour>
  </outline>
</glyph>
<glyph name="x" format="2">
  <advance width="600.0"/>
  <unicode hex="0078"/>
  <anchor x="256.0" y="0.0" name="bottom"/>
  <anchor x="344.0" y="550.0" name="top"/>
  <outline>
    <contour>
      <point x="-5.965" y="0.0" type="line"/>
      <point x="138.475" y="0.0" type="line"/>
      <point x="257.075" y="150.75" type="line" smooth="yes"/>
      <point x="270.245" y="166.92000000000002"/>
      <point x="282.66" y="190.675"/>
      <point x="290.075" y="203.26" type="curve"/>
      <point x="293.49" y="190.675"/>
      <point x="302.075" y="167.505"/>
      <point x="309.66" y="150.75" type="curve" smooth="yes"/>
      <point x="379.45" y="0.0" type="line"/>
      <point x="517.965" y="0.0" type="line"/>
      <point x="373.965" y="280.755" type="line"/>
      <point x="592.795" y="550.0" type="line"/>
      <point x="448.355" y="550.0" type="line"/>
      <point x="344.265" y="415.1" type="line" smooth="yes"/>
      <point x="331.51" y="398.345"/>
      <point x="318.925" y="376.42"/>
      <point x="312.34" y="364.25" type="curve"/>
      <point x="309.34" y="376.42"/>
      <point x="301.925" y="398.345"/>
      <point x="294.34" y="415.1" type="curve" smooth="yes"/>
      <point x="232.135" y="550.0" type="line"/>
      <point x="93.62" y="550.0" type="line"/>
      <point x="229.035" y="287.17" type="line"/>
    </contour>
  </outline>
</glyph>
<glyph name="y" format="2">
  <advance width="600.0"/>
  <unicode hex="0079"/>
  <anchor x="256.0" y="0.0" name="bottom"/>
  <anchor x="343.0" y="550.0" name="top"/>
  <outline>
    <contour>
      <point x="76.545" y="-180.0" type="line"/>
      <point x="242.355" y="-180.0" type="line" smooth="yes"/>
      <point x="369.66" y="-180.0"/>
      <point x="459.285" y="-111.395"/>
      <point x="476.625" y="-0.10999999999999943" type="curve" smooth="yes"/>
      <point x="562.945" y="550.0" type="line"/>
      <point x="437.845" y="550.0" type="line"/>
      <point x="391.43" y="255.85" type="line" smooth="yes"/>
      <point x="380.77" y="187.23"/>
      <point x="336.885" y="147.59"/>
      <point x="274.755" y="147.59" type="curve" smooth="yes"/>
      <point x="213.285" y="147.59"/>
      <point x="181.72" y="185.985"/>
      <point x="192.38" y="251.7" type="curve" smooth="yes"/>
      <point x="239.625" y="550.0" type="line"/>
      <point x="114.525" y="550.0" type="line"/>
      <point x="65.28" y="238.775" type="line" smooth="yes"/>
      <point x="45.695" y="117.68"/>
      <point x="103.94" y="40.0"/>
      <point x="212.185" y="40.0" type="curve" smooth="yes"/>
      <point x="303.6" y="40.0"/>
      <point x="368.355" y="94.095"/>
      <point x="382.94" y="184.19" type="curve"/>
      <point x="345.145" y="155.0" type="line"/>
      <point x="378.77" y="155.0" type="line"/>
      <point x="360.6" y="46.225" type="line"/>
      <point x="353.865" y="2.8149999999999977" type="line" smooth="yes"/>
      <point x="346.45" y="-48.845"/>
      <point x="312.355" y="-75.77000000000001"/>
      <point x="256.355" y="-75.77000000000001" type="curve" smooth="yes"/>
      <point x="93.055" y="-75.77000000000001" type="line"/>
    </contour>
  </outline>
</glyph>
<glyph name="z" format="2">
  <advance width="600.0"/>
  <unicode hex="007A"/>
  <anchor x="256.0" y="0.0" name="bottom"/>
  <anchor x="300.0" y="275.0" name="center"/>
  <anchor x="343.0" y="550.0" name="top"/>
  <outline>
    <contour>
      <point x="34.3" y="0.0" type="line"/>
      <point x="477.7" y="0.0" type="line"/>
      <point x="495.38" y="110.08" type="line"/>
      <point x="198.95" y="110.08" type="line"/>
      <point x="536.19" y="436.6" type="line"/>
      <point x="553.7" y="550.0" type="line"/>
      <point x="130.47" y="550.0" type="line"/>
      <point x="113.375" y="439.92" type="line"/>
      <point x="387.145" y="439.92" type="line"/>
      <point x="52.395" y="113.4" type="line"/>
    </contour>
  </outline>
</glyph>
<glyph name="braceleft" format="2">
  <advance width="600.0"/>
  <unicode hex="007B"/>
  <outline>
    <contour>
      <point x="390.865" y="-110.585" type="curve" smooth="yes"/>
      <point x="459.265" y="-110.585" type="line"/>
      <point x="477.7" y="4.515000000000001" type="line"/>
      <point x="426.85" y="4.515000000000001" type="line" smooth="yes"/>
      <point x="379.645" y="4.515000000000001"/>
      <point x="353.74" y="30.589999999999996"/>
      <point x="363.4" y="75.305" type="curve" smooth="yes"/>
      <point x="398.23" y="231.115" type="line" smooth="yes"/>
      <point x="415.645" y="310.68"/>
      <point x="366.625" y="363.585"/>
      <point x="274.435" y="363.585" type="curve"/>
      <point x="273.85" y="357.415" type="line"/>
      <point x="366.455" y="357.415"/>
      <point x="430.89" y="408.905"/>
      <point x="438.72" y="487.715" type="curve" smooth="yes"/>
      <point x="453.55" y="644.11" type="line" smooth="yes"/>
      <point x="458.38" y="692.92"/>
      <point x="490.775" y="714.9"/>
      <point x="539.15" y="714.9" type="curve" smooth="yes"/>
      <point x="590.0" y="714.9" type="line"/>
      <point x="607.85" y="830.0" type="line"/>
      <point x="539.45" y="830.0" type="line" smooth="yes"/>
      <point x="426.13" y="830.0"/>
      <point x="340.62" y="763.735"/>
      <point x="330.205" y="655.81" type="curve" smooth="yes"/>
      <point x="315.375" y="499.415" type="line" smooth="yes"/>
      <point x="310.13" y="445.38"/>
      <point x="280.525" y="416.965"/>
      <point x="219.85" y="416.965" type="curve" smooth="yes"/>
      <point x="101.075" y="416.965" type="line"/>
      <point x="83.225" y="301.865" type="line"/>
      <point x="202.0" y="301.865" type="line" smooth="yes"/>
      <point x="262.26" y="301.865"/>
      <point x="282.865" y="273.45"/>
      <point x="271.375" y="219.415" type="curve" smooth="yes"/>
      <point x="237.13" y="66.53" type="line" smooth="yes"/>
      <point x="212.375" y="-42.565"/>
      <point x="278.13" y="-110.585"/>
    </contour>
  </outline>
</glyph>
<glyph name="braceright" format="2">
  <advance width="600.0"/>
  <unicode hex="007D"/>
  <outline>
    <contour>
      <point x="17.565" y="-110.585" type="line"/>
      <point x="85.965" y="-110.585" type="line" smooth="yes"/>
      <point x="198.7" y="-110.585"/>
      <point x="285.965" y="-42.565"/>
      <point x="296.38" y="66.53" type="curve" smooth="yes"/>
      <point x="310.625" y="219.415" type="line" smooth="yes"/>
      <point x="315.285" y="273.45"/>
      <point x="345.89" y="301.865"/>
      <point x="406.15" y="301.865" type="curve" smooth="yes"/>
      <point x="524.925" y="301.865" type="line"/>
      <point x="542.775" y="416.965" type="line"/>
      <point x="424.0" y="416.965" type="line" smooth="yes"/>
      <point x="363.325" y="416.965"/>
      <point x="342.55" y="445.38"/>
      <point x="354.625" y="499.415" type="curve" smooth="yes"/>
      <point x="389.455" y="655.81" type="line" smooth="yes"/>
      <point x="413.04" y="763.735"/>
      <point x="347.87" y="830.0"/>
      <point x="234.55" y="830.0" type="curve" smooth="yes"/>
      <point x="166.15" y="830.0" type="line"/>
      <point x="148.3" y="714.9" type="line"/>
      <point x="199.15" y="714.9" type="line" smooth="yes"/>
      <point x="247.525" y="714.9"/>
      <point x="273.43" y="692.92"/>
      <point x="262.6" y="644.11" type="curve" smooth="yes"/>
      <point x="227.77" y="487.715" type="line" smooth="yes"/>
      <point x="209.94" y="408.905"/>
      <point x="259.545" y="357.415"/>
      <point x="352.15" y="357.415" type="curve"/>
      <point x="352.735" y="363.585" type="line"/>
      <point x="260.545" y="363.585"/>
      <point x="194.695" y="310.68"/>
      <point x="187.28" y="231.115" type="curve" smooth="yes"/>
      <point x="172.45" y="75.305" type="line" smooth="yes"/>
      <point x="167.62" y="30.589999999999996"/>
      <point x="134.055" y="4.515000000000001"/>
      <point x="86.85" y="4.515000000000001" type="curve" smooth="yes"/>
      <point x="36.0" y="4.515000000000001" type="line"/>
    </contour>
  </outline>
</glyph>
<glyph name="asciitilde" format="2">
  <advance width="600.0"/>
  <unicode hex="007E"/>
  <outline>
    <contour>
      <point x="48.45" y="255.0" type="line"/>
      <point x="153.925" y="255.0" type="line"/>
      <point x="165.51" y="327.925" type="line" smooth="yes"/>
      <point x="170.34" y="355.735"/>
      <point x="186.245" y="371.225"/>
      <point x="210.98" y="371.225" type="curve" smooth="yes"/>
      <point x="278.98" y="371.225"/>
      <point x="259.885" y="235.375"/>
      <point x="396.585" y="235.375" type="curve" smooth="yes"/>
      <point x="484.53" y="235.375"/>
      <point x="549.21" y="289.545"/>
      <point x="562.38" y="371.225" type="curve" smooth="yes"/>
      <point x="574.55" y="450.0" type="line"/>
      <point x="469.075" y="450.0" type="line"/>
      <point x="457.49" y="377.075" type="line" smooth="yes"/>
      <point x="453.245" y="349.265"/>
      <point x="437.34" y="333.775"/>
      <point x="412.605" y="333.775" type="curve" smooth="yes"/>
      <point x="344.605" y="333.775"/>
      <point x="364.115" y="469.625"/>
      <point x="227.415" y="469.625" type="curve" smooth="yes"/>
      <point x="140.055" y="469.625"/>
      <point x="74.205" y="415.87"/>
      <point x="61.205" y="333.775" type="curve" smooth="yes"/>
    </contour>
  </outline>
</glyph>
<glyph name="exclamdown" format="2">
  <advance width="600.0"/>
  <unicode hex="00A1"/>
  <outline>
    <contour>
      <point x="158.79" y="-180.0" type="line"/>
      <point x="295.21" y="-180.0" type="line"/>
      <point x="318.72" y="-34.525000000000006" type="line"/>
      <point x="352.115" y="317.865" type="line"/>
      <point x="260.035" y="317.865" type="line"/>
      <point x="182.3" y="-34.525000000000006" type="line"/>
    </contour>
    <contour>
      <point x="310.32" y="423.715" type="curve" smooth="yes"/>
      <point x="336.17" y="423.715" type="line" smooth="yes"/>
      <point x="378.68" y="423.715"/>
      <point x="411.02" y="450.47"/>
      <point x="417.605" y="490.395" type="curve" smooth="yes"/>
      <point x="423.605" y="529.905"/>
      <point x="399.435" y="555.415"/>
      <point x="356.925" y="555.415" type="curve" smooth="yes"/>
      <point x="331.66" y="555.415" type="line" smooth="yes"/>
      <point x="288.565" y="555.415"/>
      <point x="256.225" y="530.075"/>
      <point x="250.055" y="490.565" type="curve" smooth="yes"/>
      <point x="243.47" y="450.47"/>
      <point x="267.81" y="423.715"/>
    </contour>
  </outline>
</glyph>
<glyph name="sterling" format="2">
  <advance width="600.0"/>
  <unicode hex="00A3"/>
  <outline>
    <contour>
      <point x="31.0" y="0.0" type="line"/>
      <point x="491.0" y="0.0" type="line"/>
      <point x="509.265" y="115.1" type="line"/>
      <point x="139.265" y="115.1" type="line"/>
      <point x="199.625" y="132.57"/>
      <point x="284.155" y="187.7"/>
      <point x="298.155" y="274.7" type="curve" smooth="yes"/>
      <point x="323.155" y="433.7"/>
      <point x="219.21" y="447.755"/>
      <point x="233.45499999999998" y="539.47" type="curve" smooth="yes"/>
      <point x="242.115" y="593.675"/>
      <point x="287.265" y="630.75"/>
      <point x="353.565" y="630.75" type="curve" smooth="yes"/>
      <point x="416.62" y="630.75"/>
      <point x="451.185" y="591.845"/>
      <point x="445.45" y="538.3" type="curve"/>
      <point x="572.625" y="538.3" type="line"/>
      <point x="586.115" y="660.225"/>
      <point x="510.85" y="740.0"/>
      <point x="373.0" y="740.0" type="curve" smooth="yes"/>
      <point x="230.3" y="740.0"/>
      <point x="126.94" y="658.64"/>
      <point x="109.525" y="546.225" type="curve" smooth="yes"/>
      <point x="88.94" y="419.64"/>
      <point x="204.17" y="403.85"/>
      <point x="181.755" y="265.7" type="curve" smooth="yes"/>
      <point x="173.755" y="215.7"/>
      <point x="104.095" y="162.155"/>
      <point x="52.265" y="135.1" type="curve"/>
    </contour>
    <contour>
      <point x="71.395" y="293.3" type="line"/>
      <point x="437.245" y="293.3" type="line"/>
      <point x="453.755" y="396.7" type="line"/>
      <point x="87.905" y="396.7" type="line"/>
    </contour>
  </outline>
</glyph>
<glyph name="currency" format="2">
  <advance width="600.0"/>
  <unicode hex="00A4"/>
  <outline>
    <contour>
      <point x="469.245" y="111.245" type="line"/>
      <point x="546.095" y="176.34" type="line"/>
      <point x="436.395" y="305.21" type="line"/>
      <point x="448.32" y="236.32" type="line"/>
      <point x="485.245" y="273.49"/>
      <point x="511.585" y="320.245"/>
      <point x="520.0" y="373.0" type="curve" smooth="yes"/>
      <point x="529.0" y="425.755"/>
      <point x="517.83" y="474.095"/>
      <point x="492.075" y="509.51" type="curve"/>
      <point x="466.055" y="441.375" type="line"/>
      <point x="605.34" y="562.075" type="line"/>
      <point x="547.245" y="630.34" type="line"/>
      <point x="407.545" y="508.81" type="line"/>
      <point x="480.02" y="523.905" type="line"/>
      <point x="446.51" y="556.245"/>
      <point x="402.925" y="575.0"/>
      <point x="348.0" y="575.0" type="curve" smooth="yes"/>
      <point x="296.075" y="575.0"/>
      <point x="245.565" y="557.075"/>
      <point x="208.565" y="528.32" type="curve"/>
      <point x="272.115" y="504.3" type="line"/>
      <point x="162.17" y="635.585" type="line"/>
      <point x="85.905" y="569.905" type="line"/>
      <point x="194.435" y="440.035" type="line"/>
      <point x="184.51" y="508.34" type="line"/>
      <point x="144.755" y="472.925"/>
      <point x="118.415" y="426.17"/>
      <point x="110.0" y="373.0" type="curve" smooth="yes"/>
      <point x="101.585" y="318.66"/>
      <point x="114.17" y="269.32"/>
      <point x="142.095" y="234.565" type="curve"/>
      <point x="166.115" y="302.285" type="line"/>
      <point x="26.66" y="180.755" type="line"/>
      <point x="83.755" y="111.66" type="line"/>
      <point x="226.625" y="234.36" type="line"/>
      <point x="155.15" y="220.095" type="line"/>
      <point x="186.32" y="188.17"/>
      <point x="231.245" y="171.0"/>
      <point x="284.0" y="171.0" type="curve" smooth="yes"/>
      <point x="335.34" y="171.0"/>
      <point x="386.265" y="187.755"/>
      <point x="423.265" y="218.51" type="curve"/>
      <point x="359.13" y="240.945" type="line"/>
    </contour>
    <contour>
      <point x="297.34" y="255.21" type="curve" smooth="yes"/>
      <point x="231.115" y="255.21"/>
      <point x="188.38" y="305.775"/>
      <point x="199.21" y="373.0" type="curve" smooth="yes"/>
      <point x="210.04" y="440.225"/>
      <point x="268.435" y="490.79"/>
      <point x="334.66" y="490.79" type="curve" smooth="yes"/>
      <point x="399.885" y="490.79"/>
      <point x="441.62" y="440.225"/>
      <point x="430.79" y="373.0" type="curve" smooth="yes"/>
      <point x="419.96" y="305.775"/>
      <point x="362.565" y="255.21"/>
    </contour>
  </outline>
</glyph>
<glyph name="yen" format="2">
  <advance width="600.0"/>
  <unicode hex="00A5"/>
  <anchor x="256.0" y="0.0" name="bottom"/>
  <anchor x="372.0" y="730.0" name="top"/>
  <anchor x="92.0" y="730.0" name="topleft"/>
  <outline>
    <contour>
      <point x="57.83" y="264.15" type="line"/>
      <point x="537.83" y="264.15" type="line"/>
      <point x="552.755" y="356.7" type="line"/>
      <point x="72.755" y="356.7" type="line"/>
    </contour>
    <contour>
      <point x="33.245" y="108.3" type="line"/>
      <point x="513.245" y="108.3" type="line"/>
      <point x="527.585" y="200.85" type="line"/>
      <point x="47.585" y="200.85" type="line"/>
    </contour>
    <component base="Y"/>
  </outline>
</glyph>
<glyph name="brokenbar" format="2">
  <advance width="600.0"/>
  <unicode hex="00A6"/>
  <outline>
    <contour>
      <point x="264.45" y="450.0" type="line"/>
      <point x="389.55" y="450.0" type="line"/>
      <point x="449.55" y="830.0" type="line"/>
      <point x="324.45" y="830.0" type="line"/>
    </contour>
    <contour>
      <point x="176.45" y="-110.0" type="line"/>
      <point x="301.55" y="-110.0" type="line"/>
      <point x="361.55" y="270.0" type="line"/>
      <point x="236.45" y="270.0" type="line"/>
    </contour>
  </outline>
</glyph>
<glyph name="section" format="2">
  <advance width="600.0"/>
  <unicode hex="00A7"/>
  <outline>
    <contour>
      <point x="215.83" y="-154.585" type="curve" smooth="yes"/>
      <point x="245.83" y="-154.585" type="line" smooth="yes"/>
      <point x="389.7" y="-154.585"/>
      <point x="483.72" y="-88.415"/>
      <point x="500.305" y="17.34" type="curve" smooth="yes"/>
      <point x="516.72" y="117.585"/>
      <point x="443.965" y="163.51"/>
      <point x="385.795" y="170.02" type="curve"/>
      <point x="386.795" y="177.02" type="line"/>
      <point x="473.815" y="181.115"/>
      <point x="534.475" y="234.51"/>
      <point x="546.475" y="311.51" type="curve" smooth="yes"/>
      <point x="559.475" y="392.51"/>
      <point x="506.38" y="455.85"/>
      <point x="401.51" y="478.775" type="curve" smooth="yes"/>
      <point x="306.905" y="499.53" type="line" smooth="yes"/>
      <point x="256.51" y="510.775"/>
      <point x="233.115" y="537.34"/>
      <point x="238.945" y="573.32" type="curve" smooth="yes"/>
      <point x="245.36" y="614.545"/>
      <point x="282.585" y="641.28"/>
      <point x="343.565" y="641.28" type="curve" smooth="yes"/>
      <point x="373.565" y="641.28" type="line" smooth="yes"/>
      <point x="422.64" y="641.28"/>
      <point x="453.375" y="619.375"/>
      <point x="456.205" y="590.905" type="curve"/>
      <point x="583.38" y="590.905" type="line"/>
      <point x="585.135" y="683.755"/>
      <point x="512.21" y="740.0"/>
      <point x="389.075" y="740.0" type="curve" smooth="yes"/>
      <point x="359.075" y="740.0" type="line" smooth="yes"/>
      <point x="222.96" y="740.0"/>
      <point x="132.525" y="674.66"/>
      <point x="116.355" y="571.395" type="curve" smooth="yes"/>
      <point x="100.525" y="474.17"/>
      <point x="169.62" y="427.98"/>
      <point x="226.54500000000002" y="420.79" type="curve"/>
      <point x="225.54500000000002" y="413.79" type="line"/>
      <point x="140.6" y="406.205"/>
      <point x="79.695" y="353.98"/>
      <point x="67.695" y="276.81" type="curve" smooth="yes"/>
      <point x="55.11" y="197.64"/>
      <point x="110.375" y="136.15"/>
      <point x="212.075" y="114.64" type="curve" smooth="yes"/>
      <point x="301.66" y="95.055" type="line" smooth="yes"/>
      <point x="359.81" y="82.225"/>
      <point x="384.545" y="57.075"/>
      <point x="378.3" y="18.435" type="curve" smooth="yes"/>
      <point x="370.885" y="-25.96"/>
      <point x="327.98" y="-55.865"/>
      <point x="261.34" y="-55.865" type="curve" smooth="yes"/>
      <point x="231.34" y="-55.865" type="line" smooth="yes"/>
      <point x="181.775" y="-55.865"/>
      <point x="145.87" y="-32.885000000000005"/>
      <point x="141.45499999999998" y="1.17" type="curve"/>
      <point x="14.280000000000001" y="1.17" type="line"/>
      <point x="12.525000000000002" y="-95.51"/>
      <point x="88.695" y="-154.585"/>
    </contour>
    <contour>
      <point x="307.98" y="197.87" type="curve" smooth="yes"/>
      <point x="246.68" y="210.53" type="line" smooth="yes"/>
      <point x="207.53" y="218.36"/>
      <point x="186.04" y="254.85"/>
      <point x="193.87" y="302.34" type="curve" smooth="yes"/>
      <point x="203.87" y="366.245"/>
      <point x="247.435" y="407.545"/>
      <point x="300.34" y="396.13" type="curve" smooth="yes"/>
      <point x="360.81" y="382.885" type="line" smooth="yes"/>
      <point x="403.885" y="373.47"/>
      <point x="427.545" y="337.225"/>
      <point x="420.715" y="292.565" type="curve" smooth="yes"/>
      <point x="410.3" y="228.0"/>
      <point x="364.395" y="185.87"/>
    </contour>
  </outline>
</glyph>
<glyph name="copyright" format="2">
  <advance width="600.0"/>
  <unicode hex="00A9"/>
  <outline>
    <contour>
      <point x="273.0" y="110.0" type="curve" smooth="yes"/>
      <point x="426.0" y="110.0"/>
      <point x="544.0" y="206.0"/>
      <point x="566.0" y="350.0" type="curve" smooth="yes"/>
      <point x="590.0" y="500.0" type="line" smooth="yes"/>
      <point x="613.0" y="644.0"/>
      <point x="526.0" y="740.0"/>
      <point x="373.0" y="740.0" type="curve" smooth="yes"/>
      <point x="220.0" y="740.0"/>
      <point x="103.0" y="644.0"/>
      <point x="80.0" y="500.0" type="curve" smooth="yes"/>
      <point x="56.0" y="350.0" type="line" smooth="yes"/>
      <point x="34.0" y="206.0"/>
      <point x="120.0" y="110.0"/>
    </contour>
    <contour>
      <point x="281.0" y="160.0" type="curve" smooth="yes"/>
      <point x="162.0" y="160.0"/>
      <point x="93.0" y="236.0"/>
      <point x="111.0" y="350.0" type="curve" smooth="yes"/>
      <point x="135.0" y="500.0" type="line" smooth="yes"/>
      <point x="153.0" y="614.0"/>
      <point x="246.0" y="690.0"/>
      <point x="365.0" y="690.0" type="curve" smooth="yes"/>
      <point x="485.0" y="690.0"/>
      <point x="553.0" y="614.0"/>
      <point x="535.0" y="500.0" type="curve" smooth="yes"/>
      <point x="511.0" y="350.0" type="line" smooth="yes"/>
      <point x="493.0" y="236.0"/>
      <point x="401.0" y="160.0"/>
    </contour>
    <contour>
      <point x="300.0" y="245.0" type="curve" smooth="yes"/>
      <point x="377.51" y="245.0"/>
      <point x="437.435" y="293.34"/>
      <point x="449.02" y="365.85" type="curve"/>
      <point x="372.32" y="365.85" type="line"/>
      <point x="366.905" y="333.36"/>
      <point x="342.245" y="311.7"/>
      <point x="310.755" y="311.7" type="curve" smooth="yes"/>
      <point x="278.265" y="311.7"/>
      <point x="259.605" y="333.36"/>
      <point x="265.02" y="365.85" type="curve" smooth="yes"/>
      <point x="283.68" y="484.15" type="line" smooth="yes"/>
      <point x="288.68" y="516.64"/>
      <point x="313.755" y="538.3"/>
      <point x="346.245" y="538.3" type="curve" smooth="yes"/>
      <point x="377.735" y="538.3"/>
      <point x="395.98" y="516.64"/>
      <point x="390.98" y="484.15" type="curve"/>
      <point x="467.68" y="484.15" type="line"/>
      <point x="479.265" y="556.66"/>
      <point x="434.51" y="605.0"/>
      <point x="357.0" y="605.0" type="curve" smooth="yes"/>
      <point x="278.49" y="605.0"/>
      <point x="218.565" y="556.66"/>
      <point x="206.98" y="484.15" type="curve" smooth="yes"/>
      <point x="188.32" y="365.85" type="line" smooth="yes"/>
      <point x="176.735" y="293.34"/>
      <point x="221.49" y="245.0"/>
    </contour>
  </outline>
</glyph>
<glyph name="ordfeminine" format="2">
  <advance width="600.0"/>
  <unicode hex="00AA"/>
  <outline>
    <contour>
      <point x="389.3" y="455.0" type="line"/>
      <point x="453.85" y="455.0" type="line"/>
      <point x="484.85" y="650.0" type="line" smooth="yes"/>
      <point x="493.85" y="704.83"/>
      <point x="451.34" y="740.0"/>
      <point x="378.0" y="740.0" type="curve" smooth="yes"/>
      <point x="312.585" y="740.0"/>
      <point x="261.32" y="708.075"/>
      <point x="244.565" y="657.075" type="curve"/>
      <point x="312.115" y="657.075" type="line"/>
      <point x="317.36" y="675.81"/>
      <point x="341.095" y="688.3"/>
      <point x="370.245" y="688.3" type="curve" smooth="yes"/>
      <point x="402.64" y="688.3"/>
      <point x="421.13" y="673.395"/>
      <point x="417.3" y="650.0" type="curve" smooth="yes"/>
      <point x="395.3" y="510.0" type="line"/>
      <point x="398.3" y="510.0" type="line"/>
    </contour>
    <contour>
      <point x="295.15" y="450.0" type="curve" smooth="yes"/>
      <point x="337.055" y="450.0"/>
      <point x="374.715" y="472.415"/>
      <point x="395.3" y="510.0" type="curve"/>
      <point x="406.3" y="510.0" type="line"/>
      <point x="413.3" y="555.0" type="line"/>
      <point x="402.3" y="555.0" type="line"/>
      <point x="396.47" y="520.02"/>
      <point x="364.98" y="497.945"/>
      <point x="321.755" y="497.945" type="curve" smooth="yes"/>
      <point x="291.945" y="497.945"/>
      <point x="273.87" y="514.19"/>
      <point x="278.285" y="538.34" type="curve" smooth="yes"/>
      <point x="281.7" y="562.83"/>
      <point x="300.605" y="577.49"/>
      <point x="327.415" y="577.49" type="curve" smooth="yes"/>
      <point x="416.715" y="577.49" type="line"/>
      <point x="423.885" y="623.34" type="line"/>
      <point x="334.585" y="623.34" type="line" smooth="yes"/>
      <point x="267.245" y="623.34"/>
      <point x="218.15" y="589.17"/>
      <point x="210.15" y="537.17" type="curve" smooth="yes"/>
      <point x="202.15" y="484.585"/>
      <point x="235.735" y="450.0"/>
    </contour>
  </outline>
</glyph>
<glyph name="guillemetleft" format="2">
  <advance width="600.0"/>
  <unicode hex="00AB"/>
  <outline>
    <contour>
      <point x="405.355" y="40.0" type="line"/>
      <point x="536.19" y="40.0" type="line"/>
      <point x="396.005" y="275.245" type="line"/>
      <point x="621.36" y="520.0" type="line"/>
      <point x="482.11" y="520.0" type="line"/>
      <point x="264.17" y="280.0" type="line"/>
    </contour>
    <contour>
      <point x="162.41" y="40.0" type="line"/>
      <point x="293.245" y="40.0" type="line"/>
      <point x="153.06" y="275.245" type="line"/>
      <point x="378.415" y="520.0" type="line"/>
      <point x="239.165" y="520.0" type="line"/>
      <point x="21.225" y="280.0" type="line"/>
    </contour>
  </outline>
</glyph>
<glyph name="logicalnot" format="2">
  <advance width="600.0"/>
  <unicode hex="00AC"/>
  <outline>
    <contour>
      <point x="392.635" y="187.45" type="line"/>
      <point x="515.66" y="187.45" type="line"/>
      <point x="554.925" y="435.475" type="line"/>
      <point x="94.925" y="435.475" type="line"/>
      <point x="76.66" y="320.375" type="line"/>
      <point x="413.635" y="320.375" type="line"/>
    </contour>
  </outline>
</glyph>
<glyph name="registered" format="2">
  <advance width="600.0"/>
  <unicode hex="00AE"/>
  <outline>
    <contour>
      <point x="273.0" y="110.0" type="curve" smooth="yes"/>
      <point x="426.0" y="110.0"/>
      <point x="543.0" y="206.0"/>
      <point x="566.0" y="350.0" type="curve" smooth="yes"/>
      <point x="590.0" y="500.0" type="line" smooth="yes"/>
      <point x="613.0" y="644.0"/>
      <point x="526.0" y="740.0"/>
      <point x="373.0" y="740.0" type="curve" smooth="yes"/>
      <point x="220.0" y="740.0"/>
      <point x="103.0" y="644.0"/>
      <point x="80.0" y="500.0" type="curve" smooth="yes"/>
      <point x="56.0" y="350.0" type="line" smooth="yes"/>
      <point x="33.0" y="206.0"/>
      <point x="120.0" y="110.0"/>
    </contour>
    <contour>
      <point x="281.0" y="160.0" type="curve" smooth="yes"/>
      <point x="162.0" y="160.0"/>
      <point x="93.0" y="236.0"/>
      <point x="111.0" y="350.0" type="curve" smooth="yes"/>
      <point x="135.0" y="500.0" type="line" smooth="yes"/>
      <point x="153.0" y="614.0"/>
      <point x="246.0" y="690.0"/>
      <point x="365.0" y="690.0" type="curve" smooth="yes"/>
      <point x="485.0" y="690.0"/>
      <point x="553.0" y="614.0"/>
      <point x="535.0" y="500.0" type="curve" smooth="yes"/>
      <point x="511.0" y="350.0" type="line" smooth="yes"/>
      <point x="493.0" y="236.0"/>
      <point x="401.0" y="160.0"/>
    </contour>
    <contour>
      <point x="180.15" y="250.0" type="line"/>
      <point x="251.85" y="250.0" type="line"/>
      <point x="273.265" y="387.075" type="line"/>
      <point x="319.075" y="387.075" type="line"/>
      <point x="354.735" y="250.0" type="line"/>
      <point x="428.85" y="250.0" type="line"/>
      <point x="377.19" y="431.81" type="line"/>
      <point x="350.66" y="389.49" type="line"/>
      <point x="409.17" y="398.32"/>
      <point x="451.265" y="435.32"/>
      <point x="460.85" y="492.075" type="curve" smooth="yes"/>
      <point x="471.265" y="557.245"/>
      <point x="429.34" y="600.0"/>
      <point x="355.0" y="600.0" type="curve" smooth="yes"/>
      <point x="235.15" y="600.0" type="line"/>
    </contour>
    <contour>
      <point x="282.435" y="445.85" type="line"/>
      <point x="298.265" y="544.15" type="line"/>
      <point x="346.415" y="544.15" type="line" smooth="yes"/>
      <point x="377.32" y="544.15"/>
      <point x="393.565" y="525.32"/>
      <point x="388.15" y="495.0" type="curve" smooth="yes"/>
      <point x="383.735" y="464.68"/>
      <point x="361.49" y="445.85"/>
      <point x="330.585" y="445.85" type="curve" smooth="yes"/>
    </contour>
  </outline>
</glyph>
<glyph name="degree" format="2">
  <advance width="600.0"/>
  <unicode hex="00B0"/>
  <outline>
    <contour>
      <point x="327.0" y="450.0" type="curve" smooth="yes"/>
      <point x="417.0" y="450.0"/>
      <point x="486.0" y="508.0"/>
      <point x="500.0" y="595.0" type="curve" smooth="yes"/>
      <point x="514.0" y="682.0"/>
      <point x="463.0" y="740.0"/>
      <point x="373.0" y="740.0" type="curve" smooth="yes"/>
      <point x="283.0" y="740.0"/>
      <point x="214.0" y="682.0"/>
      <point x="200.0" y="595.0" type="curve" smooth="yes"/>
      <point x="186.0" y="508.0"/>
      <point x="237.0" y="450.0"/>
    </contour>
    <contour>
      <point x="336.34" y="509.19" type="curve" smooth="yes"/>
      <point x="288.02" y="509.19"/>
      <point x="260.945" y="543.68"/>
      <point x="268.775" y="595.0" type="curve" smooth="yes"/>
      <point x="277.19" y="646.735"/>
      <point x="315.095" y="681.225"/>
      <point x="363.415" y="681.225" type="curve" smooth="yes"/>
      <point x="412.565" y="681.225"/>
      <point x="439.64" y="646.735"/>
      <point x="431.225" y="595.0" type="curve" smooth="yes"/>
      <point x="423.395" y="543.68"/>
      <point x="385.49" y="509.19"/>
    </contour>
  </outline>
</glyph>
<glyph name="plusminus" format="2">
  <advance width="600.0"/>
  <unicode hex="00B1"/>
  <outline>
    <contour>
      <point x="23.075" y="0.0" type="line"/>
      <point x="488.925" y="0.0" type="line"/>
      <point x="504.02" y="93.985" type="line"/>
      <point x="336.155" y="93.985" type="line"/>
      <point x="364.55" y="274.525" type="line"/>
      <point x="543.265" y="274.525" type="line"/>
      <point x="561.115" y="389.625" type="line"/>
      <point x="382.4" y="389.625" type="line"/>
      <point x="411.06" y="570.0" type="line"/>
      <point x="286.79" y="570.0" type="line"/>
      <point x="258.13" y="389.625" type="line"/>
      <point x="79.415" y="389.625" type="line"/>
      <point x="61.565" y="274.525" type="line"/>
      <point x="240.28" y="274.525" type="line"/>
      <point x="211.885" y="93.985" type="line"/>
      <point x="38.17" y="93.985" type="line"/>
    </contour>
  </outline>
</glyph>
<glyph name="twosuperior" format="2">
  <advance width="600.0"/>
  <unicode hex="00B2"/>
  <outline>
    <contour>
      <point x="178.395" y="405.0" type="line"/>
      <point x="482.605" y="405.0" type="line"/>
      <point x="494.36" y="480.115" type="line"/>
      <point x="286.72" y="480.115" type="line"/>
      <point x="415.095" y="556.32" type="line" smooth="yes"/>
      <point x="475.36" y="591.735"/>
      <point x="512.36" y="641.64"/>
      <point x="520.945" y="696.245" type="curve" smooth="yes"/>
      <point x="534.53" y="783.83"/>
      <point x="483.435" y="840.0"/>
      <point x="389.34" y="840.0" type="curve" smooth="yes"/>
      <point x="296.905" y="840.0"/>
      <point x="227.395" y="783.415"/>
      <point x="211.735" y="694.83" type="curve"/>
      <point x="296.36" y="694.83" type="line"/>
      <point x="303.19" y="738.395"/>
      <point x="335.265" y="765.885"/>
      <point x="377.585" y="765.885" type="curve" smooth="yes"/>
      <point x="419.905" y="765.885"/>
      <point x="443.15" y="738.395"/>
      <point x="436.32" y="694.83" type="curve" smooth="yes"/>
      <point x="431.32" y="665.415"/>
      <point x="410.075" y="634.585"/>
      <point x="381.0" y="616.51" type="curve" smooth="yes"/>
      <point x="193.565" y="497.85" type="line"/>
    </contour>
  </outline>
</glyph>
<glyph name="threesuperior" format="2">
  <advance width="600.0"/>
  <unicode hex="00B3"/>
  <outline>
    <contour>
      <point x="303.0" y="395.0" type="curve" smooth="yes"/>
      <point x="396.925" y="395.0"/>
      <point x="466.605" y="450.17"/>
      <point x="481.19" y="539.095" type="curve" smooth="yes"/>
      <point x="494.19" y="619.925"/>
      <point x="445.605" y="671.925"/>
      <point x="360.53" y="671.925" type="curve"/>
      <point x="355.36" y="636.66" type="line"/>
      <point x="485.85" y="746.395" type="line"/>
      <point x="499.435" y="830.415" type="line"/>
      <point x="245.395" y="830.415" type="line"/>
      <point x="233.225" y="755.3" type="line"/>
      <point x="411.47" y="755.3" type="line"/>
      <point x="318.0" y="676.245" type="line"/>
      <point x="307.415" y="609.83" type="line"/>
      <point x="337.415" y="609.83" type="line" smooth="yes"/>
      <point x="379.905" y="609.83"/>
      <point x="402.15" y="583.17"/>
      <point x="395.735" y="539.095" type="curve" smooth="yes"/>
      <point x="388.32" y="493.85"/>
      <point x="358.245" y="469.115"/>
      <point x="314.755" y="469.115" type="curve" smooth="yes"/>
      <point x="269.85" y="469.115"/>
      <point x="245.02" y="493.85"/>
      <point x="252.435" y="537.925" type="curve"/>
      <point x="168.225" y="537.925" type="line"/>
      <point x="153.64" y="450.17"/>
      <point x="207.905" y="395.0"/>
    </contour>
  </outline>
</glyph>
<glyph name="paragraph" format="2">
  <advance width="600.0"/>
  <unicode hex="00B6"/>
  <outline>
    <contour>
      <point x="173.225" y="-180.0" type="line"/>
      <point x="270.775" y="-180.0" type="line"/>
      <point x="415.775" y="730.0" type="line"/>
      <point x="318.225" y="730.0" type="line" smooth="yes"/>
      <point x="204.225" y="730.0"/>
      <point x="117.225" y="662.0"/>
      <point x="101.225" y="560.0" type="curve" smooth="yes"/>
      <point x="88.225" y="480.0" type="line" smooth="yes"/>
      <point x="72.225" y="378.0"/>
      <point x="137.225" y="310.0"/>
      <point x="251.225" y="310.0" type="curve"/>
    </contour>
    <contour>
      <point x="349.075" y="-180.0" type="line"/>
      <point x="446.625" y="-180.0" type="line"/>
      <point x="591.625" y="730.0" type="line"/>
      <point x="494.075" y="730.0" type="line"/>
    </contour>
  </outline>
</glyph>
<glyph name="onesuperior" format="2">
  <advance width="600.0"/>
  <unicode hex="00B9"/>
  <outline>
    <contour>
      <point x="169.15" y="405.0" type="line"/>
      <point x="488.775" y="405.0" type="line"/>
      <point x="501.115" y="481.285" type="line"/>
      <point x="398.285" y="481.285" type="line"/>
      <point x="452.945" y="830.0" type="line"/>
      <point x="343.32" y="830.0" type="line"/>
      <point x="234.15" y="757.245" type="line"/>
      <point x="219.81" y="667.13" type="line"/>
      <point x="356.565" y="755.3" type="line"/>
      <point x="313.66" y="481.285" type="line"/>
      <point x="181.49" y="481.285" type="line"/>
    </contour>
  </outline>
</glyph>
<glyph name="ordmasculine" format="2">
  <advance width="600.0"/>
  <unicode hex="00BA"/>
  <outline>
    <contour>
      <point x="326.585" y="447.925" type="curve" smooth="yes"/>
      <point x="402.605" y="447.925"/>
      <point x="461.455" y="495.775"/>
      <point x="471.455" y="562.285" type="curve" smooth="yes"/>
      <point x="481.53" y="624.15" type="line" smooth="yes"/>
      <point x="492.7" y="692.415"/>
      <point x="448.605" y="737.925"/>
      <point x="372.585" y="737.925" type="curve" smooth="yes"/>
      <point x="296.565" y="737.925"/>
      <point x="239.3" y="692.415"/>
      <point x="228.13" y="624.15" type="curve" smooth="yes"/>
      <point x="218.055" y="562.285" type="line" smooth="yes"/>
      <point x="208.055" y="495.775"/>
      <point x="250.565" y="447.925"/>
    </contour>
    <contour>
      <point x="335.925" y="505.475" type="curve" smooth="yes"/>
      <point x="300.435" y="505.475"/>
      <point x="280.775" y="527.965"/>
      <point x="285.605" y="562.285" type="curve" smooth="yes"/>
      <point x="295.68" y="624.15" type="line" smooth="yes"/>
      <point x="301.095" y="657.885"/>
      <point x="328.17" y="680.375"/>
      <point x="363.66" y="680.375" type="curve" smooth="yes"/>
      <point x="399.15" y="680.375"/>
      <point x="419.395" y="657.885"/>
      <point x="413.98" y="624.15" type="curve" smooth="yes"/>
      <point x="403.905" y="562.285" type="line" smooth="yes"/>
      <point x="399.075" y="527.965"/>
      <point x="371.415" y="505.475"/>
    </contour>
  </outline>
</glyph>
<glyph name="guillemetright" format="2">
  <advance width="600.0"/>
  <unicode hex="00BB"/>
  <outline>
    <contour>
      <point x="222.0" y="40.0" type="line"/>
      <point x="360.835" y="40.0" type="line"/>
      <point x="578.775" y="280.0" type="line"/>
      <point x="437.59" y="520.0" type="line"/>
      <point x="306.755" y="520.0" type="line"/>
      <point x="445.355" y="286.585" type="line"/>
    </contour>
    <contour>
      <point x="-20.945" y="40.0" type="line"/>
      <point x="117.89" y="40.0" type="line"/>
      <point x="335.83" y="280.0" type="line"/>
      <point x="194.645" y="520.0" type="line"/>
      <point x="63.81" y="520.0" type="line"/>
      <point x="202.41" y="286.585" type="line"/>
    </contour>
  </outline>
</glyph>
<glyph name="onequarter" format="2">
  <advance width="600.0"/>
  <unicode hex="00BC"/>
  <outline>
    <contour>
      <point x="54.095" y="404.415" type="line"/>
      <point x="340.21" y="404.415" type="line"/>
      <point x="350.55" y="469.04" type="line"/>
      <point x="257.645" y="469.04" type="line"/>
      <point x="298.72" y="729.415" type="line"/>
      <point x="196.17" y="729.415" type="line"/>
      <point x="114.415" y="672.51" type="line"/>
      <point x="100.49" y="586.13" type="line"/>
      <point x="169.905" y="636.035" type="line" smooth="yes"/>
      <point x="186.905" y="648.45"/>
      <point x="204.245" y="666.205"/>
      <point x="213.0" y="676.96" type="curve"/>
      <point x="180.095" y="469.04" type="line"/>
      <point x="64.435" y="469.04" type="line"/>
    </contour>
    <contour>
      <point x="423.715" y="0.0" type="line"/>
      <point x="501.265" y="0.0" type="line"/>
      <point x="533.68" y="206.66" type="line"/>
      <point x="456.13" y="206.66" type="line"/>
      <point x="443.885" y="125.85" type="line"/>
      <point x="352.285" y="125.85" type="line"/>
      <point x="354.7" y="141.85" type="line"/>
      <point x="518.115" y="325.0" type="line"/>
      <point x="431.565" y="325.0" type="line"/>
      <point x="279.15" y="155.85" type="line"/>
      <point x="264.98" y="64.15" type="line"/>
      <point x="434.13" y="64.15" type="line"/>
    </contour>
    <component base="fraction"/>
  </outline>
</glyph>
<glyph name="onehalf" format="2">
  <advance width="600.0"/>
  <unicode hex="00BD"/>
  <outline>
    <contour>
      <point x="268.075" y="0.0" type="line"/>
      <point x="534.775" y="0.0" type="line"/>
      <point x="545.115" y="64.625" type="line"/>
      <point x="441.38" y="64.625" type="line" smooth="yes"/>
      <point x="418.815" y="64.625"/>
      <point x="389.155" y="60.795"/>
      <point x="374.155" y="58.379999999999995" type="curve"/>
      <point x="375.74" y="67.795" type="line"/>
      <point x="453.925" y="107.51" type="line" smooth="yes"/>
      <point x="520.945" y="140.85"/>
      <point x="558.36" y="178.755"/>
      <point x="565.36" y="223.265" type="curve" smooth="yes"/>
      <point x="575.36" y="287.34"/>
      <point x="530.02" y="330.0"/>
      <point x="452.68" y="330.0" type="curve" smooth="yes"/>
      <point x="375.415" y="330.0"/>
      <point x="314.32" y="283.83"/>
      <point x="302.075" y="216.0" type="curve"/>
      <point x="379.625" y="216.0" type="line"/>
      <point x="384.455" y="247.395"/>
      <point x="409.775" y="268.3"/>
      <point x="442.925" y="268.3" type="curve" smooth="yes"/>
      <point x="473.735" y="268.3"/>
      <point x="491.64" y="248.565"/>
      <point x="486.81" y="217.755" type="curve" smooth="yes"/>
      <point x="483.395" y="194.02"/>
      <point x="463.585" y="174.04"/>
      <point x="426.04" y="154.06" type="curve" smooth="yes"/>
      <point x="280.415" y="78.625" type="line"/>
    </contour>
    <contour>
      <point x="54.095" y="405.0" type="line"/>
      <point x="344.36" y="405.0" type="line"/>
      <point x="354.7" y="469.625" type="line"/>
      <point x="257.645" y="469.625" type="line"/>
      <point x="299.305" y="730.0" type="line"/>
      <point x="196.755" y="730.0" type="line"/>
      <point x="114.415" y="673.095" type="line"/>
      <point x="101.075" y="586.715" type="line"/>
      <point x="169.905" y="636.62" type="line" smooth="yes"/>
      <point x="186.905" y="649.035"/>
      <point x="204.245" y="666.79"/>
      <point x="213.0" y="677.545" type="curve"/>
      <point x="180.095" y="469.625" type="line"/>
      <point x="64.435" y="469.625" type="line"/>
    </contour>
    <component base="fraction"/>
  </outline>
</glyph>
<glyph name="threequarters" format="2">
  <advance width="600.0"/>
  <unicode hex="00BE"/>
  <outline>
    <contour>
      <point x="423.715" y="0.0" type="line"/>
      <point x="501.265" y="0.0" type="line"/>
      <point x="533.68" y="206.66" type="line"/>
      <point x="456.13" y="206.66" type="line"/>
      <point x="443.885" y="125.85" type="line"/>
      <point x="352.285" y="125.85" type="line"/>
      <point x="354.7" y="141.85" type="line"/>
      <point x="518.115" y="325.0" type="line"/>
      <point x="431.565" y="325.0" type="line"/>
      <point x="279.15" y="155.85" type="line"/>
      <point x="264.98" y="64.15" type="line"/>
      <point x="434.13" y="64.15" type="line"/>
    </contour>
    <contour>
      <point x="173.585" y="400.0" type="curve" smooth="yes"/>
      <point x="253.095" y="400.0"/>
      <point x="312.85" y="443.17"/>
      <point x="323.435" y="507.925" type="curve" smooth="yes"/>
      <point x="332.85" y="569.17"/>
      <point x="292.19" y="610.0"/>
      <point x="221.53" y="610.0" type="curve"/>
      <point x="217.945" y="590.83" type="line"/>
      <point x="333.85" y="670.905" type="line"/>
      <point x="343.435" y="730.0" type="line"/>
      <point x="116.735" y="730.0" type="line"/>
      <point x="106.98" y="671.225" type="line"/>
      <point x="257.715" y="671.225" type="line"/>
      <point x="179.585" y="616.415" type="line"/>
      <point x="169.415" y="554.15" type="line"/>
      <point x="199.415" y="554.15" type="line" smooth="yes"/>
      <point x="231.395" y="554.15"/>
      <point x="250.3" y="535.66"/>
      <point x="245.885" y="507.925" type="curve" smooth="yes"/>
      <point x="241.47" y="480.19"/>
      <point x="216.32" y="461.7"/>
      <point x="183.34" y="461.7" type="curve" smooth="yes"/>
      <point x="149.36" y="461.7"/>
      <point x="130.45499999999998" y="479.02"/>
      <point x="134.285" y="505.0" type="curve"/>
      <point x="56.735" y="505.0" type="line"/>
      <point x="46.735" y="442.0"/>
      <point x="93.075" y="400.0"/>
    </contour>
    <component base="fraction"/>
  </outline>
</glyph>
<glyph name="questiondown" format="2">
  <advance width="600.0"/>
  <unicode hex="00BF"/>
  <outline>
    <contour>
      <point x="263.15" y="-170.0" type="curve" smooth="yes"/>
      <point x="405.7" y="-170.0" type="line"/>
      <point x="424.38" y="-52.825" type="line"/>
      <point x="275.98" y="-52.825" type="line" smooth="yes"/>
      <point x="207.115" y="-52.825"/>
      <point x="170.475" y="-18.11"/>
      <point x="179.55" y="40.0" type="curve" smooth="yes"/>
      <point x="189.04" y="98.11"/>
      <point x="236.17" y="132.825"/>
      <point x="304.035" y="132.825" type="curve" smooth="yes"/>
      <point x="383.285" y="132.825" type="line"/>
      <point x="412.285" y="333.3" type="line"/>
      <point x="301.81" y="333.3" type="line"/>
      <point x="287.735" y="242.925" type="line"/>
      <point x="167.3" y="240.435"/>
      <point x="73.62" y="159.265"/>
      <point x="54.45" y="40.0" type="curve" smooth="yes"/>
      <point x="34.45" y="-87.245"/>
      <point x="116.47" y="-170.0"/>
    </contour>
    <contour>
      <point x="361.755" y="423.3" type="curve" smooth="yes"/>
      <point x="387.605" y="423.3" type="line" smooth="yes"/>
      <point x="430.115" y="423.3"/>
      <point x="462.455" y="450.055"/>
      <point x="469.04" y="489.98" type="curve" smooth="yes"/>
      <point x="474.625" y="529.49"/>
      <point x="450.87" y="555.0"/>
      <point x="408.36" y="555.0" type="curve" smooth="yes"/>
      <point x="383.095" y="555.0" type="line" smooth="yes"/>
      <point x="340.0" y="555.0"/>
      <point x="307.66" y="529.66"/>
      <point x="301.49" y="490.15" type="curve" smooth="yes"/>
      <point x="294.905" y="450.055"/>
      <point x="319.245" y="423.3"/>
    </contour>
  </outline>
</glyph>
<glyph name="AE" format="2">
  <advance width="600.0"/>
  <unicode hex="00C6"/>
  <anchor x="256.0" y="0.0" name="bottom"/>
  <anchor x="372.0" y="730.0" name="top"/>
  <outline>
    <contour>
      <point x="-31.549999999999997" y="0.0" type="line"/>
      <point x="89.87" y="0.0" type="line"/>
      <point x="150.17" y="180.77" type="line"/>
      <point x="280.055" y="180.77" type="line"/>
      <point x="251.565" y="0.0" type="line"/>
      <point x="531.85" y="0.0" type="line"/>
      <point x="548.945" y="107.74" type="line"/>
      <point x="377.475" y="107.74" type="line"/>
      <point x="410.87" y="318.695" type="line"/>
      <point x="557.34" y="318.695" type="line"/>
      <point x="575.02" y="429.36" type="line"/>
      <point x="428.55" y="429.36" type="line"/>
      <point x="459.285" y="622.845" type="line"/>
      <point x="630.755" y="622.845" type="line"/>
      <point x="647.85" y="730.0" type="line"/>
      <point x="224.77" y="730.0" type="line"/>
    </contour>
    <contour>
      <point x="180.85" y="273.32" type="line"/>
      <point x="298.565" y="622.845" type="line"/>
      <point x="350.47" y="622.845" type="line"/>
      <point x="294.98" y="273.32" type="line"/>
    </contour>
  </outline>
</glyph>
<glyph name="Ccedilla" format="2">
  <advance width="600.0"/>
  <unicode hex="00C7"/>
  <anchor x="261.0" y="0.0" name="bottom"/>
  <anchor x="377.0" y="730.0" name="top"/>
  <outline>
    <contour>
      <point x="125.81" y="-215.87" type="line"/>
      <point x="225.435" y="-215.87" type="line" smooth="yes"/>
      <point x="304.455" y="-215.87"/>
      <point x="363.72" y="-175.36"/>
      <point x="371.305" y="-127.605" type="curve" smooth="yes"/>
      <point x="380.475" y="-70.34"/>
      <point x="309.285" y="-42.17"/>
      <point x="252.605" y="-37.34" type="curve"/>
      <point x="281.85" y="20.15" type="line"/>
      <point x="215.49" y="20.15" type="line"/>
      <point x="166.075" y="-69.0" type="line"/>
      <point x="236.585" y="-69.0"/>
      <point x="274.51" y="-88.415"/>
      <point x="269.925" y="-116.095" type="curve" smooth="yes"/>
      <point x="267.51" y="-132.925"/>
      <point x="243.17" y="-152.095"/>
      <point x="211.83" y="-152.095" type="curve" smooth="yes"/>
      <point x="135.98" y="-152.095" type="line"/>
    </contour>
    <component base="C"/>
  </outline>
</glyph>
<glyph name="multiply" format="2">
  <advance width="600.0"/>
  <unicode hex="00D7"/>
  <outline>
    <contour>
      <point x="146.115" y="114.525" type="line"/>
      <point x="295.32" y="244.655" type="line"/>
      <point x="403.96" y="115.355" type="line"/>
      <point x="496.475" y="195.19" type="line"/>
      <point x="388.005" y="324.66" type="line"/>
      <point x="539.455" y="454.28" type="line"/>
      <point x="468.715" y="538.115" type="line"/>
      <point x="317.85" y="407.325" type="line"/>
      <point x="209.21" y="535.625" type="line"/>
      <point x="117.11" y="456.205" type="line"/>
      <point x="224.165" y="326.32" type="line"/>
      <point x="75.375" y="198.36" type="line"/>
    </contour>
  </outline>
</glyph>
<glyph name="Oslash" format="2">
  <advance width="600.0"/>
  <unicode hex="00D8"/>
  <anchor x="256.0" y="0.0" name="bottom"/>
  <anchor x="392.0" y="730.0" name="horn"/>
  <anchor x="372.0" y="730.0" name="top"/>
  <outline>
    <contour>
      <point x="-26.7" y="-40.0" type="line"/>
      <point x="78.02" y="-40.0" type="line"/>
      <point x="651.7" y="750.0" type="line"/>
      <point x="546.98" y="750.0" type="line"/>
    </contour>
    <contour>
      <point x="254.0" y="-10.0" type="curve" smooth="yes"/>
      <point x="394.36" y="-10.0"/>
      <point x="495.965" y="74.265"/>
      <point x="516.965" y="205.85" type="curve" smooth="yes"/>
      <point x="567.21" y="524.565" type="line" smooth="yes"/>
      <point x="587.795" y="655.735"/>
      <point x="513.36" y="740.0"/>
      <point x="373.0" y="740.0" type="curve" smooth="yes"/>
      <point x="232.64" y="740.0"/>
      <point x="131.45" y="655.735"/>
      <point x="110.45" y="524.15" type="curve" smooth="yes"/>
      <point x="60.205" y="205.85" type="line" smooth="yes"/>
      <point x="39.205" y="74.265"/>
      <point x="113.64" y="-10.0"/>
    </contour>
    <contour>
      <point x="271.68" y="99.66499999999999" type="curve" smooth="yes"/>
      <point x="203.625" y="99.66499999999999"/>
      <point x="171.72" y="137.475"/>
      <point x="182.38" y="205.85" type="curve" smooth="yes"/>
      <point x="232.625" y="524.15" type="line" smooth="yes"/>
      <point x="243.87" y="592.525"/>
      <point x="287.85" y="630.335"/>
      <point x="355.905" y="630.335" type="curve" smooth="yes"/>
      <point x="423.96" y="630.335"/>
      <point x="456.28" y="592.525"/>
      <point x="445.035" y="524.15" type="curve" smooth="yes"/>
      <point x="394.79" y="205.85" type="line" smooth="yes"/>
      <point x="384.13" y="137.475"/>
      <point x="339.735" y="99.66499999999999"/>
    </contour>
  </outline>
</glyph>
<glyph name="Thorn" format="2">
  <advance width="600.0"/>
  <unicode hex="00DE"/>
  <outline>
    <contour>
      <point x="34.3" y="0.0" type="line"/>
      <point x="159.4" y="0.0" type="line"/>
      <point x="186.645" y="171.225" type="line"/>
      <point x="320.34" y="171.225" type="line" smooth="yes"/>
      <point x="458.775" y="171.225"/>
      <point x="557.53" y="250.98"/>
      <point x="577.7" y="380.0" type="curve" smooth="yes"/>
      <point x="598.455" y="508.775"/>
      <point x="524.87" y="588.775"/>
      <point x="386.265" y="588.775" type="curve" smooth="yes"/>
      <point x="252.57" y="588.775" type="line"/>
      <point x="275.4" y="730.0" type="line"/>
      <point x="150.3" y="730.0" type="line"/>
    </contour>
    <contour>
      <point x="203.325" y="277.55" type="line"/>
      <point x="235.475" y="482.45" type="line"/>
      <point x="354.545" y="482.45" type="line" smooth="yes"/>
      <point x="425.865" y="482.45"/>
      <point x="461.6" y="444.64"/>
      <point x="451.355" y="380.0" type="curve" smooth="yes"/>
      <point x="441.11" y="315.36"/>
      <point x="394.13" y="277.55"/>
      <point x="322.395" y="277.55" type="curve" smooth="yes"/>
    </contour>
  </outline>
</glyph>
<glyph name="germandbls" format="2">
  <advance width="600.0"/>
  <unicode hex="00DF"/>
  <outline>
    <contour>
      <point x="-132.0" y="-180.0" type="line"/>
      <point x="-88.74" y="-180.0" type="line" smooth="yes"/>
      <point x="38.565" y="-180.0"/>
      <point x="127.775" y="-111.395"/>
      <point x="145.53" y="-0.10999999999999943" type="curve" smooth="yes"/>
      <point x="228.85" y="523.47" type="line" smooth="yes"/>
      <point x="239.68" y="591.11"/>
      <point x="287.83" y="632.845"/>
      <point x="354.225" y="632.845" type="curve" smooth="yes"/>
      <point x="420.79" y="632.845"/>
      <point x="456.28" y="591.94"/>
      <point x="446.035" y="524.885" type="curve" smooth="yes"/>
      <point x="436.205" y="463.245"/>
      <point x="390.395" y="421.775"/>
      <point x="326.925" y="421.775" type="curve" smooth="yes"/>
      <point x="283.17" y="421.775" type="line"/>
      <point x="267.66" y="325.055" type="line"/>
      <point x="313.415" y="325.055" type="line" smooth="yes"/>
      <point x="383.885" y="325.055"/>
      <point x="421.205" y="283.905"/>
      <point x="409.96" y="216.85" type="curve" smooth="yes"/>
      <point x="399.13" y="149.795"/>
      <point x="349.905" y="107.155"/>
      <point x="279.265" y="107.155" type="curve" smooth="yes"/>
      <point x="228.53" y="107.155" type="line"/>
      <point x="211.435" y="0.0" type="line"/>
      <point x="269.245" y="0.0" type="line" smooth="yes"/>
      <point x="409.945" y="0.0"/>
      <point x="516.965" y="84.83"/>
      <point x="536.55" y="208.585" type="curve" smooth="yes"/>
      <point x="554.55" y="323.245"/>
      <point x="485.7" y="398.245"/>
      <point x="364.85" y="396.245" type="curve"/>
      <point x="362.265" y="381.245" type="line"/>
      <point x="479.38" y="380.415"/>
      <point x="560.965" y="445.395"/>
      <point x="576.965" y="548.735" type="curve" smooth="yes"/>
      <point x="595.965" y="666.98"/>
      <point x="513.36" y="740.0"/>
      <point x="378.925" y="740.0" type="curve" smooth="yes"/>
      <point x="235.715" y="740.0"/>
      <point x="133.11" y="653.32"/>
      <point x="112.525" y="523.47" type="curve" smooth="yes"/>
      <point x="29.79" y="2.8149999999999977" type="line" smooth="yes"/>
      <point x="21.79" y="-47.260000000000005"/>
      <point x="-15.814999999999998" y="-75.77000000000001"/>
      <point x="-74.74" y="-75.77000000000001" type="curve" smooth="yes"/>
      <point x="-115.49" y="-75.77000000000001" type="line"/>
    </contour>
  </outline>
</glyph>
<glyph name="ae" format="2">
  <advance width="600.0"/>
  <unicode hex="00E6"/>
  <anchor x="343.0" y="550.0" name="top"/>
  <outline>
    <contour>
      <point x="125.17" y="-10.0" type="curve" smooth="yes"/>
      <point x="207.83" y="-10.0"/>
      <point x="253.49" y="34.245"/>
      <point x="264.49" y="67.075" type="curve"/>
      <point x="270.83" y="67.075" type="line"/>
      <point x="270.83" y="34.245"/>
      <point x="297.83" y="-10.0"/>
      <point x="374.0" y="-10.0" type="curve" smooth="yes"/>
      <point x="461.0" y="-10.0"/>
      <point x="528.585" y="48.34"/>
      <point x="542.585" y="135.85" type="curve"/>
      <point x="440.035" y="135.85" type="line"/>
      <point x="434.205" y="99.775"/>
      <point x="410.055" y="78.7"/>
      <point x="375.245" y="78.7" type="curve" smooth="yes"/>
      <point x="341.68" y="78.7"/>
      <point x="323.775" y="104.095"/>
      <point x="330.02" y="144.15" type="curve" smooth="yes"/>
      <point x="347.19" y="252.075" type="line"/>
      <point x="561.0" y="252.075" type="line"/>
      <point x="585.17" y="405.85" type="line" smooth="yes"/>
      <point x="600.0" y="499.585"/>
      <point x="553.245" y="560.0"/>
      <point x="465.0" y="560.0" type="curve" smooth="yes"/>
      <point x="389.245" y="560.0"/>
      <point x="347.415" y="515.755"/>
      <point x="337.0" y="482.925" type="curve"/>
      <point x="330.66" y="482.925" type="line"/>
      <point x="330.245" y="515.755"/>
      <point x="302.415" y="560.0"/>
      <point x="225.585" y="560.0" type="curve" smooth="yes"/>
      <point x="140.905" y="560.0"/>
      <point x="75.395" y="499.32"/>
      <point x="60.64" y="408.3" type="curve"/>
      <point x="163.19" y="408.3" type="line"/>
      <point x="169.775" y="447.47"/>
      <point x="193.68" y="471.3"/>
      <point x="227.585" y="471.3" type="curve" smooth="yes"/>
      <point x="263.055" y="471.3"/>
      <point x="277.715" y="448.81"/>
      <point x="271.055" y="405.435" type="curve" smooth="yes"/>
      <point x="258.47" y="327.925" type="line"/>
      <point x="202.605" y="327.925" type="line" smooth="yes"/>
      <point x="106.095" y="327.925"/>
      <point x="34.0" y="273.17"/>
      <point x="21.0" y="190.0" type="curve" smooth="yes"/>
      <point x="12.585" y="135.85" type="line" smooth="yes"/>
      <point x="-1.415" y="47.51"/>
      <point x="42.755" y="-10.0"/>
    </contour>
    <contour>
      <point x="164.02" y="78.7" type="curve" smooth="yes"/>
      <point x="129.285" y="78.7"/>
      <point x="111.38" y="100.36"/>
      <point x="117.21" y="135.85" type="curve" smooth="yes"/>
      <point x="125.625" y="190.0" type="line" smooth="yes"/>
      <point x="131.625" y="228.83"/>
      <point x="156.7" y="252.075"/>
      <point x="191.85" y="252.075" type="curve" smooth="yes"/>
      <point x="246.885" y="252.075" type="line"/>
      <point x="229.715" y="144.15" type="line" smooth="yes"/>
      <point x="223.47" y="104.095"/>
      <point x="198.245" y="78.7"/>
    </contour>
    <contour>
      <point x="358.775" y="327.925" type="line"/>
      <point x="371.36" y="405.85" type="line" smooth="yes"/>
      <point x="377.605" y="445.905"/>
      <point x="401.755" y="471.3"/>
      <point x="436.735" y="471.3" type="curve" smooth="yes"/>
      <point x="471.96" y="471.3"/>
      <point x="489.45" y="446.49"/>
      <point x="482.62" y="405.85" type="curve" smooth="yes"/>
      <point x="470.035" y="327.925" type="line"/>
    </contour>
  </outline>
</glyph>
<glyph name="ccedilla" format="2">
  <advance width="600.0"/>
  <unicode hex="00E7"/>
  <anchor x="259.415" y="0.0" name="_bottom"/>
  <anchor x="259.415" y="0.0" name="bottom"/>
  <anchor x="346.415" y="550.0" name="top"/>
  <outline>
    <contour>
      <point x="121.3" y="-215.87" type="line"/>
      <point x="220.925" y="-215.87" type="line" smooth="yes"/>
      <point x="299.945" y="-215.87"/>
      <point x="359.21" y="-175.36"/>
      <point x="366.795" y="-127.605" type="curve" smooth="yes"/>
      <point x="375.965" y="-70.34"/>
      <point x="304.775" y="-42.17"/>
      <point x="248.095" y="-37.34" type="curve"/>
      <point x="277.34" y="20.15" type="line"/>
      <point x="210.98" y="20.15" type="line"/>
      <point x="161.565" y="-69.0" type="line"/>
      <point x="232.075" y="-69.0"/>
      <point x="270.0" y="-88.415"/>
      <point x="265.415" y="-116.095" type="curve" smooth="yes"/>
      <point x="263.0" y="-132.925"/>
      <point x="238.66" y="-152.095"/>
      <point x="207.32" y="-152.095" type="curve" smooth="yes"/>
      <point x="131.47" y="-152.095" type="line"/>
    </contour>
    <component base="c"/>
  </outline>
</glyph>
<glyph name="eth" format="2">
  <advance width="600.0"/>
  <unicode hex="00F0"/>
  <outline>
    <contour>
      <point x="254.755" y="-4.15" type="curve" smooth="yes"/>
      <point x="405.455" y="-4.15"/>
      <point x="517.72" y="90.605"/>
      <point x="541.475" y="239.38" type="curve" smooth="yes"/>
      <point x="554.89" y="324.965"/>
      <point x="533.135" y="421.115"/>
      <point x="474.19" y="518.74" type="curve" smooth="yes"/>
      <point x="423.23" y="604.0" type="line"/>
      <point x="539.135" y="645.98" type="line"/>
      <point x="552.89" y="742.02" type="line"/>
      <point x="377.7" y="679.115" type="line"/>
      <point x="348.965" y="730.0" type="line"/>
      <point x="220.035" y="730.0" type="line"/>
      <point x="273.865" y="638.265" type="line"/>
      <point x="160.49" y="595.135" type="line"/>
      <point x="146.32" y="498.925" type="line"/>
      <point x="318.81" y="562.565" type="line"/>
      <point x="363.545" y="485.265" type="line" smooth="yes"/>
      <point x="402.075" y="419.47"/>
      <point x="413.395" y="385.395"/>
      <point x="413.885" y="377.075" type="curve"/>
      <point x="404.565" y="377.075" type="line"/>
      <point x="391.81" y="407.51"/>
      <point x="349.96" y="447.7"/>
      <point x="285.525" y="447.7" type="curve" smooth="yes"/>
      <point x="162.035" y="447.7"/>
      <point x="65.205" y="359.7"/>
      <point x="44.205" y="227.285" type="curve" smooth="yes"/>
      <point x="22.62" y="88.19"/>
      <point x="106.055" y="-4.15"/>
    </contour>
    <contour>
      <point x="271.85" y="102.175" type="curve" smooth="yes"/>
      <point x="198.21" y="102.175"/>
      <point x="157.645" y="151.4"/>
      <point x="169.305" y="226.7" type="curve" smooth="yes"/>
      <point x="181.55" y="302.0"/>
      <point x="237.775" y="351.225"/>
      <point x="311.415" y="351.225" type="curve" smooth="yes"/>
      <point x="385.3" y="351.225"/>
      <point x="426.45" y="301.415"/>
      <point x="414.205" y="226.7" type="curve" smooth="yes"/>
      <point x="402.545" y="151.4"/>
      <point x="346.32" y="102.175"/>
    </contour>
  </outline>
</glyph>
<glyph name="divide" format="2">
  <advance width="600.0"/>
  <unicode hex="00F7"/>
  <outline>
    <contour>
      <point x="100.075" y="274.525" type="line"/>
      <point x="500.075" y="274.525" type="line"/>
      <point x="517.925" y="387.55" type="line"/>
      <point x="117.925" y="387.55" type="line"/>
    </contour>
    <contour>
      <point x="329.585" y="460.0" type="curve" smooth="yes"/>
      <point x="385.435" y="460.0"/>
      <point x="428.115" y="493.51"/>
      <point x="435.7" y="543.775" type="curve" smooth="yes"/>
      <point x="443.87" y="594.04"/>
      <point x="411.775" y="627.55"/>
      <point x="355.925" y="627.55" type="curve" smooth="yes"/>
      <point x="300.075" y="627.55"/>
      <point x="257.98" y="594.04"/>
      <point x="249.81" y="543.775" type="curve" smooth="yes"/>
      <point x="242.225" y="493.51"/>
      <point x="273.735" y="460.0"/>
    </contour>
    <contour>
      <point x="262.075" y="34.525000000000006" type="curve" smooth="yes"/>
      <point x="317.925" y="34.525000000000006"/>
      <point x="360.605" y="68.035"/>
      <point x="368.19" y="118.3" type="curve" smooth="yes"/>
      <point x="376.36" y="168.565"/>
      <point x="344.85" y="202.075"/>
      <point x="289.0" y="202.075" type="curve" smooth="yes"/>
      <point x="233.15" y="202.075"/>
      <point x="190.47" y="168.565"/>
      <point x="182.3" y="118.3" type="curve" smooth="yes"/>
      <point x="174.715" y="68.035"/>
      <point x="206.225" y="34.525000000000006"/>
    </contour>
  </outline>
</glyph>
<glyph name="oslash" format="2">
  <advance width="600.0"/>
  <unicode hex="00F8"/>
  <anchor x="256.0" y="0.0" name="bottom"/>
  <anchor x="367.98" y="550.0" name="horn"/>
  <anchor x="343.0" y="550.0" name="top"/>
  <outline>
    <contour>
      <point x="-19.85" y="-30.0" type="line"/>
      <point x="85.605" y="-30.0" type="line"/>
      <point x="619.85" y="590.0" type="line"/>
      <point x="513.98" y="590.0" type="line"/>
    </contour>
    <contour>
      <point x="254.0" y="-10.0" type="curve" smooth="yes"/>
      <point x="394.36" y="-10.0"/>
      <point x="495.965" y="74.265"/>
      <point x="516.965" y="205.85" type="curve" smooth="yes"/>
      <point x="539.21" y="344.565" type="line" smooth="yes"/>
      <point x="560.21" y="475.735"/>
      <point x="485.36" y="560.0"/>
      <point x="345.0" y="560.0" type="curve" smooth="yes"/>
      <point x="204.64" y="560.0"/>
      <point x="102.62" y="475.735"/>
      <point x="82.035" y="344.15" type="curve" smooth="yes"/>
      <point x="60.205" y="205.85" type="line" smooth="yes"/>
      <point x="39.620000000000005" y="74.265"/>
      <point x="113.64" y="-10.0"/>
    </contour>
    <contour>
      <point x="271.68" y="99.25" type="curve" smooth="yes"/>
      <point x="201.625" y="99.25"/>
      <point x="166.72" y="139.06"/>
      <point x="177.38" y="205.85" type="curve" smooth="yes"/>
      <point x="199.21" y="344.15" type="line" smooth="yes"/>
      <point x="209.87" y="410.94"/>
      <point x="257.265" y="450.75"/>
      <point x="327.32" y="450.75" type="curve" smooth="yes"/>
      <point x="397.375" y="450.75"/>
      <point x="432.28" y="410.94"/>
      <point x="421.62" y="344.15" type="curve" smooth="yes"/>
      <point x="399.79" y="205.85" type="line" smooth="yes"/>
      <point x="389.13" y="139.06"/>
      <point x="341.735" y="99.25"/>
    </contour>
  </outline>
</glyph>
<glyph name="thorn" format="2">
  <advance width="600.0"/>
  <unicode hex="00FE"/>
  <anchor x="253.925" y="0.0" name="bottom"/>
  <anchor x="369.925" y="730.0" name="top"/>
  <outline>
    <contour>
      <point x="1.7149999999999999" y="-180.0" type="line"/>
      <point x="123.89" y="-180.0" type="line"/>
      <point x="161.305" y="53.735" type="line"/>
      <point x="39.13" y="53.735" type="line"/>
    </contour>
    <component base="b" xOffset="-2.075"/>
  </outline>
</glyph>
<glyph name="Aogonek" format="2">
  <advance width="600.0"/>
  <unicode hex="0104"/>
  <anchor x="256.0" y="0.0" name="bottom"/>
  <anchor x="440.375" y="0.0" name="ogonek"/>
  <anchor x="372.0" y="730.0" name="top"/>
  <outline>
    <contour>
      <point x="403.505" y="-215.87" type="curve" smooth="yes"/>
      <point x="499.055" y="-215.87" type="line"/>
      <point x="512.735" y="-129.54500000000002" type="line"/>
      <point x="447.47" y="-129.54500000000002" type="line" smooth="yes"/>
      <point x="416.395" y="-129.54500000000002"/>
      <point x="401.15" y="-110.885"/>
      <point x="404.565" y="-87.15" type="curve" smooth="yes"/>
      <point x="408.395" y="-65.585"/>
      <point x="428.47" y="-39.51"/>
      <point x="467.185" y="-10.114999999999998" type="curve"/>
      <point x="494.225" y="10.585" type="line"/>
      <point x="412.79" y="10.585" type="line"/>
      <point x="341.035" y="-25.225"/>
      <point x="299.58" y="-69.66"/>
      <point x="292.995" y="-112.925" type="curve" smooth="yes"/>
      <point x="282.825" y="-173.36"/>
      <point x="325.41" y="-215.87"/>
    </contour>
    <component base="A"/>
  </outline>
</glyph>
<glyph name="aogonek" format="2">
  <advance width="600.0"/>
  <unicode hex="0105"/>
  <anchor x="261.0" y="0.0" name="bottom"/>
  <anchor x="402.45" y="0.0" name="ogonek"/>
  <anchor x="348.0" y="550.0" name="top"/>
  <outline>
    <contour>
      <point x="403.245" y="-215.87" type="curve" smooth="yes"/>
      <point x="498.795" y="-215.87" type="line"/>
      <point x="512.475" y="-129.54500000000002" type="line"/>
      <point x="447.21" y="-129.54500000000002" type="line" smooth="yes"/>
      <point x="416.135" y="-129.54500000000002"/>
      <point x="400.89" y="-110.885"/>
      <point x="404.305" y="-87.15" type="curve" smooth="yes"/>
      <point x="408.135" y="-65.585"/>
      <point x="428.21" y="-39.925"/>
      <point x="480.38" y="0.0" type="curve"/>
      <point x="412.53" y="10.585" type="line"/>
      <point x="340.775" y="-25.225"/>
      <point x="299.32" y="-69.66"/>
      <point x="292.735" y="-112.925" type="curve" smooth="yes"/>
      <point x="282.565" y="-173.36"/>
      <point x="325.15" y="-215.87"/>
    </contour>
    <component base="a"/>
  </outline>
</glyph>
<glyph name="dcaron" format="2">
  <advance width="600.0"/>
  <unicode hex="010F"/>
  <outline>
    <contour>
      <point x="550.075" y="550.0" type="line"/>
      <point x="641.775" y="550.0" type="line"/>
      <point x="680.775" y="730.0" type="line"/>
      <point x="579.075" y="730.0" type="line"/>
    </contour>
    <contour>
      <point x="167.375" y="-10.0" type="curve" smooth="yes"/>
      <point x="246.865" y="-10.0"/>
      <point x="306.695" y="45.925"/>
      <point x="320.28" y="134.19" type="curve"/>
      <point x="288.165" y="105.0" type="line"/>
      <point x="316.11" y="105.0" type="line"/>
      <point x="299.11" y="0.0" type="line"/>
      <point x="415.435" y="0.0" type="line"/>
      <point x="531.435" y="730.0" type="line"/>
      <point x="412.185" y="730.0" type="line"/>
      <point x="387.355" y="575.85" type="line"/>
      <point x="369.94" y="445.0" type="line"/>
      <point x="341.165" y="445.0" type="line"/>
      <point x="364.94" y="415.81" type="line"/>
      <point x="379.11" y="504.075"/>
      <point x="337.865" y="560.0"/>
      <point x="258.375" y="560.0" type="curve" smooth="yes"/>
      <point x="157.96" y="560.0"/>
      <point x="81.545" y="480.66"/>
      <point x="61.96" y="354.735" type="curve" smooth="yes"/>
      <point x="36.715" y="195.435" type="line" smooth="yes"/>
      <point x="16.545" y="69.34"/>
      <point x="66.96000000000001" y="-10.0"/>
    </contour>
    <contour>
      <point x="227.925" y="92.57" type="curve" smooth="yes"/>
      <point x="172.45499999999998" y="92.57"/>
      <point x="145.72" y="132.55"/>
      <point x="156.38" y="200.85" type="curve" smooth="yes"/>
      <point x="180.21" y="349.735" type="line" smooth="yes"/>
      <point x="190.87" y="417.45"/>
      <point x="230.435" y="457.43"/>
      <point x="285.905" y="457.43" type="curve" smooth="yes"/>
      <point x="337.865" y="457.43"/>
      <point x="362.26" y="417.45"/>
      <point x="351.6" y="349.735" type="curve" smooth="yes"/>
      <point x="327.77" y="200.85" type="line" smooth="yes"/>
      <point x="317.11" y="132.55"/>
      <point x="279.885" y="92.57"/>
    </contour>
  </outline>
</glyph>
<glyph name="Dcroat" format="2">
  <advance width="600.0"/>
  <unicode hex="0110"/>
  <anchor x="256.0" y="0.0" name="bottom"/>
  <anchor x="314.0" y="365.0" name="center"/>
  <anchor x="372.0" y="730.0" name="top"/>
  <outline>
    <contour>
      <point x="10.0" y="329.15" type="line"/>
      <point x="290.0" y="329.15" type="line"/>
      <point x="303.755" y="415.85" type="line"/>
      <point x="23.755" y="415.85" type="line"/>
    </contour>
    <component base="D"/>
  </outline>
</glyph>
<glyph name="dcroat" format="2">
  <advance width="600.0"/>
  <unicode hex="0111"/>
  <outline>
    <contour>
      <point x="60.035" y="200.435" type="line" smooth="yes"/>
      <point x="40.035" y="70.925"/>
      <point x="96.79" y="-10.0"/>
      <point x="207.375" y="-10.0" type="curve" smooth="yes"/>
      <point x="288.45" y="-10.0"/>
      <point x="348.28" y="32.415"/>
      <point x="370.62" y="105.0" type="curve"/>
      <point x="373.205" y="105.0" type="line"/>
      <point x="356.205" y="0.0" type="line"/>
      <point x="478.38" y="0.0" type="line"/>
      <point x="567.21" y="561.225" type="line"/>
      <point x="644.83" y="561.225" type="line"/>
      <point x="658.0" y="645.0" type="line"/>
      <point x="580.38" y="645.0" type="line"/>
      <point x="594.38" y="730.0" type="line"/>
      <point x="469.28" y="730.0" type="line"/>
      <point x="455.28" y="645.0" type="line"/>
      <point x="302.15" y="645.0" type="line"/>
      <point x="288.98" y="561.225" type="line"/>
      <point x="442.11" y="561.225" type="line"/>
      <point x="434.865" y="515.85" type="line"/>
      <point x="418.035" y="385.0" type="line"/>
      <point x="415.035" y="385.0" type="line"/>
      <point x="415.865" y="457.17"/>
      <point x="368.62" y="500.0"/>
      <point x="288.375" y="500.0" type="curve" smooth="yes"/>
      <point x="177.375" y="500.0"/>
      <point x="94.86500000000001" y="418.49"/>
      <point x="74.28" y="289.15" type="curve" smooth="yes"/>
    </contour>
    <contour>
      <point x="186.135" y="205.85" type="curve" smooth="yes"/>
      <point x="198.38" y="284.15" type="line" smooth="yes"/>
      <point x="209.04" y="352.77"/>
      <point x="251.435" y="391.58"/>
      <point x="315.735" y="391.58" type="curve" smooth="yes"/>
      <point x="378.62" y="391.58"/>
      <point x="408.77" y="351.94"/>
      <point x="398.11" y="284.15" type="curve" smooth="yes"/>
      <point x="385.865" y="205.85" type="line" smooth="yes"/>
      <point x="375.205" y="137.475"/>
      <point x="331.98" y="98.42"/>
      <point x="269.095" y="98.42" type="curve" smooth="yes"/>
      <point x="204.795" y="98.42"/>
      <point x="175.06" y="136.645"/>
    </contour>
  </outline>
</glyph>
<glyph name="Eogonek" format="2">
  <advance width="600.0"/>
  <unicode hex="0118"/>
  <anchor x="320.0" y="0.0" name="bottom"/>
  <anchor x="384.15" y="0.0" name="ogonek"/>
  <anchor x="392.0" y="730.0" name="top"/>
  <anchor x="92.0" y="730.0" name="topleft"/>
  <outline>
    <contour>
      <point x="356.375" y="-215.87" type="curve" smooth="yes"/>
      <point x="451.925" y="-215.87" type="line"/>
      <point x="465.605" y="-129.54500000000002" type="line"/>
      <point x="400.34" y="-129.54500000000002" type="line" smooth="yes"/>
      <point x="369.265" y="-129.54500000000002"/>
      <point x="354.02" y="-110.885"/>
      <point x="357.435" y="-87.15" type="curve" smooth="yes"/>
      <point x="361.265" y="-65.585"/>
      <point x="381.34" y="-39.51"/>
      <point x="420.055" y="-10.114999999999998" type="curve"/>
      <point x="447.095" y="10.585" type="line"/>
      <point x="365.66" y="10.585" type="line"/>
      <point x="293.905" y="-25.225"/>
      <point x="252.45" y="-69.66"/>
      <point x="245.865" y="-112.925" type="curve" smooth="yes"/>
      <point x="235.695" y="-173.36"/>
      <point x="278.28" y="-215.87"/>
    </contour>
    <component base="E"/>
  </outline>
</glyph>
<glyph name="eogonek" format="2">
  <advance width="600.0"/>
  <unicode hex="0119"/>
  <anchor x="343.0" y="550.0" name="top"/>
  <outline>
    <contour>
      <point x="287.055" y="-215.87" type="curve" smooth="yes"/>
      <point x="382.605" y="-215.87" type="line"/>
      <point x="396.285" y="-129.54500000000002" type="line"/>
      <point x="331.02" y="-129.54500000000002" type="line" smooth="yes"/>
      <point x="299.945" y="-129.54500000000002"/>
      <point x="284.7" y="-110.885"/>
      <point x="288.115" y="-87.15" type="curve" smooth="yes"/>
      <point x="291.945" y="-65.585"/>
      <point x="312.02" y="-39.51"/>
      <point x="350.735" y="-10.114999999999998" type="curve" smooth="yes"/>
      <point x="392.72" y="22.775" type="line"/>
      <point x="444.04" y="50.114999999999995"/>
      <point x="484.87" y="92.36"/>
      <point x="503.795" y="145.85" type="curve"/>
      <point x="380.45" y="145.85" type="line"/>
      <point x="364.79" y="109.13499999999999"/>
      <point x="327.98" y="88.815"/>
      <point x="271.85" y="88.815" type="curve" smooth="yes"/>
      <point x="198.625" y="88.815"/>
      <point x="168.135" y="129.38"/>
      <point x="180.38" y="205.85" type="curve" smooth="yes"/>
      <point x="186.625" y="245.395" type="line"/>
      <point x="523.21" y="245.395" type="line"/>
      <point x="538.795" y="344.15" type="line" smooth="yes"/>
      <point x="559.795" y="474.075"/>
      <point x="484.945" y="560.0"/>
      <point x="345.585" y="560.0" type="curve" smooth="yes"/>
      <point x="205.64" y="560.0"/>
      <point x="103.035" y="474.075"/>
      <point x="82.035" y="344.15" type="curve" smooth="yes"/>
      <point x="60.205" y="205.85" type="line" smooth="yes"/>
      <point x="39.620000000000005" y="75.925"/>
      <point x="114.64" y="-10.0"/>
      <point x="254.585" y="-10.0" type="curve" smooth="yes"/>
      <point x="276.305" y="-10.0"/>
      <point x="293.175" y="1.1149999999999984"/>
      <point x="296.76" y="12.814999999999998" type="curve"/>
      <point x="222.925" y="-29.79"/>
      <point x="182.3" y="-72.98"/>
      <point x="176.54500000000002" y="-112.925" type="curve" smooth="yes"/>
      <point x="166.375" y="-173.36"/>
      <point x="208.96" y="-215.87"/>
    </contour>
    <contour>
      <point x="412.13" y="302.06" type="line"/>
      <point x="438.24" y="324.51" type="line"/>
      <point x="198.795" y="323.34" type="line"/>
      <point x="202.21" y="344.15" type="line" smooth="yes"/>
      <point x="214.45499999999998" y="420.035"/>
      <point x="257.435" y="462.77"/>
      <point x="330.075" y="462.77" type="curve" smooth="yes"/>
      <point x="402.13" y="462.77"/>
      <point x="430.865" y="421.205"/>
      <point x="418.62" y="345.32" type="curve" smooth="yes"/>
    </contour>
  </outline>
</glyph>
<glyph name="Iogonek" format="2">
  <advance width="600.0"/>
  <unicode hex="012E"/>
  <anchor x="256.0" y="0.0" name="bottom"/>
  <anchor x="280.0" y="0.0" name="ogonek"/>
  <anchor x="372.0" y="730.0" name="top"/>
  <anchor x="92.0" y="730.0" name="topleft"/>
  <outline>
    <contour>
      <point x="222.225" y="-215.87" type="curve" smooth="yes"/>
      <point x="317.775" y="-215.87" type="line"/>
      <point x="331.455" y="-129.54500000000002" type="line"/>
      <point x="266.19" y="-129.54500000000002" type="line" smooth="yes"/>
      <point x="235.115" y="-129.54500000000002"/>
      <point x="219.87" y="-110.885"/>
      <point x="223.285" y="-87.15" type="curve" smooth="yes"/>
      <point x="227.115" y="-65.585"/>
      <point x="247.19" y="-39.51"/>
      <point x="285.905" y="-10.114999999999998" type="curve"/>
      <point x="312.945" y="10.585" type="line"/>
      <point x="231.51" y="10.585" type="line"/>
      <point x="159.755" y="-25.225"/>
      <point x="118.3" y="-69.66"/>
      <point x="111.715" y="-112.925" type="curve" smooth="yes"/>
      <point x="101.545" y="-173.36"/>
      <point x="144.13" y="-215.87"/>
    </contour>
    <component base="I"/>
  </outline>
</glyph>
<glyph name="iogonek" format="2">
  <advance width="600.0"/>
  <unicode hex="012F"/>
  <anchor x="273.925" y="0.0" name="bottom"/>
  <anchor x="290.0" y="0.0" name="ogonek"/>
  <anchor x="398.095" y="786.36" name="top"/>
  <outline>
    <contour>
      <point x="240.15" y="-215.87" type="curve" smooth="yes"/>
      <point x="335.7" y="-215.87" type="line"/>
      <point x="349.38" y="-129.54500000000002" type="line"/>
      <point x="284.115" y="-129.54500000000002" type="line" smooth="yes"/>
      <point x="253.04" y="-129.54500000000002"/>
      <point x="237.795" y="-110.885"/>
      <point x="241.21" y="-87.15" type="curve" smooth="yes"/>
      <point x="245.04" y="-65.585"/>
      <point x="265.115" y="-39.51"/>
      <point x="303.83" y="-10.114999999999998" type="curve"/>
      <point x="330.87" y="10.585" type="line"/>
      <point x="249.435" y="10.585" type="line"/>
      <point x="177.68" y="-25.225"/>
      <point x="136.225" y="-69.66"/>
      <point x="129.64" y="-112.925" type="curve" smooth="yes"/>
      <point x="119.47" y="-173.36"/>
      <point x="162.055" y="-215.87"/>
    </contour>
    <component base="idotless"/>
    <component base="dotaccentcomb" xOffset="617.925"/>
  </outline>
</glyph>
<glyph name="idotless" format="2">
  <advance width="600.0"/>
  <unicode hex="0131"/>
  <anchor x="273.925" y="0.0" name="bottom"/>
  <anchor x="290.0" y="0.0" name="ogonek"/>
  <anchor x="360.925" y="550.0" name="top"/>
  <outline>
    <contour>
      <point x="30.15" y="0.0" type="line"/>
      <point x="511.85" y="0.0" type="line"/>
      <point x="530.115" y="113.59" type="line"/>
      <point x="359.74" y="113.59" type="line"/>
      <point x="428.475" y="550.0" type="line"/>
      <point x="142.15" y="550.0" type="line"/>
      <point x="124.47" y="436.995" type="line"/>
      <point x="291.545" y="436.995" type="line"/>
      <point x="240.49" y="113.59" type="line"/>
      <point x="48.415" y="113.59" type="line"/>
    </contour>
  </outline>
</glyph>
<glyph name="Lslash" format="2">
  <advance width="600.0"/>
  <unicode hex="0141"/>
  <anchor x="301.85" y="0.0" name="bottom"/>
  <anchor x="319.85" y="365.0" name="center"/>
  <anchor x="264.115" y="730.0" name="top"/>
  <anchor x="657.85" y="730.0" name="topright"/>
  <outline>
    <contour>
      <point x="12.0" y="225.415" type="line"/>
      <point x="422.585" y="444.9" type="line"/>
      <point x="440.85" y="564.585" type="line"/>
      <point x="30.85" y="345.1" type="line"/>
    </contour>
    <component base="L" xOffset="5.85"/>
  </outline>
</glyph>
<glyph name="Eng" format="2">
  <advance width="600.0"/>
  <unicode hex="014A"/>
  <outline>
    <contour>
      <point x="172.85" y="-180.0" type="line"/>
      <point x="229.075" y="-180.0" type="line" smooth="yes"/>
      <point x="363.02" y="-180.0"/>
      <point x="467.72" y="-98.905"/>
      <point x="486.72" y="20.85" type="curve" smooth="yes"/>
      <point x="599.55" y="730.0" type="line"/>
      <point x="486.225" y="730.0" type="line"/>
      <point x="444.925" y="472.465" type="line" smooth="yes"/>
      <point x="433.51" y="401.805"/>
      <point x="424.925" y="288.085"/>
      <point x="420.34" y="224.63" type="curve"/>
      <point x="292.87" y="730.0" type="line"/>
      <point x="144.45" y="730.0" type="line"/>
      <point x="28.450000000000003" y="0.0" type="line"/>
      <point x="141.775" y="0.0" type="line"/>
      <point x="198.585" y="357.35" type="line" smooth="yes"/>
      <point x="210.0" y="428.01"/>
      <point x="219.0" y="532.125"/>
      <point x="223.0" y="589.9" type="curve"/>
      <point x="362.79" y="30.21" type="line"/>
      <point x="354.13" y="-26.92"/>
      <point x="313.075" y="-61.145"/>
      <point x="253.775" y="-61.145" type="curve" smooth="yes"/>
      <point x="191.7" y="-61.145" type="line"/>
    </contour>
  </outline>
</glyph>
<glyph name="eng" format="2">
  <advance width="600.0"/>
  <unicode hex="014B"/>
  <outline>
    <contour>
      <point x="170.51" y="-180.0" type="line"/>
      <point x="225.905" y="-180.0" type="line" smooth="yes"/>
      <point x="359.85" y="-180.0"/>
      <point x="464.965" y="-98.905"/>
      <point x="483.55" y="20.85" type="curve" smooth="yes"/>
      <point x="537.625" y="361.225" type="line" smooth="yes"/>
      <point x="556.795" y="482.32"/>
      <point x="499.795" y="560.0"/>
      <point x="391.55" y="560.0" type="curve" smooth="yes"/>
      <point x="300.135" y="560.0"/>
      <point x="236.21" y="505.905"/>
      <point x="221.625" y="415.81" type="curve"/>
      <point x="259.42" y="445.0" type="line"/>
      <point x="225.795" y="445.0" type="line"/>
      <point x="242.795" y="550.0" type="line"/>
      <point x="120.62" y="550.0" type="line"/>
      <point x="33.620000000000005" y="0.0" type="line"/>
      <point x="158.72" y="0.0" type="line"/>
      <point x="213.135" y="344.15" type="line" smooth="yes"/>
      <point x="224.21" y="412.77"/>
      <point x="266.85" y="452.41"/>
      <point x="328.98" y="452.41" type="curve" smooth="yes"/>
      <point x="390.45" y="452.41"/>
      <point x="420.77" y="414.015"/>
      <point x="410.525" y="348.3" type="curve" smooth="yes"/>
      <point x="359.62" y="30.21" type="line" smooth="yes"/>
      <point x="350.96" y="-26.92"/>
      <point x="309.905" y="-61.145"/>
      <point x="250.605" y="-61.145" type="curve" smooth="yes"/>
      <point x="189.36" y="-61.145" type="line"/>
    </contour>
  </outline>
</glyph>
<glyph name="OE" format="2">
  <advance width="600.0"/>
  <unicode hex="0152"/>
  <outline>
    <contour>
      <point x="137.885" y="-6.49" type="curve" smooth="yes"/>
      <point x="208.64" y="-6.49"/>
      <point x="250.47" y="44.51"/>
      <point x="262.885" y="83.51" type="curve"/>
      <point x="267.885" y="83.51" type="line"/>
      <point x="254.3" y="0.0" type="line"/>
      <point x="533.925" y="0.0" type="line"/>
      <point x="551.02" y="107.74" type="line"/>
      <point x="383.38" y="107.74" type="line"/>
      <point x="416.945" y="321.375" type="line"/>
      <point x="559.585" y="321.375" type="line"/>
      <point x="576.68" y="429.115" type="line"/>
      <point x="434.04" y="429.115" type="line"/>
      <point x="465.19" y="622.845" type="line"/>
      <point x="632.83" y="622.845" type="line"/>
      <point x="649.925" y="730.0" type="line"/>
      <point x="370.3" y="730.0" type="line"/>
      <point x="357.3" y="650.0" type="line"/>
      <point x="352.3" y="650.0" type="line"/>
      <point x="352.885" y="689.0"/>
      <point x="327.055" y="740.0"/>
      <point x="256.3" y="740.0" type="curve" smooth="yes"/>
      <point x="163.225" y="740.0"/>
      <point x="95.565" y="666.415"/>
      <point x="76.565" y="544.735" type="curve" smooth="yes"/>
      <point x="20.32" y="188.775" type="line" smooth="yes"/>
      <point x="0.7350000000000003" y="67.095"/>
      <point x="44.81" y="-6.49"/>
    </contour>
    <contour>
      <point x="195.775" y="99.835" type="curve" smooth="yes"/>
      <point x="152.06" y="99.835"/>
      <point x="130.91" y="133.645"/>
      <point x="139.57" y="188.775" type="curve" smooth="yes"/>
      <point x="195.815" y="544.735" type="line" smooth="yes"/>
      <point x="204.475" y="599.865"/>
      <point x="236.7" y="633.675"/>
      <point x="280.415" y="633.675" type="curve" smooth="yes"/>
      <point x="324.715" y="633.675"/>
      <point x="345.865" y="600.45"/>
      <point x="337.205" y="544.735" type="curve" smooth="yes"/>
      <point x="280.96" y="188.775" type="line" smooth="yes"/>
      <point x="271.715" y="133.06"/>
      <point x="240.075" y="99.835"/>
    </contour>
  </outline>
</glyph>
